<?xml version="1.0" encoding="UTF-8" standalone="no"?>
<svg width="213px" height="51px" viewBox="0 0 213 51" version="1.1" xmlns="http://www.w3.org/2000/svg" xmlns:xlink="http://www.w3.org/1999/xlink">
    <!-- Generator: Sketch 3.6.1 (26313) - http://www.bohemiancoding.com/sketch -->
    <title>base creative</title>
    <desc>Created with Sketch.</desc>
    <defs></defs>
    <g id="Page-1" stroke="none" stroke-width="1" fill="none" fill-rule="evenodd">
        <g id="base-creative" fill="#333333">
            <g id="Layer_1">
                <g id="Group">
                    <path d="M20.4545455,3.65909091 C11.9318182,4.34090909 5.22727273,7.63636364 5.22727273,11.2727273 C5.22727273,12.75 6.36363636,13.8863636 8.29545455,14.4545455 C9.43181818,14.7954545 9.31818182,15.9318182 8.40909091,15.8181818 C4.88636364,15.3636364 2.72727273,13.6590909 2.61363636,11.2727273 C2.38636364,7.06818182 9.43181818,2.40909091 18.75,0.590909091 C28.0681818,-1.22727273 42.2727273,1.15909091 41.1363636,10.4772727 C40.5681818,14.9090909 33.75,19.6818182 30.3409091,21.1590909 C31.4772727,21.9545455 32.5,22.75 33.4090909,23.7727273 C40.4545455,24.1136364 49.3181818,27.5227273 51.8181818,30.0227273 C51.8181818,30.0227273 49.4318182,32.4090909 47.5,30.3636364 C45.1136364,27.6363636 38.4090909,26.7272727 35,26.3863636 C37.5,32.5227273 31.4772727,41.3863636 24.2045455,45.1363636 C10.2272727,52.5227273 -0.568181818,47.4090909 0.909090909,39.1136364 C2.72727273,29.3409091 19.6590909,23.8863636 29.8863636,23.7727273 C29.2045455,23.0909091 28.5227273,22.6363636 27.6136364,22.1818182 C23.1818182,23.8863636 18.6363636,24.5681818 15.9090909,24.1136364 C14.3181818,23.8863636 13.4090909,22.75 13.6363636,21.5 C13.75,20.7045455 14.3181818,20.3636364 14.5454545,20.1363636 C16.25,18.7727273 20.2272727,18.0909091 24.4318182,18.7727273 C25.2272727,18.8863636 25.7954545,19.1136364 26.3636364,19.3409091 C31.4772727,17.0681818 34.7727273,12.75 34.7727273,9.45454545 C34.6590909,4 25.5681818,3.77272727 25.5681818,3.77272727 C25.5681818,3.77272727 23.1818182,3.43181818 20.4545455,3.65909091 L20.4545455,3.65909091 Z M22.8409091,21.2727273 C19.8863636,20.8181818 17.2727273,20.9318182 16.25,22.0681818 L16.25,22.0681818 C17.9545455,22.1818182 20.2272727,22.1818182 22.8409091,21.2727273 L22.8409091,21.2727273 Z M31.9318182,28.3181818 C32.0454545,27.6363636 32.0454545,26.9545455 31.7045455,26.3863636 C21.0227273,25.5909091 6.81818182,33.0909091 5.90909091,38.5454545 C5.45454545,40.9318182 7.61363636,41.6136364 8.97727273,41.8409091 C18.2954545,43.3181818 30.7954545,35.0227273 31.9318182,28.3181818 L31.9318182,28.3181818 Z" id="Shape"></path>
                    <path d="M7.15909091,26.0454545 C8.63636364,22.6363636 15,11.3863636 17.0454545,7.97727273 C17.8409091,6.61363636 18.5227273,5.70454545 20.2272727,6.04545455 C21.7045455,6.38636364 21.3636364,8.09090909 20.5681818,9.11363636 C18.0681818,12.1818182 15.1136364,16.6136364 12.9545455,19.9090909 C11.8181818,21.6136364 8.86363636,26.8409091 8.29545455,27.1818182 C7.38636364,27.5227273 6.81818182,26.9545455 7.15909091,26.0454545 L7.15909091,26.0454545 Z" id="Shape"></path>
                    <path d="M171.818182,28.7727273 C171.818182,28.7727273 171.590909,28.7727273 171.25,28.6590909 L170.568182,28.6590909 L169.772727,28.6590909 C169.431818,28.6590909 169.090909,28.6590909 168.75,28.7727273 C168.409091,28.7727273 168.068182,28.8863636 167.727273,28.8863636 C167.386364,29 166.931818,29 166.590909,29 C166.136364,29.1136364 165.795455,29.1136364 165.454545,29.2272727 C163.863636,29.5681818 162.386364,30.0227273 161.25,30.3636364 C160.113636,30.7045455 159.318182,30.9318182 159.318182,30.9318182 C158.522727,31.1590909 157.727273,30.7045455 157.5,29.9090909 C157.272727,29.1136364 157.727273,28.3181818 158.522727,28.0909091 C158.636364,28.0909091 158.636364,27.9772727 158.75,27.9772727 L158.75,27.9772727 C158.75,27.9772727 159.545455,27.8636364 160.795455,27.6363636 C162.045455,27.4090909 163.636364,27.1818182 165.340909,27.0681818 C165.795455,26.9545455 166.25,26.9545455 166.590909,26.9545455 L167.840909,26.9545455 C168.295455,26.9545455 168.636364,26.9545455 168.977273,27.0681818 C169.318182,27.0681818 169.659091,27.1818182 170,27.1818182 C170.340909,27.1818182 170.681818,27.2954545 170.909091,27.2954545 C171.25,27.4090909 171.363636,27.4090909 171.590909,27.4090909 C171.931818,27.5227273 172.159091,27.5227273 172.159091,27.5227273 C172.5,27.6363636 172.727273,27.9772727 172.727273,28.3181818 C172.386364,28.5454545 172.045455,28.7727273 171.818182,28.7727273 L171.818182,28.7727273 Z" id="Shape"></path>
                    <path d="M170.340909,44.9090909 C168.409091,44.9090909 166.590909,43.4318182 166.590909,41.0454545 C166.590909,39.2272727 168.295455,36.2727273 170.227273,33.3181818 C171.363636,31.6136364 172.5,29.1136364 173.75,29.1136364 C175.568182,29 176.25,30.0227273 176.25,31.5 C176.25,32.1818182 175.568182,32.75 174.204545,34.9090909 C172.613636,37.1818182 169.772727,41.1590909 170.681818,42.1818182 C171.25,42.75 176.363636,42.6363636 178.068182,37.0681818 C178.636364,35.25 179.318182,37.2954545 180.454545,36.1590909 L180.568182,36.0454545 C180.795455,35.8181818 181.136364,35.7045455 181.363636,35.7045455 C181.931818,35.7045455 181.931818,36.0454545 181.931818,36.6136364 C181.931818,37.0681818 181.590909,37.4090909 181.25,37.6363636 L179.431818,37.5227273 C178.068182,39.1136364 177.386364,44.9090909 170.340909,44.9090909 L170.340909,44.9090909 Z" id="Shape"></path>
                    <path d="M160.227273,44.9090909 C157.613636,44.9090909 156.136364,43.2045455 156.136364,40.9318182 C156.136364,39.1136364 157.954545,36.0454545 159.659091,33.0909091 C160.795455,31.0454545 161.590909,29.6818182 162.159091,28.6590909 C162.727273,27.6363636 163.181818,27.5227273 163.977273,27.5227273 C165.795455,27.5227273 165.795455,28.3181818 165.909091,29.7954545 C166.022727,30.4772727 165.113636,31.1590909 163.295455,34.4545455 C161.931818,36.9545455 158.409091,42.1818182 160.909091,42.1818182 C164.090909,42.1818182 167.5,38.2045455 168.522727,36.1590909 C168.522727,36.1590909 168.863636,35.4772727 169.318182,35.3636364 C169.886364,35.1363636 169.659091,35.0227273 169.886364,35.5909091 C170.113636,36.0454545 169.886364,36.5 169.659091,36.8409091 L168.863636,36.1590909 C168.295455,37.8636364 166.931818,44.9090909 160.227273,44.9090909 L160.227273,44.9090909 Z" id="Shape"></path>
                    <path d="M151.931818,32.8636364 C151.136364,33.0909091 150.568182,33.8863636 148.181818,36.5 C144.659091,40.1363636 141.704545,43.6590909 140.795455,42.6363636 C139.204545,40.7045455 147.159091,31.5 152.272727,31.6136364 C152.386364,31.6136364 152.5,31.7272727 152.5,31.7272727 C153.863636,33.5454545 154.772727,32.2954545 154.772727,31.8409091 C154.659091,30.1363636 151.931818,28.6590909 149.318182,28.6590909 C143.522727,28.8863636 136.022727,37.0681818 136.136364,41.0454545 C136.25,43.0909091 137.727273,45.25 140.568182,45.0227273 C143.181818,44.6818182 144.659091,42.75 147.613636,39.6818182 L147.613636,40.0227273 C147.386364,42.9772727 148.409091,45.0227273 150.795455,45.1363636 C157.613636,45.25 161.931818,34.6818182 161.931818,34.6818182 C162.272727,34.3409091 162.5,34 162.5,33.5454545 C162.386364,32.9772727 162.045455,32.75 161.590909,32.75 C162.045455,32.1818182 160.454545,31.7272727 158.409091,35.4772727 C156.704545,38.5454545 153.409091,43.2045455 151.818182,42.5227273 C150.795455,42.0681818 151.25,39.7954545 152.386364,37.8636364 C153.181818,36.5 154.318182,35.4772727 154.318182,35.0227273 C154.204545,33.7727273 153.068182,32.6363636 151.931818,32.8636364 L151.931818,32.8636364 Z" id="Shape"></path>
                    <path d="M162.954545,35.1363636 C164.318182,33.0909091 168.295455,26.1590909 168.295455,26.1590909 C169.318182,24.4545455 169.204545,23.7727273 168.75,22.6363636 C168.409091,21.7272727 167.386364,21.2727273 166.477273,21.3863636 C166.022727,21.5 165.340909,23.2045455 163.863636,25.7045455 L163.409091,26.5 L161.590909,29.6818182 C160,32.5227273 158.068182,35.3636364 156.931818,38.2045455" id="Shape"></path>
                    <path d="M177.5,22.5227273 C176.931818,23.6590909 177.045455,25.3636364 178.295455,26.0454545 C179.431818,26.6136364 181.022727,25.5909091 181.704545,24.4545455 C182.272727,23.3181818 181.818182,21.9545455 180.681818,21.5 C179.318182,20.8181818 178.068182,21.3863636 177.5,22.5227273 L177.5,22.5227273 Z" id="Shape"></path>
                    <path d="M136.704545,38.5454545 C135.340909,41.2727273 132.045455,43.2045455 129.545455,42.8636364 C128.068182,42.6363636 127.727273,41.5 128.181818,39.4545455 C130.340909,38.4318182 136.590909,35.1363636 137.386364,31.6136364 C137.840909,29.4545455 136.590909,28.4318182 134.318182,27.8636364 C129.431818,26.9545455 122.159091,33.2045455 122.5,40.0227273 C122.727273,43.4318182 126.022727,45.1363636 129.545455,44.5681818 C132.840909,44.1136364 135,42.4090909 136.931818,40.8181818 C138.977273,39.1136364 138.977273,37.2954545 138.977273,37.2954545 C138.977273,37.2954545 137.954545,35.9318182 136.704545,38.5454545 L136.704545,38.5454545 Z M128.977273,36.1590909 C130,33.6590909 132.045455,31.8409091 133.522727,31.1590909 C135.454545,30.1363636 135.113636,31.9545455 134.659091,32.5227273 C133.295455,34.3409091 129.886364,36.7272727 128.75,37.1818182 C128.75,37.0681818 128.863636,36.3863636 128.977273,36.1590909 L128.977273,36.1590909 Z" id="Shape"></path>
                    <path d="M188.636364,33.2045455 C188.636364,33.2045455 188.75,33.3181818 188.977273,33.4318182 C189.090909,33.5454545 189.204545,33.6590909 189.318182,33.7727273 C189.431818,33.8863636 189.659091,34 189.772727,34.1136364 C189.886364,34.2272727 190.113636,34.3409091 190.340909,34.4545455 C190.454545,34.5681818 190.568182,34.5681818 190.681818,34.6818182 C190.795455,34.7954545 190.909091,34.7954545 191.022727,34.9090909 C191.136364,35.0227273 191.25,35.0227273 191.363636,35.1363636 C191.477273,35.25 191.590909,35.25 191.704545,35.3636364 C191.931818,35.4772727 192.159091,35.5909091 192.386364,35.7045455 C192.613636,35.8181818 192.840909,35.9318182 193.068182,35.9318182 C193.181818,36.0454545 193.295455,36.0454545 193.409091,36.0454545 C193.522727,36.0454545 193.636364,36.1590909 193.75,36.1590909 C193.863636,36.1590909 193.977273,36.2727273 194.090909,36.2727273 C194.204545,36.2727273 194.204545,36.3863636 194.318182,36.3863636 C194.431818,36.5 194.431818,36.5 194.545455,36.5 C194.659091,36.6136364 194.772727,36.6136364 194.886364,36.7272727 C195,36.8409091 195.113636,36.8409091 195.227273,36.9545455 C195.454545,37.0681818 195.568182,37.1818182 195.795455,37.2954545 C196.022727,37.4090909 196.136364,37.4090909 196.25,37.5227273 C196.477273,37.6363636 196.590909,37.75 196.590909,37.75 L196.590909,37.75 C196.704545,37.8636364 196.704545,37.8636364 196.704545,37.9772727 C196.704545,38.0909091 196.590909,38.0909091 196.590909,38.0909091 C196.590909,38.0909091 196.477273,38.2045455 196.136364,38.2045455 C196.022727,38.3181818 195.795455,38.3181818 195.681818,38.3181818 C195.454545,38.4318182 195.227273,38.4318182 195,38.4318182 C194.886364,38.4318182 194.772727,38.5454545 194.659091,38.5454545 C194.545455,38.5454545 194.431818,38.5454545 194.204545,38.6590909 L193.977273,38.6590909 L193.75,38.6590909 C193.636364,38.5454545 193.409091,38.5454545 193.295455,38.4318182 C193.181818,38.3181818 192.954545,38.3181818 192.840909,38.2045455 C192.727273,38.0909091 192.5,38.0909091 192.386364,37.9772727 C192.045455,37.8636364 191.818182,37.6363636 191.590909,37.5227273 C191.363636,37.2954545 191.022727,37.1818182 190.795455,36.9545455 C190.568182,36.7272727 190.340909,36.6136364 190.113636,36.3863636 C189.886364,36.1590909 189.659091,35.9318182 189.545455,35.8181818 C189.318182,35.5909091 189.204545,35.3636364 189.090909,35.25 C188.977273,35.0227273 188.863636,34.9090909 188.75,34.6818182 C188.636364,34.4545455 188.522727,34.3409091 188.522727,34.2272727 C188.522727,34.1136364 188.409091,34 188.409091,33.8863636 C188.409091,33.7727273 188.295455,33.7727273 188.295455,33.7727273 C188.181818,33.6590909 188.295455,33.5454545 188.409091,33.5454545 C188.522727,33.0909091 188.522727,33.0909091 188.636364,33.2045455 L188.636364,33.2045455 Z" id="Shape"></path>
                    <path d="M189.659091,27.8636364 L189.659091,27.8636364 L188.977273,27.8636364 C188.636364,27.9772727 188.295455,27.9772727 188.068182,28.0909091 C187.727273,28.2045455 187.272727,28.5454545 186.818182,29 C186.477273,29.3409091 186.25,29.7954545 186.022727,30.25 C185.681818,31.1590909 185.795455,32.1818182 186.363636,33.0909091 C186.818182,33.8863636 187.840909,32.8636364 187.386364,32.0681818 C187.159091,31.7272727 187.045455,31.2727273 187.045455,30.8181818 C187.045455,30.0227273 187.5,29.3409091 188.068182,29.3409091 C188.409091,29.3409091 188.863636,29.7954545 188.863636,30.7045455 C188.863636,34.4545455 182.159091,42.1818182 181.022727,42.8636364 C180.795455,41.5 181.704545,39.9090909 182.386364,38.5454545 C183.636364,36.1590909 184.659091,34.1136364 184.659091,32.8636364 C184.659091,31.0454545 183.295455,29.4545455 181.704545,29.4545455 C180.795455,29.4545455 180.227273,29.9090909 180.227273,30.8181818 C180.227273,31.6136364 177.159091,39.9090909 177.159091,41.6136364 C177.159091,43.0909091 178.409091,45.0227273 180.113636,45.0227273 C184.431818,45.0227273 192.272727,39.1136364 193.068182,31.8409091 C193.409091,28.7727273 190.568182,27.8636364 189.659091,27.8636364 L189.659091,27.8636364 Z" id="Shape"></path>
                    <path d="M49.8863636,33.0909091 C49.0909091,33.2045455 48.0681818,33.8863636 45.5681818,36.5 C41.9318182,40.1363636 38.6363636,43.2045455 38.2954545,42.75 C36.9318182,40.5909091 45.1136364,31.5 50.2272727,31.8409091 C50.3409091,31.8409091 50.4545455,31.9545455 50.4545455,31.9545455 C51.8181818,33.8863636 52.7272727,32.6363636 52.7272727,32.0681818 C52.7272727,30.3636364 49.7727273,28.2045455 47.1590909,28.2045455 C41.8181818,28.2045455 33.5227273,36.0454545 33.5227273,40.9318182 C33.5227273,43.0909091 34.3181818,45.1363636 37.5,45.1363636 C40,45.1363636 42.1590909,43.2045455 45.1136364,39.9090909 L45.1136364,40.25 C45.1136364,42.4090909 46.0227273,45.0227273 48.5227273,45.0227273 C52.9545455,45.1363636 58.9772727,36.1590909 58.9772727,36.1590909 C59.3181818,35.8181818 59.6590909,35.4772727 59.6590909,35.0227273 C59.6590909,34.4545455 59.4318182,34.3409091 58.9772727,34.3409091 C58.9772727,34.3409091 52.0454545,42.0681818 49.3181818,42.0681818 C48.1818182,42.0681818 48.8636364,39.9090909 50.1136364,38.0909091 C51.0227273,36.7272727 52.1590909,35.7045455 52.1590909,35.25 C52.2727273,34 51.1363636,32.8636364 49.8863636,33.0909091 L49.8863636,33.0909091 Z" id="Shape"></path>
                    <path d="M68.0681818,38.5454545 L67.9545455,38.6590909 C66.5909091,40.0227273 65.3409091,40.3636364 63.0681818,40.8181818 C63.0681818,40.9318182 62.9545455,41.5 62.9545455,41.6136364 C62.5,44 59.8863636,45.4772727 56.7045455,45.3636364 C53.5227273,45.25 51.0227273,42.6363636 51.0227273,40.5909091 C51.0227273,39.9090909 51.4772727,39.1136364 52.6136364,39.1136364 C52.7272727,39.1136364 53.1818182,39.2272727 53.1818182,39.2272727 C53.6363636,39.3409091 54.4318182,39.4545455 54.8863636,39.4545455 C55.7954545,39.5681818 57.0454545,39.7954545 58.4090909,39.9090909 C58.75,39.1136364 58.75,37.6363636 58.2954545,36.6136364 C57.9545455,35.7045455 57.6136364,35.0227273 57.3863636,34.5681818 C57.1590909,34 57.0454545,33.5454545 57.0454545,32.8636364 C57.0454545,30.3636364 60.1136364,27.75 61.8181818,27.75 C63.1818182,27.75 64.3181818,29.2272727 64.3181818,30.3636364 C64.3181818,31.0454545 63.75,31.6136364 62.7272727,32.4090909 C61.9318182,32.9772727 61.0227273,34.2272727 61.0227273,34.7954545 C61.0227273,35.8181818 61.3636364,36.5 61.8181818,37.2954545 C62.1590909,37.8636364 62.5,38.4318182 62.7272727,39.2272727 C62.8409091,39.3409091 62.8409091,39.4545455 62.8409091,39.5681818 C64.8863636,39.1136364 65.9090909,38.7727273 67.1590909,37.6363636 L67.1590909,37.1818182 L67.1590909,37.1818182 C67.2727273,36.7272727 68.2954545,38.3181818 68.0681818,38.5454545 L68.0681818,38.5454545 Z M58.0681818,40.9318182 C56.4772727,40.9318182 54.7727273,40.8181818 54.2045455,40.8181818 C54.0909091,40.8181818 53.9772727,40.9318182 53.9772727,41.0454545 C53.9772727,41.2727273 54.5454545,42.4090909 55.9090909,42.2954545 C56.4772727,42.2954545 57.5,42.2954545 58.0681818,40.9318182 L58.0681818,40.9318182 Z" id="Shape"></path>
                    <path d="M111.590909,34.4545455 C113.295455,32.4090909 115,30.3636364 116.022727,28.5454545 C117.045455,26.7272727 116.818182,30.1363636 116.818182,30.1363636 L111.590909,34.4545455 L111.590909,34.4545455 Z" id="Shape"></path>
                    <path d="M212.159091,41.1590909 C211.818182,40.9318182 211.25,41.0454545 210.795455,41.3863636 C210.113636,41.8409091 207.840909,43.3181818 204.431818,43.4318182 C201.704545,43.5454545 198.409091,42.1818182 198.181818,38.8863636 C197.954545,35.3636364 199.886364,32.2954545 201.931818,31.1590909 C203.409091,30.3636364 203.181818,31.6136364 202.954545,32.1818182 C202.386364,33.4318182 201.477273,34.6818182 200.340909,35.3636364 L200.340909,35.3636364 C199.204545,36.0454545 199.545455,38.2045455 200.681818,37.75 C201.590909,37.2954545 202.159091,36.8409091 202.954545,36.1590909 C204.318182,34.9090909 205.340909,33.2045455 205.568182,31.7272727 C205.795455,30.9318182 205.681818,30.25 205.113636,29.5681818 C204.545455,28.7727273 203.636364,28.3181818 202.272727,28.0909091 C202.159091,28.0909091 202.045455,28.0909091 201.931818,27.9772727 C200.227273,27.8636364 197.727273,29 195.909091,30.8181818 C193.863636,32.75 192.840909,35.1363636 192.840909,37.5227273 C192.954545,42.9772727 196.590909,45.7045455 202.840909,45.5909091 L202.840909,45.5909091 C207.727273,45.4772727 211.25,43.6590909 212.272727,41.9545455 C212.613636,41.7272727 212.5,41.3863636 212.159091,41.1590909 L212.159091,41.1590909 Z" id="Shape"></path>
                    <g transform="translate(64.772727, 27.409091)" id="Shape">
                        <path d="M22.1590909,15.5681818 C18.75,16.5909091 15.3409091,16.9318182 12.0454545,16.3636364 C7.61363636,15.6818182 5.45454545,13.4090909 5.22727273,11.3636364 C10.1136364,9.54545455 12.1590909,7.15909091 12.5,4.54545455 C12.7272727,2.72727273 10.7954545,0.681818182 8.63636364,0.568181818 C4.88636364,0.340909091 -1.02272727,5.11363636 0.454545455,11.25 C1.59090909,16.25 7.04545455,18.75 13.0681818,18.9772727 C17.0454545,19.2045455 20.7954545,18.4090909 24.2045455,17.0454545 C23.5227273,16.5909091 22.8409091,16.1363636 22.1590909,15.5681818 L22.1590909,15.5681818 Z M5.34090909,8.75 C5.90909091,6.59090909 7.5,4.77272727 8.75,3.97727273 C10.3409091,2.95454545 10.5681818,4.31818182 10.4545455,4.88636364 C10.1136364,6.59090909 6.59090909,8.86363636 5.22727273,9.43181818 C5.22727273,9.43181818 5.22727273,8.97727273 5.34090909,8.75 L5.34090909,8.75 Z"></path>
                        <path d="M29.7727273,13.4090909 C30.2272727,13.75 30.9090909,13.5227273 31.5909091,13.1818182 C35,10.9090909 37.9545455,8.06818182 40.3409091,5.34090909 L38.8636364,4.77272727 C36.25,7.5 33.2954545,10 30.2272727,11.9318182 C29.4318182,12.5 29.3181818,13.0681818 29.7727273,13.4090909 L29.7727273,13.4090909 Z"></path>
                    </g>
                    <path d="M111.477273,41.3863636 C111.477273,39 113.636364,35.9318182 114.659091,34.2272727 C115,33.6590909 115.681818,32.6363636 115.909091,32.1818182 C116.022727,31.8409091 115.909091,31.7272727 115.681818,31.6136364 C113.977273,33.8863636 112.159091,36.1590909 110.681818,37.6363636 C110.454545,37.9772727 110,37.9772727 109.659091,37.9772727 C109.090909,37.9772727 108.863636,38.0909091 108.863636,37.4090909 C108.863636,36.9545455 109.204545,36.7272727 109.431818,36.3863636 C109.545455,36.2727273 110.113636,35.5909091 110.113636,35.5909091 C111.25,34.3409091 112.159091,32.0681818 113.522727,30.3636364 C111.477273,29.3409091 110.909091,27.9772727 110.909091,26.9545455 C110.795455,24.7954545 113.863636,21.9545455 116.136364,22.0681818 C117.272727,22.0681818 119.318182,22.8636364 119.318182,24.4545455 C119.431818,25.9318182 118.522727,27.2954545 117.272727,29.1136364 C118.977273,30.25 122.272727,30.25 122.727273,33.0909091 C122.954545,34.5681818 121.477273,36.2727273 120.227273,37.8636364 C119.204545,39.1136364 117.727273,41.1590909 118.409091,41.5 C118.863636,41.7272727 125.113636,38.8863636 128.522727,37.1818182 L129.545455,37.4090909 L129.204545,39.1136364 C125.454545,41.0454545 118.295455,44.7954545 115.454545,44.9090909 C113.295455,45.0227273 111.477273,43.6590909 111.477273,41.3863636 Z M115.227273,27.9772727 C115.568182,27.1818182 116.136364,26.0454545 116.363636,25.4772727 C115.227273,24.7954545 113.295455,26.7272727 115.227273,27.9772727 Z" id="Shape"></path>
                    <g transform="translate(80.681818, 1.272727)" id="Shape">
                        <path d="M25.5909091,27.5317477 C24.4545455,29.1081116 23.3181818,30.5632167 21.9545455,32.1395805 L23.4318182,32.6246155 C24.5681818,31.2907692 25.5909091,29.9569229 26.5,28.7443353 C27.5227273,27.410489 27.1818182,25.5916076 25.5909091,27.5317477 L25.5909091,27.5317477 Z"></path>
                        <path d="M31.3937295,31.5288745 C26.7346386,37.7483867 20.9090909,44.6341463 14.4318182,44.6341463 C12.8409091,44.6341463 11.3636364,44.0243902 10.4545455,43.4146341 C9.88636364,42.9268293 9.09090909,42.3170732 8.63636364,41.4634146 C4.54545455,33.4146341 12.7272727,14.3902439 25.5681818,7.68292683 C27.3863636,6.70731707 31.0227273,5.85365854 32.7272727,8.65853659 C34.2045455,11.097561 33.5227273,15.4878049 31.1363636,20.7317073 C31.3636364,21.3414634 32.2727273,21.2195122 33.1818182,20.2439024 C33.75,19.7560976 34.2045455,18.902439 34.6590909,18.0487805 C36.4772727,13.6585366 37.0454545,9.63414634 35.9090909,5.97560976 C32.7272727,-4.14634146 14.8863636,0.365853659 4.31818182,19.3902439 C-1.25,29.2682927 -1.47727273,43.0487805 6.13636364,47.3170732 C10.2272727,49.5121951 13.9772727,48.902439 15.4545455,48.6585366 C25.1136364,47.3170732 31.11969,36.2862273 33.3924172,32.3837882 L31.3937295,31.5288745 Z"></path>
                    </g>
                </g>
            </g>
        </g>
    </g>
</svg>