<?xml version="1.0" encoding="UTF-8" standalone="no"?>
<svg width="285px" height="50px" viewBox="0 0 285 50" version="1.1" xmlns="http://www.w3.org/2000/svg" xmlns:xlink="http://www.w3.org/1999/xlink">
    <!-- Generator: Sketch 3.6.1 (26313) - http://www.bohemiancoding.com/sketch -->
    <title>craftedpeople</title>
    <desc>Created with Sketch.</desc>
    <defs></defs>
    <g id="Page-1" stroke="none" stroke-width="1" fill="none" fill-rule="evenodd">
        <g id="craftedpeople">
            <g id="Slice-2">
                <g id="Page-1">
                    <path d="M11.7885727,11.4285731 C15.0628584,11.4271445 18.9728584,12.3600016 18.974287,15.2000016 C18.974287,16.5042873 18.0400013,17.7742873 16.6357156,17.7742873 C15.3671441,17.7757159 14.0300013,16.6400016 11.924287,16.6414301 C7.54714417,16.6428587 5.81142989,20.1857159 5.81428703,23.8600016 C5.8157156,27.6357159 7.75428703,30.8757159 11.464287,30.8742873 C14.8385727,30.8728587 15.3728584,29.7700016 16.7757156,29.7700016 C18.914287,29.768573 19.1828584,31.5728587 19.1828584,32.2742873 C19.184287,35.2471444 14.674287,36.2857159 11.7000013,36.2871444 C4.2157156,36.2914301 0.0028584612,30.6800016 1.31833786e-06,23.8628587 C-0.00285582451,16.6471444 4.63857274,11.4314302 11.7885727,11.4285731" id="Fill-1" fill="#333333"></path>
                    <path d="M20.0000014,20.1871443 C19.9985729,18.6842871 21.04143,17.4800014 22.5771443,17.4800014 C23.98143,17.4785729 24.8371443,18.3800014 25.17143,19.1485729 C26.0400014,18.1128586 27.30143,17.1428586 28.7728586,17.1428586 C30.1085729,17.14143 31.4428586,18.2100014 31.4428586,19.8471443 C31.4442871,21.65143 30.0657157,22.0871443 28.16143,22.6557157 C25.8900014,23.3257157 25.1457157,23.9271443 25.1471443,26.6000014 L25.15143,32.9485729 C25.15143,34.45143 24.1171443,35.6542871 22.5800014,35.6557157 C21.0428586,35.6557157 20.0071443,34.4542871 20.0057157,32.9500014 L20.0000014,20.1871443 L20.0000014,20.1871443 Z" id="Fill-3" fill="#333333"></path>
                    <path d="M35.2171433,26.565717 C35.2185719,28.9714313 36.4885719,30.975717 38.7942861,30.9742884 C41.1000004,30.9728599 42.3685719,28.9685741 42.3671433,26.5628599 C42.3657147,24.1571456 41.0957147,22.1528599 38.7900004,22.1542884 C36.4842861,22.1542884 35.2157147,24.1600027 35.2171433,26.565717 L35.2171433,26.565717 L35.2171433,26.565717 Z M47.5157147,32.9414313 C47.5157147,34.445717 46.481429,35.6485741 44.9442861,35.6485741 C43.6742861,35.6500027 42.8885719,34.7814313 42.521429,33.9800027 C41.3528576,35.4171456 40.0242861,35.985717 38.0528576,35.9871456 C33.5085719,35.9885741 30.0028576,31.8142884 30.0000004,26.5685741 C29.9985719,21.3228599 33.5071433,17.1442884 38.0500004,17.1428599 C40.021429,17.1414313 41.3600004,17.7085741 42.5300004,19.1442884 C42.8971433,18.3428599 43.6657147,17.4728599 44.9342861,17.4728599 C46.471429,17.4728599 47.5085719,18.6742884 47.5085719,20.1785741 L47.5157147,32.9414313 L47.5157147,32.9414313 Z" id="Fill-5" fill="#333333"></path>
                    <path d="M50.4471443,22.548575 L49.8842871,22.548575 C48.2128586,22.5500036 47.1428586,21.7557179 47.1428586,20.0842893 C47.14143,18.4142893 48.21143,17.6200036 49.88143,17.618575 L50.4442871,17.618575 L50.4428586,13.4728607 C50.44143,10.2985749 52.6642871,7.85857494 55.87143,7.85714637 C57.4757157,7.8557178 59.3557157,8.28857494 59.3571443,10.2600035 C59.3585729,11.8971464 58.4757157,12.6671464 56.8385729,12.6671464 C56.0357157,12.6671464 55.5871443,13.0357178 55.5871443,14.3714321 L55.5900014,17.6157179 L62.3128586,17.6128607 C63.9828586,17.6114321 65.0528586,18.4057179 65.0542871,20.0757179 C65.0542871,21.7471464 63.9857157,22.5414321 62.3157157,22.5428607 L55.59143,22.5457179 L55.5971443,32.9328607 C55.5971443,34.4357179 54.5628586,35.638575 53.0257157,35.6400036 C51.4885729,35.6400036 50.4528586,34.438575 50.45143,32.9342893 L50.4471443,22.548575 L50.4471443,22.548575 Z" id="Fill-7" fill="#333333"></path>
                    <path d="M63.3942871,22.4271429 L62.7400014,22.4271429 C61.0700014,22.4285714 60.0000014,21.6342857 60.0000014,19.9628571 C59.9985729,18.2928571 61.0671443,17.4985714 62.7385729,17.4971429 L63.39143,17.4971429 L63.3900014,14.1357143 C63.3900014,12.6328571 64.4242871,11.43 65.96143,11.4285714 C67.4985729,11.4285714 68.5342871,12.63 68.5342871,14.1342857 L68.5371443,17.4942857 L69.9885729,17.4942857 C71.6585729,17.4928571 72.7285729,18.2871429 72.7300014,19.9571429 C72.7300014,21.6285714 71.66143,22.4228571 69.99143,22.4242857 L68.5385729,22.4242857 L68.5442871,32.8114286 C68.5442871,34.3142857 67.5100014,35.5171429 65.9728586,35.5185714 C64.4357157,35.5185714 63.4000014,34.3171429 63.3985729,32.8128571 L63.3942871,22.4271429 L63.3942871,22.4271429 Z" id="Fill-9" fill="#333333"></path>
                    <path d="M83.7900016,24.70143 C83.7900016,23.4157157 82.4514301,21.56143 80.4142873,21.5628586 C78.3757159,21.5628586 77.0400016,23.4185729 77.0414301,24.7042871 L83.7900016,24.70143 L83.7900016,24.70143 Z M77.0428587,28.3485729 C77.0428587,29.4200014 77.878573,31.2157157 81.2200016,31.2142871 C83.7928587,31.2128586 85.3628587,29.5557157 86.5657159,29.5542871 C87.7342873,29.5542871 88.7371444,30.4457157 88.738573,31.7828586 C88.7400016,34.32143 84.4971444,35.9885729 80.5542873,35.99143 C74.9414301,35.9942871 71.4314301,31.8171443 71.428573,26.57143 C71.4257159,21.5585729 75.2000016,17.1457157 80.5457159,17.1428586 C85.6900016,17.1400014 89.0000016,21.4885729 89.0028587,26.03143 C89.0042873,27.8700014 88.1357159,28.3428586 86.4642873,28.3442871 L77.0428587,28.3485729 L77.0428587,28.3485729 Z" id="Fill-11" fill="#333333"></path>
                    <path d="M95.2100017,26.844287 C95.2114303,29.2500013 96.4814303,31.254287 98.7871446,31.2528584 C101.092859,31.2514299 102.36143,29.2471441 102.360002,26.8414299 C102.358573,24.4357156 101.088573,22.4314299 98.7828589,22.4328584 C96.4771446,22.4328584 95.2085731,24.4385727 95.2100017,26.844287 L95.2100017,26.844287 L95.2100017,26.844287 Z M107.610002,33.2200013 C107.610002,34.7228584 106.524287,35.9271441 104.987145,35.9271441 C103.718573,35.9285727 102.907145,35.0600013 102.540002,34.2585727 C101.370002,35.6957156 100.030002,36.264287 98.0585731,36.2657156 C93.5142874,36.2671441 90.0028589,32.0928584 90.0000017,26.8471441 C89.9971446,21.6014299 93.5528589,17.4228584 98.0971446,17.4200013 C100.335716,17.4200013 101.385716,18.1214299 102.458573,18.8885727 L102.455716,12.7071441 C102.454287,11.204287 103.490002,10.0014298 105.025716,10.0000013 C106.562859,9.9985727 107.600002,11.2014298 107.600002,12.7057156 L107.610002,33.2200013 L107.610002,33.2200013 Z" id="Fill-13" fill="#333333"></path>
                    <path d="M169.648573,21.3628577 L172.542859,21.3614291 C174.848573,21.3600006 176.117144,19.8314291 176.117144,18.1614291 C176.115716,16.0228577 174.678573,14.9300006 172.540001,14.9300006 L169.645716,14.9314291 L169.648573,21.3628577 L169.648573,21.3628577 Z M164.285716,12.7542863 C164.284287,11.0171434 165.52143,10.0042863 166.924287,10.0028577 L173.572859,10.0000006 C177.750001,9.998572 181.727144,12.6714291 181.730001,18.0514291 C181.73143,22.6957149 178.892859,26.0742863 173.748573,26.0771434 L169.65143,26.078572 L169.652859,31.1614291 C169.654287,33.0657149 168.545716,34.0357149 166.975716,34.0371434 C165.404287,34.0371434 164.295716,33.068572 164.294287,31.1642863 L164.285716,12.7542863 L164.285716,12.7542863 Z" id="Fill-15" fill="#333333"></path>
                    <path d="M193.790001,23.2642871 C193.790001,22.1928586 192.45143,20.1242871 190.414287,20.1257157 C188.375716,20.1257157 187.040001,22.1957157 187.04143,23.2671443 L193.790001,23.2642871 L193.790001,23.2642871 Z M187.042859,26.91143 C187.042859,27.9828586 187.878573,29.7828586 191.220001,29.78143 C193.792859,29.7800014 195.362859,28.1242871 196.565716,28.1242871 C197.734287,28.1228586 198.737144,29.0157157 198.738573,30.3528586 C198.740001,32.89143 194.497144,34.5600014 190.554287,34.56143 C184.94143,34.5642871 181.43143,30.3871443 181.428573,25.14143 C181.425716,20.1300014 185.200001,15.7171443 190.545716,15.7142871 C195.69143,15.71143 199.000001,20.0557157 199.002859,24.5985729 C199.004287,26.4371443 198.135716,26.9057157 196.464287,26.9071443 L187.042859,26.91143 L187.042859,26.91143 Z" id="Fill-17" fill="#333333"></path>
                    <path d="M205.212857,25.1385729 C205.214286,27.5442871 206.484286,29.5485729 208.79,29.5471443 C211.095714,29.5457157 212.364286,27.54143 212.362857,25.1357157 C212.361429,22.7300014 211.091429,20.7257157 208.785714,20.7271443 C206.48,20.7271443 205.211429,22.7328586 205.212857,25.1385729 M217.575714,25.1328586 C217.578571,30.3785729 214.071429,34.5557157 208.792857,34.5585729 C203.512857,34.56143 200.002857,30.3871443 200,25.14143 C199.998571,19.8957157 203.504286,15.7171443 208.782857,15.7142871 C214.062857,15.71143 217.572857,19.8871443 217.575714,25.1328586" id="Fill-19" fill="#333333"></path>
                    <path d="M230.967143,25.1357147 C230.965714,22.7300004 229.695714,20.7257147 227.39,20.7271433 C225.084286,20.7285719 223.815714,22.7328576 223.817143,25.1385719 C223.818571,27.5442861 225.088571,29.5485719 227.394286,29.5471433 C229.7,29.5471433 230.968571,27.541429 230.967143,25.1357147 L230.967143,25.1357147 L230.967143,25.1357147 Z M218.571429,18.7600004 C218.571429,17.2557147 219.654286,16.0528576 221.191429,16.0528576 C222.461429,16.051429 223.271429,16.9200004 223.638571,17.721429 C224.807143,16.2842861 226.147143,15.7157147 228.118571,15.7142861 C232.662857,15.7128576 236.175714,19.8871433 236.177143,25.1328576 C236.18,30.3785719 232.625714,34.5571433 228.081429,34.5585719 C225.842857,34.5600004 224.795714,33.8585719 223.722857,33.091429 L223.725714,38.7371433 C223.727143,40.241429 222.691429,41.4442861 221.155714,41.4457147 C219.618571,41.4457147 218.581429,40.2442861 218.581429,38.7400004 L218.571429,18.7600004 L218.571429,18.7600004 Z" id="Fill-21" fill="#333333"></path>
                    <path d="M237.142857,11.2785727 C237.142857,9.77571556 238.177143,8.57142984 239.714286,8.57142984 C241.251429,8.57000127 242.287143,9.77285841 242.287143,11.2757156 L242.297143,31.7914299 C242.298571,33.294287 241.262857,34.4985727 239.727143,34.4985727 C238.19,34.5000013 237.152857,33.2971441 237.152857,31.794287 L237.142857,11.2785727 L237.142857,11.2785727 Z" id="Fill-23" fill="#333333"></path>
                    <path d="M255.218573,23.2642871 C255.218573,22.1928586 253.880001,20.1242871 251.842859,20.1257157 C249.804287,20.1257157 248.468573,22.1957157 248.470001,23.2671443 L255.218573,23.2642871 L255.218573,23.2642871 Z M248.47143,26.91143 C248.47143,27.9828586 249.307144,29.7828586 252.648573,29.78143 C255.22143,29.7800014 256.79143,28.1242871 257.994287,28.1242871 C259.162859,28.1228586 260.165716,29.0157157 260.167144,30.3528586 C260.168573,32.89143 255.925716,34.5600014 251.982859,34.56143 C246.370001,34.5642871 242.860001,30.3871443 242.857144,25.14143 C242.854287,20.1300014 246.628573,15.7171443 251.974287,15.7142871 C257.118573,15.71143 260.428573,20.0557157 260.43143,24.5985729 C260.432859,26.4371443 259.564287,26.9057157 257.892859,26.9071443 L248.47143,26.91143 L248.47143,26.91143 Z" id="Fill-25" fill="#333333"></path>
                    <path d="M262.397143,32.8571429 C262.92,32.8571429 263.365714,33.3014286 263.365714,33.8257143 C263.365714,34.36 262.921429,34.7942857 262.398571,34.7942857 C261.874286,34.7942857 261.43,34.36 261.428571,33.8257143 C261.428571,33.3028571 261.874286,32.8571429 262.397143,32.8571429" id="Fill-27" fill="#333333"></path>
                    <path d="M267.21143,28.5714286 C267.990001,28.5714286 269.270001,28.7928571 269.27143,29.7171429 C269.27143,30.1842857 268.960001,30.53 268.558573,30.53 C268.114287,30.53 267.99143,30.24 267.312859,30.2414286 C266.432859,30.2414286 266.02143,30.91 266.02143,31.7114286 C266.022859,32.5128571 266.445716,33.18 267.214287,33.18 C267.958573,33.1785714 268.304287,32.8785714 268.560001,32.8785714 C268.96143,32.8785714 269.272859,33.2785714 269.272859,33.6457143 C269.272859,34.5142857 267.904287,34.8485714 267.214287,34.8485714 C265.455716,34.85 264.285716,33.46 264.285716,31.7114286 C264.284287,29.9642857 265.452859,28.5728571 267.21143,28.5714286" id="Fill-29" fill="#333333"></path>
                    <path d="M271.022857,31.7114286 C271.022857,32.5128571 271.445714,33.18 272.214286,33.18 C272.982857,33.1785714 273.404286,32.5114286 273.404286,31.71 C273.404286,30.9085714 272.981429,30.24 272.212857,30.2414286 C271.444286,30.2414286 271.022857,30.91 271.022857,31.7114286 M275.141429,31.71 C275.141429,33.4571429 273.974286,34.8485714 272.215714,34.85 C270.457143,34.85 269.287143,33.46 269.285714,31.7128571 C269.285714,29.9642857 270.452857,28.5728571 272.212857,28.5714286 C273.971429,28.5714286 275.14,29.9614286 275.141429,31.71" id="Fill-31" fill="#333333"></path>
                    <path d="M275.428554,29.5871453 C275.428554,29.0857167 275.784269,28.6857167 276.297126,28.6857167 C276.764269,28.6842881 277.05284,28.9857167 277.164269,29.241431 C277.44284,28.8071453 278.03284,28.5728596 278.655697,28.5728596 C279.157126,28.5728596 279.847126,28.7500024 280.269983,29.2842881 C280.681411,28.9728596 281.205697,28.571431 281.949983,28.571431 C283.15284,28.5700024 284.109983,29.1928596 284.111411,30.6185739 L284.11284,33.8342881 C284.11284,34.3357167 283.757126,34.7371453 283.245697,34.7371453 C282.73284,34.7371453 282.377126,34.3357167 282.375697,33.8357167 L282.374269,31.0871453 C282.374269,30.541431 282.074269,30.0400024 281.505697,30.0400024 C280.938554,30.041431 280.638554,30.541431 280.638554,31.0871453 L280.639983,33.8357167 C280.639983,34.3371453 280.284269,34.7385739 279.77284,34.7385739 C279.259983,34.7385739 278.904269,34.3385739 278.90284,33.8371453 L278.901411,31.0885739 C278.901411,30.5428596 278.601411,30.041431 278.03284,30.041431 C277.465697,30.0428596 277.165697,30.5428596 277.165697,31.0885739 L277.167126,33.8385739 C277.167126,34.3385739 276.811411,34.7400024 276.299983,34.7400024 C275.787126,34.7400024 275.431411,34.3400024 275.429983,33.8385739 L275.428554,29.5871453 L275.428554,29.5871453 Z" id="Fill-33" fill="#333333"></path>
                    <path d="M124.805714,49.0528571 C122.94,49.0528571 121.428571,47.54 121.428571,45.6757143 L121.428571,41.9714286 C121.428571,35.4428571 126.95,30.52 134.271429,30.52 L141.824286,30.52 C145.632857,30.52 148.731429,27.4328571 148.731429,23.6385714 C148.731429,19.8428571 145.632857,16.7557143 141.824286,16.7557143 L132.361429,16.7557143 C130.495714,16.7557143 128.984286,15.2428571 128.984286,13.3785714 C128.984286,11.5128571 130.495714,10 132.361429,10 L141.824286,10 C149.358571,10 155.487143,16.1185714 155.487143,23.6385714 C155.487143,31.1571429 149.358571,37.2757143 141.824286,37.2757143 L134.271429,37.2757143 C131.338571,37.2757143 128.182857,38.7457143 128.182857,41.9714286 L128.182857,45.6757143 C128.182857,47.54 126.671429,49.0528571 124.805714,49.0528571" id="Fill-35" fill="#666666"></path>
                    <path d="M141.544286,27.32 L132.257143,27.32 C124.711429,27.32 118.571429,21.1928571 118.571429,13.66 C118.571429,6.12857143 124.711429,0 132.257143,0 L136.744286,0 C138.61,0 140.121429,1.51285714 140.121429,3.37857143 C140.121429,5.24428571 138.61,6.75571429 136.744286,6.75571429 L132.257143,6.75571429 C128.435714,6.75571429 125.327143,9.85285714 125.327143,13.66 C125.327143,17.4671429 128.435714,20.5642857 132.257143,20.5642857 L141.544286,20.5642857 C143.41,20.5642857 144.921429,22.0771429 144.921429,23.9428571 C144.921429,25.8071429 143.41,27.32 141.544286,27.32" id="Fill-37" fill="#333333"></path>
                </g>
            </g>
        </g>
    </g>
</svg>