<svg xmlns="http://www.w3.org/2000/svg" width="135" height="35" viewBox="0 0 135 35">
  <path fill="#282B2D" d="M21.0308287,12.6190476 L21.0308287,20.0043638 L21.0308287,20.0043638 C21.0308287,21.930968 22.61122,23.5364715 24.5076895,23.5364715 C26.3409435,23.5364715 27.8788398,22.0362177 27.9793293,20.1959063 L27.9845504,20.0043638 L27.9845504,20.0043638 L27.9845504,12.6190476 L27.9845504,12.6190476 L31.882849,12.6190476 L31.882849,20.0043638 C31.882849,26.5334114 32.1989272,33.1694926 25.9827214,34.7749961 C23.1380171,35.4171975 20.0825939,34.6679625 17.7646866,32.7413583 L19.7665156,30.0655191 C20.9254692,30.8147541 22.1897823,31.3499219 23.4540953,31.4569555 C27.6684721,31.5639891 27.9845504,27.0685792 27.9845504,25.9982436 C27.0363156,26.8545121 25.7720026,27.3896799 24.5076895,27.3896799 C20.5040316,27.3896799 17.2378895,24.1786729 17.1325301,20.1113973 L17.1325301,12.6190476 L17.1325301,12.6190476 L21.0308287,12.6190476 Z M54.9668675,12.6190476 C59.0766351,12.6190476 62.3433735,15.8877551 62.3433735,20 C62.3433735,24.03 59.205998,27.2498667 55.2124225,27.3770493 L54.9668675,27.3809524 C50.9624785,27.3809524 47.5903614,24.1122449 47.5903614,20 C47.5903614,15.8877551 50.8570998,12.6190476 54.9668675,12.6190476 Z M34.4198444,14.9825754 C36.2067932,11.6350534 40.4113785,12.1749763 40.4113785,12.1749763 C42.1983273,12.1749763 43.9852761,12.8228838 45.4568809,13.9027296 L45.4568809,13.9027296 L43.5648175,16.4943595 C42.0932127,15.7384674 40.3062639,15.4145137 38.6244298,15.7384674 C37.6783981,15.9544366 37.5732834,16.6023441 38.0988566,17.0342824 C39.0448883,17.6821899 41.988098,18.1141282 43.9852761,19.193974 C44.1955053,19.3019585 44.5108492,19.4099431 44.7210785,19.6259123 C46.4029126,20.9217272 46.6131419,23.4053726 45.3517663,25.1331258 C43.144359,28.0487095 39.1500029,27.2928174 39.1500029,27.2928174 C37.2579395,27.0768483 35.3658761,26.2129716 33.7891566,25.0251413 L33.7891566,25.0251413 L35.68122,22.4335114 C37.2579395,23.5133571 39.2551176,24.05328 41.2522956,23.8373109 C42.4085566,23.6213417 42.8290151,22.7574651 41.8829834,22.2175422 C40.9369517,21.6776193 37.6783981,21.245681 35.8914493,20.0578506 C34.2096152,18.9780048 33.5789274,16.8183132 34.4198444,14.9825754 Z M15.2289157,5 L15.1209092,12.3168498 L15.1209092,12.3168498 L15.1209092,19.8489011 C15.1209092,24.0453297 11.7727079,27.3809524 7.56045458,27.3809524 C3.34820132,27.3809524 0,24.0453297 0,19.8489011 C0,15.6524725 3.34820132,12.3168498 7.56045458,12.3168498 L7.56045458,12.3168498 L11.2326754,12.3168498 L11.2326754,5 L15.2289157,5 Z M71.623494,12.1428571 C75.6526779,12.1428571 78.8715685,15.3534348 78.9962504,19.4392554 L79,19.6854362 L79,19.6854362 L79,26.9047619 L79,26.9047619 L75.2063683,26.9047619 C75.1009897,26.9047619 75.1009897,20.6551964 75.1009897,19.6854362 C75.1009897,17.7459159 73.5203098,16.1296489 71.623494,16.1296489 C69.7899053,16.1296489 68.2517282,17.6399606 68.1512204,19.4926096 L68.1459983,19.6854362 L68.1459983,19.6854362 L68.1459983,26.9047619 L68.1459983,26.9047619 L64.246988,26.9047619 L64.246988,19.6854362 L64.246988,19.6854362 C64.246988,15.4831422 67.5137263,12.1428571 71.623494,12.1428571 Z M11.1246689,16.2980769 L7.56045458,16.2980769 C5.61633769,16.2980769 3.99624028,17.9120879 3.99624028,19.8489011 C3.99624028,21.893315 5.61633769,23.507326 7.56045458,23.507326 C9.61257797,23.507326 11.2326754,21.893315 11.2326754,19.9565018 L11.2326754,19.9565018 L11.1246689,16.2980769 Z M54.9668675,16.3095238 C52.964673,16.3095238 51.3839931,17.8911565 51.3839931,19.8945578 C51.4859725,21.8333333 52.9696075,23.4758613 54.7843305,23.4842497 L54.9668675,23.4795918 L54.9668675,23.4795918 C56.969062,23.4795918 58.5497418,21.8979592 58.5497418,19.8945578 C58.5497418,17.8911565 56.969062,16.3095238 54.9668675,16.3095238 Z"/>
</svg>
