<svg xmlns="http://www.w3.org/2000/svg" width="135" height="35" viewBox="0 0 135 35">
  <path fill="#444" fill-rule="evenodd" d="M42.1270627,30 L41.6333674,30 C41.1372788,29.979802 40.5194953,29.8934365 39.9261397,29.6503345 C39.9189115,29.6476621 39.9116833,29.6445721 39.9044551,29.6416492 C39.8622626,29.6241952 39.8203222,29.6066576 39.7784659,29.5871993 C39.7674555,29.582272 39.7563611,29.578514 39.7455188,29.5730857 L36.1004888,27.7749012 C36.004589,27.7374043 35.9120513,27.6915561 35.8231276,27.6380248 L34.7340228,27.1008744 C33.4948067,26.4870598 31.3645889,26.5537025 30.1737009,27.2410078 L26.1926437,29.5156293 C26.1299432,29.5513725 26.0651416,29.5837753 25.9984908,29.6120024 C25.4607916,29.8405705 24.8362924,29.9733247 24.1793043,30 L23.6807763,30 C23.0696139,29.9754982 22.2749118,29.8529474 21.5688649,29.4564192 L16.3658216,26.5972124 C14.5769262,28.1941324 12.2620531,29.0881304 9.8150552,29.0881304 C4.40306647,29.0881304 0,24.6719224 0,19.2437971 C0,13.9169722 4.40306647,9.5834412 9.8150552,9.5834412 C15.227212,9.5834412 19.6304466,13.9169722 19.6304466,19.2437971 C19.6304466,20.2563824 18.8041625,21.0773072 17.7850703,21.0773072 C17.7150576,21.0773072 17.6463057,21.0726306 17.5784783,21.0651145 L7.66458163,21.0651145 C6.64540542,21.0651145 5.81928939,20.2441061 5.81928939,19.2315208 C5.81928939,18.2189356 6.64540542,17.3979272 7.66458163,17.3979272 L15.6535077,17.3979272 C14.8754676,14.967639 12.5883307,13.2505449 9.8150552,13.2505449 C6.38090373,13.2505449 3.69066852,15.8830996 3.69066852,19.2437971 C3.69066852,22.6497582 6.43814099,25.4208597 9.8150552,25.4208597 C11.6728707,25.4208597 13.4106645,24.5955922 14.5826415,23.1568442 C14.586928,23.15175 14.5917188,23.1472403 14.5960893,23.1419791 C14.621472,23.1114136 14.6482836,23.0826019 14.6754314,23.0539572 C14.6908123,23.0377559 14.705773,23.0208864 14.7215742,23.0053531 C14.7482177,22.9793808 14.7760379,22.9550788 14.8040261,22.9308603 C14.8226009,22.9146589 14.8409236,22.8977894 14.8601707,22.8824232 C14.8855535,22.8622132 14.9120289,22.8435065 14.9382521,22.8247163 C14.9617017,22.8079303 14.9848152,22.7907268 15.008685,22.77511 C15.0322187,22.7599108 15.0563407,22.7464653 15.0802946,22.7325188 C15.108451,22.7159834 15.1363552,22.699281 15.1650999,22.6843323 C15.1873729,22.6727241 15.2104863,22.6631202 15.2330954,22.6522636 C15.2641935,22.6377325 15.2952075,22.6229508 15.326978,22.6103405 C15.3505117,22.6009036 15.3746337,22.5932205 15.3985035,22.5847857 C15.4300219,22.5736786 15.461288,22.5621539 15.4933947,22.5528006 C15.5205425,22.5446164 15.5481945,22.5387705 15.5757625,22.5319225 C15.6049275,22.524824 15.6338403,22.5171409 15.6631733,22.5113785 C15.69528,22.5050316 15.7276388,22.50119 15.7600816,22.4965969 C15.7854644,22.4930894 15.810679,22.4886632 15.8363139,22.4861579 C15.8720347,22.4825668 15.9080076,22.4813977 15.9439805,22.4800615 C15.9667577,22.4791428 15.9893669,22.4773891 16.0120601,22.4771385 C16.0487054,22.4771385 16.0855187,22.4793934 16.1222481,22.4813977 C16.1450253,22.4827339 16.1675504,22.4830679 16.1902436,22.4852392 C16.2247036,22.4884127 16.2590796,22.4940915 16.2934556,22.4991858 C16.3187543,22.5028603 16.344137,22.5059502 16.3693517,22.510794 C16.3994412,22.5167233 16.4292785,22.5245735 16.4592839,22.5319225 C16.4888691,22.5391046 16.5184543,22.5459526 16.5478714,22.5547214 C16.5731701,22.5624045 16.5981326,22.5716743 16.6233473,22.5802761 C16.6567147,22.5919678 16.6899139,22.6033255 16.722777,22.6168544 C16.7449659,22.6259573 16.7667346,22.6367303 16.7887554,22.6469188 C16.8231314,22.6623686 16.8573392,22.6784864 16.8908747,22.6964415 C16.8972624,22.6998655 16.9038182,22.7024544 16.9101219,22.7057949 L23.3701996,26.255731 C23.4213854,26.2815363 23.6089824,26.3378235 23.9315618,26.3378235 C24.1988371,26.3378235 24.3799624,26.2963179 24.4770388,26.2657525 L25.117659,25.8997186 C23.5215716,24.134772 22.6150208,21.8401911 22.6150208,19.379922 C22.6150208,13.9862038 27.031367,9.59813935 32.4597453,9.59813935 C37.8881235,9.59813935 42.3043016,13.9862038 42.3043016,19.379922 C42.3043016,21.7019784 41.4874309,23.8942569 40.040194,25.6241283 L41.35497,26.2727675 C41.4206962,26.2952323 41.5988797,26.3378235 41.8793507,26.3378235 C42.1464579,26.3378235 42.3277512,26.2963179 42.4249117,26.2657525 L45.1143904,24.7289612 L45.1143904,1.8335101 C45.1143904,0.820924814 45.9406746,0 46.9597667,0 C47.9788589,0 48.805059,0.820924814 48.805059,1.8335101 L48.805059,23.1768872 C50.2970939,22.9059736 51.9140255,22.9810511 53.3041092,23.4145629 L60.0954234,10.630016 C60.0960118,10.6287633 60.0968522,10.6279281 60.0973565,10.626592 C60.1545097,10.5193623 60.2225053,10.4173104 60.3008388,10.3222735 C60.3163878,10.3033998 60.3335338,10.2866138 60.3496711,10.2685752 C60.373457,10.2420183 60.3964863,10.2149604 60.4218691,10.1898232 C60.4575899,10.15408 60.4954959,10.1209256 60.5337381,10.0887735 C60.5413025,10.08251 60.5477743,10.075495 60.5554227,10.0692316 C60.6515746,9.99081366 60.7550387,9.92283474 60.8636298,9.86579591 C60.8645543,9.86521133 60.8653108,9.86471025 60.8660672,9.86437621 C60.8749764,9.8595325 60.8843899,9.85627552 60.8936352,9.85168235 C60.9375087,9.8293846 60.9821386,9.8081725 61.0278612,9.7896328 C61.0522354,9.77969485 61.0769457,9.77201173 61.101404,9.76324295 C61.1330063,9.7519688 61.1641884,9.74011007 61.1962951,9.73050617 C61.2264686,9.72148685 61.2568943,9.71472236 61.287404,9.70712275 C61.3150561,9.70035827 61.3421198,9.69300919 61.3701081,9.68766441 C61.40087,9.68148451 61.431884,9.67747593 61.462814,9.67296627 C61.4914746,9.66879066 61.5199672,9.66419749 61.5486278,9.66144159 C61.5769523,9.65885271 61.6051086,9.65776705 61.633349,9.65626383 C61.6657919,9.6546771 61.6980667,9.65267281 61.7306776,9.65292334 C61.7544634,9.65292334 61.7780811,9.65451008 61.801867,9.65542871 C61.8385963,9.65684842 61.8754097,9.65835164 61.9122231,9.66202617 C61.9321427,9.66394695 61.9519782,9.66737095 61.9719818,9.67012686 C62.0114848,9.6752211 62.0507356,9.68081642 62.0899864,9.68849954 C62.1094017,9.69250812 62.1281446,9.69760237 62.1473077,9.70211202 C62.1858861,9.71113134 62.2242124,9.72006714 62.2626227,9.73167534 C62.2863245,9.73877387 62.3095219,9.74779319 62.3329716,9.75597738 C62.3651623,9.76708451 62.3976892,9.77752353 62.4295437,9.79071846 C62.4684583,9.80650226 62.5062803,9.82512548 62.5441863,9.8437487 C62.5588948,9.85093074 62.5741917,9.85669308 62.5889003,9.86437621 C62.590161,9.86487728 62.5910015,9.86579591 62.5923463,9.8663805 C62.7006012,9.92333581 62.803477,9.99089717 62.8991245,10.0690646 C62.9099668,10.0780004 62.9196325,10.0878548 62.9303907,10.0969577 C62.965355,10.126855 63.0000672,10.1569194 63.0328462,10.1895727 C63.0586492,10.2152109 63.0820989,10.2426864 63.1062209,10.2697444 C63.121938,10.2875325 63.1388318,10.3039009 63.1539606,10.322357 C63.2323782,10.4173104 63.3001216,10.5193623 63.3571907,10.6265084 C63.3579472,10.6276776 63.3587036,10.6287633 63.35946,10.630016 L71.7862806,26.4932397 C72.261997,27.3889914 71.9168925,28.4981168 71.0156368,28.9707123 C70.7410492,29.1146873 70.4462059,29.1831673 70.1558172,29.1831673 C69.4932602,29.1831673 68.8529761,28.8275724 68.522328,28.2050725 L61.7274837,15.4139282 L56.6532033,24.9657182 L59.3346133,26.2883843 C60.2472997,26.738849 60.6200563,27.8391221 60.1666968,28.7462315 C59.7133374,29.6533409 58.6065823,30.0231329 57.6933076,29.5730857 L52.6817276,27.1008744 C51.4426796,26.4870598 49.312798,26.5532014 48.1214057,27.2410078 L44.1403485,29.5156293 C44.077648,29.5513725 44.0127623,29.5837753 43.9462797,29.6120024 C43.4083563,29.8405705 42.7839651,29.9733247 42.1270627,30 Z M28.1859468,24 C30.4783828,22.7750591 33.9312542,22.686178 36.2763633,23.8122522 L36.4843149,23.9116141 C37.7943762,22.7746464 38.5548387,21.1596852 38.5548387,19.4271237 C38.5548387,16.095281 35.7416671,13.3846154 32.2839138,13.3846154 C28.8260748,13.3846154 26.0129032,16.095281 26.0129032,19.4271237 C26.0129032,21.2148954 26.8113075,22.8615468 28.1859468,24 Z"/>
</svg>
