<svg xmlns="http://www.w3.org/2000/svg" xmlns:xlink="http://www.w3.org/1999/xlink" width="155" height="65" viewBox="0 0 155 65">
  <defs>
    <path id="eola-a" d="M90.6902044,65 L89.6273883,65 C88.5594197,64.9562377 87.229469,64.7691125 85.9521063,64.2423913 C85.9365456,64.2366012 85.9209849,64.2299063 85.9054242,64.2235733 C85.8145931,64.1857562 85.7243048,64.1477581 85.6341975,64.1055984 C85.6104945,64.0949227 85.5866106,64.0867803 85.5632696,64.075019 L77.71633,60.1789527 C77.5098792,60.0977093 77.3106659,59.9983715 77.119233,59.882387 L74.7746323,58.7185611 C72.1068755,57.3886295 67.52099,57.5330221 64.9572728,59.0221836 L56.3869412,63.9505302 C56.2519611,64.0279738 56.1124575,64.0981797 55.9689733,64.1593385 C54.8114264,64.6545695 53.4670184,64.9422036 52.052669,65 L50.9794489,65 C49.6637522,64.9469129 47.952935,64.6813861 46.4329731,63.8222415 L35.2319771,57.6272935 C31.3808827,61.0872869 26.3974753,63.0242826 21.1296327,63.0242826 C9.47882366,63.0242826 0,53.4558318 0,41.6948938 C0,30.1534397 9.47882366,20.7641226 21.1296327,20.7641226 C32.7808036,20.7641226 42.2599892,30.1534397 42.2599892,41.6948938 C42.2599892,43.8888286 40.4811831,45.667499 38.2873041,45.667499 C38.1365824,45.667499 37.9885747,45.6573662 37.8425574,45.6410813 L16.500141,45.6410813 C14.3060811,45.6410813 12.5276369,43.8622299 12.5276369,41.6682952 C12.5276369,39.4743604 14.3060811,37.695509 16.500141,37.695509 L33.6985236,37.695509 C32.0235761,32.4298846 27.0998785,28.709514 21.1296327,28.709514 C13.7366677,28.709514 7.94518918,34.4133825 7.94518918,41.6948938 C7.94518918,49.0744762 13.8598868,55.0785293 21.1296327,55.0785293 C25.1290967,55.0785293 28.8701805,53.2904498 31.3931865,50.1731625 C31.4024144,50.162125 31.4127279,50.1523541 31.4221367,50.1409547 C31.4767801,50.0747295 31.5344995,50.0123041 31.5929426,49.9502407 C31.6260543,49.9151377 31.6582614,49.8785872 31.6922778,49.8449318 C31.7496353,49.7886585 31.8095259,49.7360041 31.8697784,49.6835306 C31.9097658,49.6484276 31.9492104,49.6118771 31.9906453,49.5785836 C32.0452888,49.5347954 32.1022844,49.4942641 32.1587372,49.4535519 C32.209219,49.4171824 32.2589771,49.3799081 32.3103636,49.3460717 C32.3610264,49.3131401 32.4129557,49.2840083 32.4645232,49.2537908 C32.5251376,49.217964 32.5852092,49.1817754 32.6470901,49.1493866 C32.6950388,49.1242355 32.7447969,49.1034271 32.7934693,49.0799045 C32.8604166,49.0484204 32.9271829,49.0163934 32.9955776,48.989071 C33.0462404,48.9686245 33.0981697,48.9519777 33.1495562,48.9337025 C33.2174082,48.909637 33.2847173,48.8846669 33.3538358,48.8644013 C33.4122789,48.8466688 33.4718077,48.8340028 33.5311555,48.8191655 C33.5939411,48.8037853 33.656184,48.7871386 33.7193315,48.7746535 C33.78845,48.7609018 33.8581113,48.7525784 33.9279535,48.7426266 C33.982597,48.735027 34.0368785,48.725437 34.0920647,48.7200087 C34.1689636,48.7122281 34.2464053,48.7096949 34.3238469,48.7067998 C34.3728812,48.7048095 34.4215537,48.7010097 34.4704071,48.7004668 C34.5492963,48.7004668 34.6285473,48.7053523 34.7076174,48.7096949 C34.7566517,48.71259 34.8051433,48.7133138 34.8539966,48.7180183 C34.9281814,48.7248941 35.0021852,48.7371983 35.0761891,48.7482358 C35.1306516,48.7561973 35.185295,48.7628922 35.2395765,48.7733869 C35.3043525,48.7862339 35.3685857,48.8032425 35.4331807,48.8191655 C35.496871,48.8347266 35.5605614,48.8495639 35.6238898,48.868563 C35.6783523,48.8852097 35.732091,48.9052944 35.7863726,48.9239315 C35.8582052,48.9492636 35.9296758,48.9738718 36.0004228,49.0031846 C36.0481905,49.0229074 36.0950536,49.0462491 36.1424595,49.0683241 C36.2164633,49.1017986 36.2901053,49.1367206 36.3622997,49.1756233 C36.3760511,49.183042 36.3901643,49.1886513 36.4037346,49.195889 L50.3108464,56.8874172 C50.421038,56.9433286 50.8248926,57.0652843 51.5193345,57.0652843 C52.0947188,57.0652843 52.4846412,56.9753556 52.6936251,56.9091304 L54.0727382,56.1160569 C50.6367166,52.2920059 48.6851143,47.320414 48.6851143,41.989831 C48.6851143,30.3034415 58.1925262,20.7959686 69.8786183,20.7959686 C81.5647103,20.7959686 91.0717604,30.3034415 91.0717604,41.989831 C91.0717604,47.0209532 89.3132194,51.7708899 86.1976399,55.5189447 L89.0280603,56.9243296 C89.1695542,56.9730033 89.5531438,57.0652843 90.1569355,57.0652843 C90.7319579,57.0652843 91.1222422,56.9753556 91.3314071,56.9091304 L97.1212572,53.5794159 L97.1212572,3.97260522 C97.1212572,1.77867043 98.9000633,0 101.093942,0 C103.287821,0 105.066446,1.77867043 105.066446,3.97260522 L105.066446,50.2165889 C108.278466,49.6296095 111.75936,49.7922773 114.751902,50.7315529 L129.372092,23.0317012 C129.373359,23.0289871 129.375168,23.0271776 129.376254,23.0242826 C129.499292,22.7919517 129.645671,22.5708392 129.814306,22.364926 C129.847779,22.3240329 129.884691,22.2876633 129.919431,22.2485796 C129.970637,22.1910397 130.020214,22.1324141 130.074857,22.0779503 C130.151756,22.0005066 130.233359,21.9286722 130.315686,21.8590092 C130.331971,21.8454384 130.345903,21.8302392 130.362368,21.8166685 C130.569362,21.6467629 130.792097,21.4994753 131.02587,21.3758911 C131.02786,21.3746245 131.029488,21.3735389 131.031117,21.3728151 C131.050296,21.3623204 131.070561,21.3552636 131.090465,21.3453118 C131.184915,21.297 131.280993,21.2510404 131.379423,21.2108711 C131.431896,21.1893388 131.485092,21.1726921 131.537745,21.153693 C131.605777,21.1292657 131.672906,21.1035718 131.742024,21.0827634 C131.806981,21.0632215 131.872481,21.0485651 131.938161,21.0320993 C131.99769,21.0174429 132.055952,21.0015199 132.116205,20.9899396 C132.182428,20.9765498 132.249195,20.9678645 132.31578,20.9580936 C132.37748,20.9490464 132.438818,20.9390946 132.500518,20.9331234 C132.561494,20.9275142 132.622109,20.9251619 132.682904,20.921905 C132.752746,20.9184671 132.822227,20.9141244 132.892431,20.9146672 C132.943637,20.9146672 132.99448,20.9181052 133.045686,20.9200955 C133.124756,20.9231716 133.204007,20.9264285 133.283258,20.93439 C133.32614,20.9385517 133.368842,20.9459704 133.411905,20.9519415 C133.496946,20.962979 133.581445,20.9751022 133.665943,20.991749 C133.70774,21.0004343 133.748089,21.0114718 133.789343,21.0212427 C133.872394,21.0407846 133.954902,21.0601455 134.037591,21.0852966 C134.088615,21.1006767 134.138554,21.1202186 134.189036,21.137951 C134.258335,21.1620164 134.328359,21.1846343 134.396934,21.2132233 C134.480709,21.2474216 134.562131,21.2877719 134.643734,21.3281222 C134.675399,21.3436833 134.708329,21.3561683 134.739994,21.3728151 C134.742708,21.3739008 134.744517,21.3758911 134.747412,21.3771577 C134.980461,21.5005609 135.20193,21.6469439 135.407838,21.8163066 C135.431179,21.8356675 135.451987,21.8570188 135.475147,21.8767416 C135.550417,21.9415192 135.625145,22.0066587 135.695711,22.0774074 C135.751259,22.132957 135.801741,22.1924872 135.85367,22.2511128 C135.887505,22.2896537 135.923874,22.3251185 135.956443,22.3651069 C136.125259,22.5708392 136.271095,22.7919517 136.393952,23.0241016 C136.395581,23.0266348 136.397209,23.0289871 136.398838,23.0317012 L154.53991,57.4020193 C155.564021,59.3428148 154.821088,61.7459197 152.880885,62.7698766 C152.289759,63.0818225 151.655027,63.2301958 151.029884,63.2301958 C149.603546,63.2301958 148.225157,62.4597402 147.513345,61.1109905 L132.885555,33.3968444 L121.961757,54.0923895 L127.734237,56.958166 C129.699048,57.9341729 130.50151,60.3180979 129.525528,62.2835016 C128.549546,64.2489053 126.166948,65.0501212 124.200871,64.075019 L113.412052,58.7185611 C110.744657,57.3886295 106.159496,57.5319365 103.594693,59.0221836 L95.0243613,63.9505302 C94.8893812,64.0279738 94.7496967,64.0981797 94.6065743,64.1593385 C93.4485449,64.6545695 92.1043693,64.9422036 90.6902044,65 Z M60.67808,52 C65.6131852,49.3459613 73.04645,49.1533857 78.0949487,51.5932131 L78.5426224,51.8084972 C81.3628933,49.3450672 83,45.8459846 83,42.0921014 C83,34.8731089 76.9438666,29 69.5000922,29 C62.0561334,29 56,34.8731089 56,42.0921014 C56,45.9656068 57.7187869,49.5333515 60.67808,52 Z"/>
  </defs>
  <use fill="#444" fill-rule="evenodd" xlink:href="#eola-a"/>
</svg>
