<svg xmlns="http://www.w3.org/2000/svg" width="135" height="35" viewBox="0 0 135 35">
  <g fill="#333" transform="translate(0 10)">
    <polygon points="13.559 15.549 8.478 12.199 .662 15.549 5.296 10.133 .159 6.783 8.143 6.783 13.559 .418 13.559 6.783 21.264 6.783 13.559 10.077"/>
    <path d="M23.1620302 3.54496054C23.4411908 3.54496054 23.6645193 3.32163205 23.6645193 3.04247144L23.6645193.920850802C23.6645193.641690192 23.4411908.418361701 23.1620302.418361701L14.843044.418361701 14.843044 3.54496054 23.1620302 3.54496054 23.1620302 3.54496054zM23.1620302 15.5488668C23.4411908 15.5488668 23.6645193 15.3255383 23.6645193 15.0463777L23.6645193 12.924757C23.6645193 12.6455964 23.4411908 12.4222679 23.1620302 12.4222679L14.843044 12.4222679 14.843044 15.5488668 23.1620302 15.5488668 23.1620302 15.5488668zM134.379617.418361701L124.050675.418361701C123.771514.418361701 123.548186.641690192 123.548186.920850802L123.548186 3.04247144C123.548186 3.32163205 123.771514 3.54496054 124.050675 3.54496054L127.679763 3.54496054 127.679763 15.1022098C127.679763 15.3813704 127.903091 15.6046989 128.182252 15.6046989L130.303872 15.6046989C130.583033 15.6046989 130.806362 15.3813704 130.806362 15.1022098L130.806362 3.54496054 134.435449 3.54496054C134.71461 3.54496054 134.937939 3.32163205 134.937939 3.04247144L134.937939.920850802C134.882106.641690192 134.658778.418361701 134.379617.418361701L134.379617.418361701zM93.1196791 3.82412115C92.8963506 3.15413568 92.5055256 2.53998234 92.0030365 2.03749324 91.5005474 1.53500414 90.9422262 1.14417929 90.272241.86501868 89.6022554.58585807 88.8206057.418361701 87.983124.418361701L82.3440794.418361701C82.0649188.418361701 81.8415903.641690192 81.8415903.920850802L81.8415903 15.1022098C81.8415903 15.3813704 82.0649188 15.6046989 82.3440794 15.6046989L84.4657003 15.6046989C84.7448608 15.6046989 84.9681894 15.3813704 84.9681894 15.1022098L84.9681894 11.4731219 87.983124 11.4731219C88.8206057 11.4731219 89.6022554 11.3056255 90.272241 11.0264649 90.9422262 10.7473043 91.5005474 10.3564794 92.0030365 9.85399033 92.5055256 9.35150123 92.8405185 8.79318001 93.1196791 8.12319456 93.3430077 7.45320908 93.5105038 6.67155936 93.5105038 5.9457418 93.4546718 5.16409208 93.3430077 4.4941066 93.1196791 3.82412115L93.1196791 3.82412115zM90.1605766 6.89488786C90.0489125 7.17404847 89.881416 7.45320908 89.7139195 7.67653757 89.4905913 7.89986607 89.2672628 8.0115303 89.0439342 8.12319456 88.7647737 8.23485879 88.3181166 8.29069091 87.3689705 8.29069091L84.9681894 8.29069091 84.9681894 3.54496054 88.0947881 3.54496054C88.4297807 3.54496054 88.7647737 3.60079266 88.9881022 3.71245689 89.2672628 3.82412115 89.4905913 3.9916175 89.7139195 4.21494599 89.881416 4.43827449 90.0489125 4.66160298 90.1605766 4.94076359 90.272241 5.2199242 90.328073 5.55491693 90.328073 5.9457418 90.328073 6.28073452 90.272241 6.61572725 90.1605766 6.89488786L90.1605766 6.89488786zM71.9034727 4.77326721C71.9034727 5.10825997 71.9593047 5.27575632 72.0709691 5.44325269 72.1826332 5.61074904 72.4059618 5.77824542 72.6292903 5.9457418 72.9084509 6.05740603 73.1876115 6.16907026 73.5784365 6.28073452 73.9692611 6.39239875 74.3600861 6.44823087 74.7509108 6.50406302 75.4767284 6.61572725 76.2025461 6.78322363 76.8725317 6.95071997 77.5983493 7.11821635 78.2125025 7.39737696 78.7708236 7.73236969 79.3291448 8.06736241 79.7758019 8.56985152 80.0549624 9.12817274 80.3899554 9.74232607 80.5016195 10.4681437 80.5016195 11.3614576 80.4457874 12.1989394 80.2224589 12.9805892 79.8316339 13.5389104 79.4408092 14.0972316 78.9383201 14.5997207 78.3241666 14.9347134 77.7100134 15.2697062 77.1516922 15.5488668 76.4258746 15.660531 75.700057 15.7721953 74.9184073 15.8280274 74.2484217 15.8280274 72.5176262 15.7721953 70.0051807 14.7672171 68.7210419 13.0364213 68.6093775 12.8689249 68.4977134 12.6455964 68.7768739 12.3664358 69.0560345 12.0872752 70.3401733 10.7473043 70.3401733 10.7473043 70.6193339 10.4681437 70.8426624 10.6914722 70.9543265 10.8031364 71.6801441 11.9197788 73.1876115 12.7014285 74.3600861 12.7572607 74.9742393 12.7572607 75.0300714 12.7572607 75.4208964 12.7014285 75.755889 12.6455964 76.090882 12.5897643 76.3700425 12.4222679 76.6492031 12.3106037 76.8725317 12.1431073 77.0400278 11.9197788 77.2075243 11.6964504 77.3191887 11.4172898 77.3191887 11.082297 77.3191887 10.7473043 77.2633563 10.4681437 77.0958602 10.3006473 76.9283637 10.0773188 76.7050352 9.90982245 76.4258746 9.74232607 76.146714 9.57482972 75.755889 9.46316546 75.3650643 9.40733335 74.9742393 9.35150123 74.5275823 9.239837 74.1367576 9.18400485 73.466772 9.07234062 72.7967868 8.96067639 72.1826332 8.79318001 71.512648 8.62568363 70.9543265 8.34652302 70.4518374 8.0115303 69.9493483 7.67653757 69.5026916 7.22988058 69.223531 6.67155936 68.888538 6.11323815 68.7768739 5.49908481 68.7768739 4.66160298 68.832706 3.87995327 69.0002025 3.15413568 69.3910271 2.53998234 69.7260201 1.98166112 70.2285092 1.47917202 70.7868304 1.08834717 71.3451515.753354436 71.9593047.474193823 72.6851223.306697459 74.0250935-.0282952737 75.4208964.0275368484 76.7608672.474193823 78.2125025.920850802 79.3849772 2.03749324 79.9432983 2.81914295 80.0549624 2.98663932 80.1666269 3.2099678 79.9432983 3.43329628L78.435831 4.94076359C78.1566704 5.2199242 77.8775099 5.16409208 77.7100134 4.88493148 76.9283637 3.71245689 75.9233855 3.2099678 74.7509108 3.15413568 73.41094 3.15413568 71.9593047 3.43329628 71.9034727 4.77326721L71.9034727 4.77326721zM65.4269467 2.26082173C64.7011291 1.59083627 63.9194794 1.08834717 62.9703332.753354436 62.0211871.418361701 61.0720409.250865337 60.0112306.250865337 59.0062524.250865337 58.0012742.418361701 57.1079604.753354436 56.1588143 1.08834717 55.3213326 1.59083627 54.651347 2.26082173 53.9255294 2.93080719 53.3672082 3.76828904 52.9763832 4.7174351 52.5855585 5.66658119 52.36223 6.78322363 52.36223 8.0115303 52.36223 9.239837 52.5855585 10.3564794 52.9763832 11.3056255 53.3672082 12.2547716 53.9255294 13.0922534 54.651347 13.7622389 55.3771646 14.4322243 56.1588143 14.9347134 57.1079604 15.2697062 58.0571063 15.6046989 59.0062524 15.7721953 60.0670627 15.7721953 61.1837053 15.7721953 62.2445156 15.6046989 63.1936617 15.213874 64.1428079 14.8230492 64.9802896 14.3205601 65.6502749 13.5947425 66.3202605 12.924757 66.8785816 12.0872752 67.2694066 11.1381291 67.6602313 10.1889831 67.8277278 9.12817274 67.8277278 7.95569818 67.8277278 6.72739148 67.6043993 5.61074904 67.2135746 4.66160298 66.7110855 3.76828904 66.0969319 2.93080719 65.4269467 2.26082173L65.4269467 2.26082173zM64.19864 10.1331509C63.9753114 10.6914722 63.6403188 11.1939613 63.2494938 11.5847861 62.8586688 11.975611 62.3561797 12.2547716 61.7978585 12.4781001 61.2395374 12.7014285 60.6812162 12.7572607 60.0112306 12.7572607 59.3970774 12.7572607 58.7829239 12.6455964 58.2246028 12.4781001 57.6662816 12.2547716 57.2196246 11.975611 56.8287999 11.5847861 56.4379749 11.1939613 56.1029822 10.6914722 55.8796537 10.1331509 55.6563252 9.51899761 55.4888287 8.84901213 55.4888287 8.06736241 55.4888287 7.2857127 55.6004931 6.55989513 55.8796537 6.00157391 56.1029822 5.38742058 56.4379749 4.94076359 56.8287999 4.54993872 57.2196246 4.15911388 57.7221137 3.87995327 58.2804348 3.65662477 58.8387563 3.43329628 59.4529095 3.32163205 60.0670627 3.32163205 60.6812162 3.32163205 61.2953694 3.43329628 61.8536906 3.65662477 62.4120121 3.87995327 62.8586688 4.15911388 63.2494938 4.54993872 63.6403188 4.94076359 63.9753114 5.44325269 64.19864 6.05740603 64.4219685 6.67155936 64.5894646 7.34154485 64.5894646 8.12319456 64.5336326 8.79318001 64.4219685 9.51899761 64.19864 10.1331509L64.19864 10.1331509zM107.636031 2.26082173C106.910213 1.59083627 106.128563 1.08834717 105.179417.753354436 104.230271.418361701 103.281125.250865337 102.220315.250865337 101.215337.250865337 100.210359.418361701 99.3170445.753354436 98.3678987 1.08834717 97.5304166 1.59083627 96.8604314 2.26082173 96.1346137 2.93080719 95.5762926 3.76828904 95.1854676 4.7174351 94.7946426 5.66658119 94.5713144 6.78322363 94.5713144 8.0115303 94.5713144 9.239837 94.7946426 10.3564794 95.1854676 11.3056255 95.5762926 12.2547716 96.1346137 13.0922534 96.8604314 13.7622389 97.5862487 14.4322243 98.3678987 14.9347134 99.3170445 15.2697062 100.266191 15.6046989 101.215337 15.7721953 102.276147 15.7721953 103.392789 15.7721953 104.4536 15.6046989 105.402746 15.213874 106.351892 14.8230492 107.189374 14.3205601 107.859359 13.5947425 108.529345 12.924757 109.087666 12.0872752 109.478491 11.1381291 109.869316 10.1889831 110.036812 9.12817274 110.036812 7.95569818 110.036812 6.72739148 109.813484 5.61074904 109.422659 4.66160298 108.92017 3.76828904 108.361848 2.93080719 107.636031 2.26082173L107.636031 2.26082173zM106.407724 10.1331509C106.184396 10.6914722 105.849403 11.1939613 105.458578 11.5847861 105.067753 11.975611 104.565264 12.2547716 104.006943 12.4781001 103.448622 12.7014285 102.8903 12.7572607 102.220315 12.7572607 101.606162 12.7572607 100.992008 12.6455964 100.433687 12.4781001 99.875366 12.2547716 99.428709 11.975611 99.037884 11.5847861 98.6470593 11.1939613 98.3120663 10.6914722 98.0887378 10.1331509 97.8654096 9.51899761 97.6979131 8.84901213 97.6979131 8.06736241 97.6979131 7.2857127 97.8095772 6.55989513 98.0887378 6.00157391 98.3120663 5.38742058 98.6470593 4.94076359 99.037884 4.54993872 99.428709 4.15911388 99.9311981 3.87995327 100.489519 3.65662477 101.04784 3.43329628 101.661994 3.32163205 102.276147 3.32163205 102.8903 3.32163205 103.504454 3.43329628 104.062775 3.65662477 104.621096 3.87995327 105.067753 4.15911388 105.458578 4.54993872 105.849403 4.94076359 106.184396 5.44325269 106.407724 6.05740603 106.631053 6.67155936 106.798549 7.34154485 106.798549 8.12319456 106.798549 8.79318001 106.631053 9.51899761 106.407724 10.1331509L106.407724 10.1331509zM36.7850681.418361701L34.6634473.418361701C34.3842867.418361701 34.1609581.641690192 34.1609581.920850802L34.1609581 10.3006473C34.1609581 10.6914722 34.1051261 11.0264649 33.9376296 11.3614576 33.8259655 11.6406182 33.602637 11.9197788 33.3793085 12.0872752 33.1559799 12.3106037 32.8768194 12.4222679 32.5418267 12.5339322 32.2068338 12.6455964 31.6485127 12.7014285 31.2576879 12.7014285 30.866863 12.7014285 30.2527097 12.6455964 29.9177169 12.5339322 29.5827242 12.4222679 29.3035636 12.2547716 29.0802351 12.0872752 28.8569066 11.9197788 28.6894102 11.6406182 28.5219139 11.3614576 28.4102496 11.082297 28.2985854 10.6914722 28.2985854 10.3006473L28.2985854.920850802C28.2985854.641690192 28.0752569.418361701 27.7960963.418361701L25.6744757.418361701C25.395315.418361701 25.1719866.641690192 25.1719866.920850802L25.1719866 10.3564794C25.1719866 11.2497934 25.3394829 12.0314431 25.6744757 12.7014285 26.0094684 13.371414 26.4561254 13.9297352 27.0144466 14.4322243 27.5727678 14.8788813 28.2427533 15.2697062 28.9685709 15.4930346 29.6943885 15.7163631 30.4760381 15.8280274 31.2576879 15.8280274 32.0393376 15.8280274 32.8209873 15.7163631 33.5468049 15.4930346 34.2726226 15.2697062 34.9426078 14.8788813 35.4450969 14.4322243 36.0034181 13.9855674 36.4500751 13.371414 36.7292357 12.7014285 37.0642287 12.0314431 37.2317248 11.2497934 37.2317248 10.3564794L37.2317248.920850802C37.2875572.641690192 37.0642287.418361701 36.7850681.418361701L36.7850681.418361701zM51.7480768 14.7672171L48.2864851 10.4681437C48.2864851 10.4681437 51.0780912 9.46316546 51.0780912 5.88990965 51.0780912 5.16409208 50.9664271 4.43827449 50.6872662 3.76828904 50.463938 3.09830356 50.073113 2.48415022 49.5706239 1.98166112 49.0681348 1.47917202 48.5098136 1.08834717 47.8398281.809186558 47.1698428.530025945 46.3881928.362529579 45.5507111.362529579L39.9674989.362529579C39.6883383.362529579 39.4650098.58585807 39.4650098.86501868L39.4650098 15.0463777C39.4650098 15.3255383 39.6883383 15.5488668 39.9674989 15.5488668L42.0891194 15.5488668C42.3682803 15.5488668 42.5916085 15.3255383 42.5916085 15.0463777L42.5916085 3.54496054 45.7182075 3.54496054C46.0532002 3.54496054 46.3881928 3.60079266 46.6115213 3.71245689 46.8906819 3.82412115 47.1140104 3.9916175 47.337339 4.21494599 47.5048354 4.43827449 47.6723319 4.66160298 47.783996 4.94076359 47.8956601 5.2199242 47.9514925 5.55491693 47.9514925 5.9457418 47.9514925 6.28073452 47.8956601 6.61572725 47.783996 6.89488786 47.6723319 7.17404847 47.5048354 7.45320908 47.337339 7.67653757 47.1140104 7.89986607 46.8906819 8.0115303 46.6673537 8.12319456 46.3881928 8.23485879 45.9415361 8.29069091 44.9923899 8.29069091L43.6524191 8.29069091C43.6524191 8.29069091 43.205762 8.5140194 43.3732585 8.84901213L48.2864851 15.3255383C48.3981492 15.4372025 48.5098136 15.5488668 48.6773098 15.5488668L51.4130838 15.5488668C51.8597409 15.6046989 52.1389015 15.213874 51.7480768 14.7672171L51.7480768 14.7672171zM123.715682 14.7672171L120.25409 10.4681437C120.25409 10.4681437 123.045697 9.46316546 123.045697 5.88990965 123.045697 5.16409208 122.934032 4.43827449 122.654872 3.76828904 122.431543 3.09830356 122.040718 2.48415022 121.538229 1.98166112 121.03574 1.47917202 120.477419 1.08834717 119.807433.809186558 119.137448.530025945 118.355798.362529579 117.518316.362529579L111.879272.362529579C111.600112.362529579 111.376783.58585807 111.376783.86501868L111.376783 15.0463777C111.376783 15.3255383 111.600112 15.5488668 111.879272 15.5488668L114.000893 15.5488668C114.280053 15.5488668 114.503382 15.3255383 114.503382 15.0463777L114.503382 3.48912843 117.629981 3.48912843C117.964973 3.48912843 118.299966 3.54496054 118.523295 3.65662477 118.802455 3.76828904 119.025784 3.93578538 119.249112 4.15911388 119.416609 4.38244237 119.584105 4.60577087 119.695769 4.88493148 119.807433 5.16409208 119.863265 5.49908481 119.863265 5.88990965 119.863265 6.22490241 119.807433 6.55989513 119.695769 6.83905574 119.584105 7.11821635 119.416609 7.39737696 119.249112 7.62070546 119.025784 7.84403392 118.802455 7.95569818 118.579127 8.06736241 118.299966 8.17902668 117.853309 8.23485879 116.904163 8.23485879L115.564192 8.23485879C115.285031 8.23485879 115.117535 8.45818729 115.285031 8.79318001L120.198258 15.2697062C120.309922 15.3813704 120.421587 15.4930346 120.589083 15.4930346L123.324857 15.4930346C123.827346 15.6046989 124.050675 15.213874 123.715682 14.7672171L123.715682 14.7672171z"/>
  </g>
</svg>
