<?xml version="1.0" encoding="UTF-8" standalone="no"?>
<svg width="424px" height="50px" viewBox="0 0 424 50" version="1.1" xmlns="http://www.w3.org/2000/svg" xmlns:xlink="http://www.w3.org/1999/xlink">
    <!-- Generator: Sketch 3.6.1 (26313) - http://www.bohemiancoding.com/sketch -->
    <title>eurosport</title>
    <desc>Created with Sketch.</desc>
    <defs></defs>
    <g id="Page-1" stroke="none" stroke-width="1" fill="none" fill-rule="evenodd">
        <g id="eurosport" fill="#333333">
            <g id="Layer_1">
                <g id="XMLID_174_" transform="translate(0.499993, 0.130193)">
                    <path d="M42.0850129,48.7047664 L26.1277788,38.1835131 L1.57818798,48.7047664 L16.1325883,31.695407 L0,21.1741538 L25.0756535,21.1741538 L42.0850129,1.18377264 L42.0850129,21.1741538 L66.2838953,21.1741538 L42.0850129,31.5200528 L42.0850129,48.7047664 Z" id="XMLID_193_"></path>
                    <path d="M72.2459388,11.003609 C73.1227099,11.003609 73.8241268,10.3021921 73.8241268,9.425421 L73.8241268,2.76196063 C73.8241268,1.88518953 73.1227099,1.18377264 72.2459388,1.18377264 L46.1181599,1.18377264 L46.1181599,11.003609 L72.2459388,11.003609 L72.2459388,11.003609 Z" id="XMLID_192_"></path>
                    <path d="M72.2459388,48.7047664 C73.1227099,48.7047664 73.8241268,48.0033495 73.8241268,47.1265784 L73.8241268,40.463118 C73.8241268,39.5863469 73.1227099,38.88493 72.2459388,38.88493 L46.1181599,38.88493 L46.1181599,48.7047664 L72.2459388,48.7047664 L72.2459388,48.7047664 Z" id="XMLID_191_"></path>
                    <path d="M421.551546,1.18377264 L389.111015,1.18377264 C388.234244,1.18377264 387.532827,1.88518953 387.532827,2.76196063 L387.532827,9.425421 C387.532827,10.3021921 388.234244,11.003609 389.111015,11.003609 L400.509039,11.003609 L400.509039,47.3019326 C400.509039,48.1787037 401.210456,48.8801206 402.087227,48.8801206 L408.750688,48.8801206 C409.627459,48.8801206 410.328876,48.1787037 410.328876,47.3019326 L410.328876,11.003609 L421.7269,11.003609 C422.603671,11.003609 423.305088,10.3021921 423.305088,9.425421 L423.305088,2.76196063 C423.129734,1.88518953 422.428317,1.18377264 421.551546,1.18377264 L421.551546,1.18377264 Z" id="XMLID_190_"></path>
                    <path d="M291.964777,11.8803801 C291.26336,9.77612944 290.03588,7.84723302 288.457692,6.26904503 C286.879504,4.69085705 285.125962,3.46337751 283.021712,2.58660641 C280.917461,1.70983531 278.462502,1.18377264 275.832189,1.18377264 L258.121412,1.18377264 C257.244641,1.18377264 256.543224,1.88518953 256.543224,2.76196063 L256.543224,47.3019326 C256.543224,48.1787037 257.244641,48.8801206 258.121412,48.8801206 L264.784873,48.8801206 C265.661644,48.8801206 266.363061,48.1787037 266.363061,47.3019326 L266.363061,35.9039083 L275.832189,35.9039083 C278.462502,35.9039083 280.917461,35.3778456 283.021712,34.5010745 C285.125962,33.6243034 286.879504,32.3968239 288.457692,30.8186359 C290.03588,29.2404479 291.088006,27.4869057 291.964777,25.3826551 C292.666194,23.2784044 293.192256,20.8234453 293.192256,18.5438405 C293.016902,16.0888814 292.666194,13.9846307 291.964777,11.8803801 L291.964777,11.8803801 Z M282.671003,21.5248622 C282.320295,22.4016333 281.794232,23.2784044 281.268169,23.9798213 C280.566753,24.6812382 279.865336,25.0319466 279.163919,25.3826551 C278.287148,25.7333635 276.884314,25.9087177 273.903292,25.9087177 L266.363061,25.9087177 L266.363061,11.003609 L276.182897,11.003609 C277.235022,11.003609 278.287148,11.1789632 278.988565,11.5296716 C279.865336,11.8803801 280.566753,12.4064427 281.268169,13.1078596 C281.794232,13.8092765 282.320295,14.5106934 282.671003,15.3874645 C283.021712,16.2642356 283.197066,17.3163609 283.197066,18.5438405 C283.197066,19.5959658 283.021712,20.6480911 282.671003,21.5248622 L282.671003,21.5248622 Z" id="XMLID_187_"></path>
                    <path d="M225.330173,14.8614018 C225.330173,15.9135272 225.505527,16.4395898 225.856236,16.9656525 C226.206944,17.4917151 226.908361,18.0177778 227.609778,18.5438405 C228.486549,18.8945489 229.36332,19.2452573 230.5908,19.5959658 C231.818279,19.9466742 233.045759,20.1220284 234.273238,20.2973827 C236.552843,20.6480911 238.832448,21.1741538 240.936699,21.7002164 C243.216304,22.2262791 245.1452,23.1030502 246.898742,24.1551755 C248.652284,25.2073008 250.055118,26.7854888 250.931889,28.539031 C251.984015,30.4679274 252.334723,32.7475323 252.334723,35.5531998 C252.159369,38.1835131 251.457952,40.6384722 250.230472,42.3920144 C249.002993,44.1455566 247.424805,45.7237446 245.495908,46.7758699 C243.567012,47.8279953 241.81347,48.7047664 239.533865,49.0554748 C237.25426,49.4061832 234.799301,49.5815375 232.69505,49.5815375 C227.25907,49.4061832 219.36813,46.2498073 215.334983,40.8138264 C214.984274,40.2877638 214.633566,39.5863469 215.510337,38.7095758 C216.387108,37.8328047 220.420255,33.6243034 220.420255,33.6243034 C221.297026,32.7475323 221.998443,33.4489492 222.349151,33.7996576 C224.628756,37.306742 229.36332,39.7617011 233.045759,39.9370553 C234.974655,39.9370553 235.150009,39.9370553 236.377489,39.7617011 C237.429614,39.5863469 238.48174,39.4109927 239.358511,38.88493 C240.235282,38.5342216 240.936699,38.0081589 241.462761,37.306742 C241.988824,36.6053252 242.339533,35.7285541 242.339533,34.6764287 C242.339533,33.6243034 242.164178,32.7475323 241.638116,32.2214696 C241.112053,31.5200528 240.410636,30.9939901 239.533865,30.4679274 C238.657094,29.9418648 237.429614,29.5911563 236.202135,29.4158021 C234.974655,29.2404479 233.571821,28.8897395 232.344342,28.7143852 C230.240091,28.3636768 228.135841,28.0129684 226.206944,27.4869057 C224.102694,26.960843 222.349151,26.0840719 220.770963,25.0319466 C219.192775,23.9798213 217.789942,22.5769875 216.913171,20.8234453 C215.861045,19.0699031 215.510337,17.1410067 215.510337,14.5106934 C215.685691,12.0557343 216.211754,9.77612944 217.439233,7.84723302 C218.491359,6.09369081 220.069547,4.51550283 221.823089,3.28802329 C223.576631,2.23589797 225.505527,1.35912686 227.785132,0.833064203 C231.993634,-0.219061119 236.377489,-0.0437068983 240.58599,1.35912686 C245.1452,2.76196063 248.827639,6.26904503 250.581181,8.72400412 C250.931889,9.25006678 251.282598,9.95148366 250.581181,10.6529005 L245.846617,15.3874645 C244.969846,16.2642356 244.093075,16.0888814 243.567012,15.2121103 C241.112053,11.5296716 237.955677,9.95148366 234.273238,9.77612944 C230.064737,9.77612944 225.505527,10.6529005 225.330173,14.8614018 L225.330173,14.8614018 Z" id="XMLID_186_"></path>
                    <path d="M204.989084,6.97046192 C202.709479,4.86621127 200.25452,3.28802329 197.273498,2.23589797 C194.292476,1.18377264 191.311454,0.657709983 187.979724,0.657709983 C184.823348,0.657709983 181.666972,1.18377264 178.861305,2.23589797 C175.880283,3.28802329 173.24997,4.86621127 171.145719,6.97046192 C168.866114,9.07471256 167.112572,11.7050259 165.885092,14.6860476 C164.657613,17.6670694 163.956196,21.1741538 163.956196,25.0319466 C163.956196,28.8897395 164.657613,32.3968239 165.885092,35.3778456 C167.112572,38.3588674 168.866114,40.9891807 171.145719,43.0934313 C173.425324,45.1976819 175.880283,46.7758699 178.861305,47.8279953 C181.842326,48.8801206 184.823348,49.4061832 188.155078,49.4061832 C191.662163,49.4061832 194.993893,48.8801206 197.974915,47.652641 C200.955937,46.4251615 203.58625,44.8469735 205.6905,42.5673686 C207.794751,40.463118 209.548293,37.8328047 210.775773,34.8517829 C212.003252,31.8707612 212.529315,28.539031 212.529315,24.8565924 C212.529315,20.9987995 211.827898,17.4917151 210.600419,14.5106934 C209.022231,11.7050259 207.093334,9.07471256 204.989084,6.97046192 L204.989084,6.97046192 Z M201.131291,31.695407 C200.429874,33.4489492 199.377749,35.0271372 198.150269,36.2546167 C196.922789,37.4820963 195.344601,38.3588674 193.591059,39.0602842 C191.837517,39.7617011 190.083975,39.9370553 187.979724,39.9370553 C186.050828,39.9370553 184.121931,39.5863469 182.368389,39.0602842 C180.614847,38.3588674 179.212013,37.4820963 177.984534,36.2546167 C176.757054,35.0271372 175.704929,33.4489492 175.003512,31.695407 C174.302095,29.7665106 173.776032,27.6622599 173.776032,25.2073008 C173.776032,22.7523417 174.126741,20.4727369 175.003512,18.7191947 C175.704929,16.7902983 176.757054,15.3874645 177.984534,14.1599849 C179.212013,12.9325054 180.790201,12.0557343 182.543743,11.3543174 C184.297286,10.6529005 186.226182,10.3021921 188.155078,10.3021921 C190.083975,10.3021921 192.012871,10.6529005 193.766413,11.3543174 C195.519956,12.0557343 196.922789,12.9325054 198.150269,14.1599849 C199.377749,15.3874645 200.429874,16.9656525 201.131291,18.8945489 C201.832708,20.8234453 202.35877,22.927696 202.35877,25.3826551 C202.183416,27.4869057 201.832708,29.7665106 201.131291,31.695407 L201.131291,31.695407 Z" id="XMLID_183_"></path>
                    <path d="M337.556874,6.97046192 C335.277269,4.86621127 332.82231,3.28802329 329.841288,2.23589797 C326.860267,1.18377264 323.879245,0.657709983 320.547515,0.657709983 C317.391139,0.657709983 314.234763,1.18377264 311.429095,2.23589797 C308.448074,3.28802329 305.81776,4.86621127 303.71351,6.97046192 C301.433905,9.07471256 299.680363,11.7050259 298.452883,14.6860476 C297.225403,17.6670694 296.523987,21.1741538 296.523987,25.0319466 C296.523987,28.8897395 297.225403,32.3968239 298.452883,35.3778456 C299.680363,38.3588674 301.433905,40.9891807 303.71351,43.0934313 C305.993114,45.1976819 308.448074,46.7758699 311.429095,47.8279953 C314.410117,48.8801206 317.391139,49.4061832 320.722869,49.4061832 C324.229953,49.4061832 327.561684,48.8801206 330.542705,47.652641 C333.523727,46.4251615 336.15404,44.8469735 338.258291,42.5673686 C340.362542,40.463118 342.116084,37.8328047 343.343563,34.8517829 C344.571043,31.8707612 345.097106,28.539031 345.097106,24.8565924 C345.097106,20.9987995 344.395689,17.4917151 343.168209,14.5106934 C341.590021,11.7050259 339.836479,9.07471256 337.556874,6.97046192 L337.556874,6.97046192 Z M333.699081,31.695407 C332.997664,33.4489492 331.945539,35.0271372 330.71806,36.2546167 C329.49058,37.4820963 327.912392,38.3588674 326.15885,39.0602842 C324.405308,39.7617011 322.651765,39.9370553 320.547515,39.9370553 C318.618618,39.9370553 316.689722,39.5863469 314.93618,39.0602842 C313.182638,38.3588674 311.779804,37.4820963 310.552324,36.2546167 C309.324845,35.0271372 308.272719,33.4489492 307.571302,31.695407 C306.869886,29.7665106 306.343823,27.6622599 306.343823,25.2073008 C306.343823,22.7523417 306.694531,20.4727369 307.571302,18.7191947 C308.272719,16.7902983 309.324845,15.3874645 310.552324,14.1599849 C311.779804,12.9325054 313.357992,12.0557343 315.111534,11.3543174 C316.865076,10.6529005 318.793973,10.3021921 320.722869,10.3021921 C322.651765,10.3021921 324.580662,10.6529005 326.334204,11.3543174 C328.087746,12.0557343 329.49058,12.9325054 330.71806,14.1599849 C331.945539,15.3874645 332.997664,16.9656525 333.699081,18.8945489 C334.400498,20.8234453 334.926561,22.927696 334.926561,25.3826551 C334.926561,27.4869057 334.400498,29.7665106 333.699081,31.695407 L333.699081,31.695407 Z" id="XMLID_180_"></path>
                    <path d="M115.032369,1.18377264 L108.368908,1.18377264 C107.492137,1.18377264 106.79072,1.88518953 106.79072,2.76196063 L106.79072,32.2214696 C106.79072,33.4489492 106.615366,34.5010745 106.089303,35.5531998 C105.738595,36.4299709 105.037178,37.306742 104.335761,37.8328047 C103.634344,38.5342216 102.757573,38.88493 101.705448,39.2356385 C100.653322,39.5863469 98.8997803,39.7617011 97.6723007,39.7617011 C96.4448212,39.7617011 94.5159248,39.5863469 93.4637994,39.2356385 C92.4116741,38.88493 91.534903,38.3588674 90.8334861,37.8328047 C90.1320693,37.306742 89.6060066,36.4299709 89.0799439,35.5531998 C88.7292355,34.6764287 88.3785271,33.4489492 88.3785271,32.2214696 L88.3785271,2.76196063 C88.3785271,1.88518953 87.6771102,1.18377264 86.8003391,1.18377264 L80.1368787,1.18377264 C79.2601076,1.18377264 78.5586907,1.88518953 78.5586907,2.76196063 L78.5586907,32.3968239 C78.5586907,35.2024914 79.0847534,37.6574505 80.1368787,39.7617011 C81.189004,41.8659518 82.5918378,43.619494 84.34538,45.1976819 C86.0989222,46.6005157 88.2031728,47.8279953 90.4827777,48.5294121 C92.7623826,49.230829 95.2173416,49.5815375 97.6723007,49.5815375 C100.12726,49.5815375 102.582219,49.230829 104.861824,48.5294121 C107.141429,47.8279953 109.245679,46.6005157 110.823867,45.1976819 C112.577409,43.7948482 113.980243,41.8659518 114.857014,39.7617011 C115.90914,37.6574505 116.435202,35.2024914 116.435202,32.3968239 L116.435202,2.76196063 C116.610557,1.88518953 115.90914,1.18377264 115.032369,1.18377264 L115.032369,1.18377264 Z" id="XMLID_179_"></path>
                    <path d="M162.0273,46.2498073 L151.155338,32.7475323 C151.155338,32.7475323 159.923049,29.5911563 159.923049,18.3684862 C159.923049,16.0888814 159.572341,13.8092765 158.695569,11.7050259 C157.994153,9.60077522 156.766673,7.6718788 155.188485,6.09369081 C153.610297,4.51550283 151.856755,3.28802329 149.752504,2.41125219 C147.648254,1.53448108 145.193294,1.00841842 142.562981,1.00841842 L125.027559,1.00841842 C124.150788,1.00841842 123.449371,1.70983531 123.449371,2.58660641 L123.449371,47.1265784 C123.449371,48.0033495 124.150788,48.7047664 125.027559,48.7047664 L131.691019,48.7047664 C132.567791,48.7047664 133.269207,48.0033495 133.269207,47.1265784 L133.269207,11.003609 L143.089044,11.003609 C144.141169,11.003609 145.193294,11.1789632 145.894711,11.5296716 C146.771482,11.8803801 147.472899,12.4064427 148.174316,13.1078596 C148.700379,13.8092765 149.226442,14.5106934 149.57715,15.3874645 C149.927858,16.2642356 150.103213,17.3163609 150.103213,18.5438405 C150.103213,19.5959658 149.927858,20.6480911 149.57715,21.5248622 C149.226442,22.4016333 148.700379,23.2784044 148.174316,23.9798213 C147.472899,24.6812382 146.771482,25.0319466 146.070066,25.3826551 C145.193294,25.7333635 143.790461,25.9087177 140.809439,25.9087177 L136.600938,25.9087177 C136.600938,25.9087177 135.198104,26.6101346 135.724167,27.6622599 L151.155338,48.0033495 C151.506046,48.3540579 151.856755,48.7047664 152.382817,48.7047664 L160.975174,48.7047664 C162.378008,48.8801206 163.254779,47.652641 162.0273,46.2498073 L162.0273,46.2498073 Z" id="XMLID_177_"></path>
                    <path d="M388.05889,46.2498073 L377.186928,32.7475323 C377.186928,32.7475323 385.954639,29.5911563 385.954639,18.3684862 C385.954639,16.0888814 385.603931,13.8092765 384.727159,11.7050259 C384.025743,9.60077522 382.798263,7.6718788 381.220075,6.09369081 C379.641887,4.51550283 377.888345,3.28802329 375.784094,2.41125219 C373.679844,1.53448108 371.224884,1.00841842 368.594571,1.00841842 L350.883795,1.00841842 C350.007024,1.00841842 349.305607,1.70983531 349.305607,2.58660641 L349.305607,47.1265784 C349.305607,48.0033495 350.007024,48.7047664 350.883795,48.7047664 L357.547255,48.7047664 C358.424026,48.7047664 359.125443,48.0033495 359.125443,47.1265784 L359.125443,10.8282548 L368.94528,10.8282548 C369.997405,10.8282548 371.04953,11.003609 371.750947,11.3543174 C372.627718,11.7050259 373.329135,12.2310885 374.030552,12.9325054 C374.556615,13.6339223 375.082677,14.3353392 375.433386,15.2121103 C375.784094,16.0888814 375.959448,17.1410067 375.959448,18.3684862 C375.959448,19.4206116 375.784094,20.4727369 375.433386,21.349508 C375.082677,22.2262791 374.556615,23.1030502 374.030552,23.8044671 C373.329135,24.5058839 372.627718,24.8565924 371.926301,25.2073008 C371.04953,25.5580093 369.646696,25.7333635 366.665675,25.7333635 L362.457173,25.7333635 C361.580402,25.7333635 361.05434,26.4347804 361.580402,27.4869057 L377.011574,47.8279953 C377.362282,48.1787037 377.712991,48.5294121 378.239053,48.5294121 L386.83141,48.5294121 C388.409598,48.8801206 389.111015,47.652641 388.05889,46.2498073 L388.05889,46.2498073 Z" id="XMLID_175_"></path>
                </g>
            </g>
        </g>
    </g>
</svg>