<svg width="190" height="50" viewBox="0 0 190 50" xmlns="http://www.w3.org/2000/svg"><title>qmul</title><g fill="none" fill-rule="evenodd"><path d="M64.19 25.574c1.697.304 3.09 1.25 4.143 2.838 1.154-1.588 1.766-3.92 1.766-6.926 0-5.98-2.55-9.324-6.488-9.324-3.94 0-6.487 3.345-6.487 9.324 0 5.98 2.547 9.325 6.487 9.325 1.256 0 2.41-.337 3.362-1.046-.917-1.555-1.596-2.095-2.82-2.264v-1.926h.035zm8.626 8.31c-1.868 0-3.872-.675-4.993-2.668-1.19.81-2.615 1.216-4.21 1.216-5.367 0-8.424-4.662-8.424-10.912 0-6.25 3.09-10.912 8.422-10.912 5.366 0 8.423 4.662 8.423 10.912 0 3.58-1.02 6.656-2.887 8.58.917 1.59 1.8 2.028 3.668 2.028v1.757zm12.328-17.06v15.304h-1.766V29.73c-1.664 1.69-3.023 2.702-5.264 2.702-3.193 0-4.55-1.824-4.55-5.135V16.824h1.765v10.27c0 2.534.78 3.92 3.123 3.92 1.902 0 2.955-1.15 4.89-2.906V16.824h1.8zm12.125 6.284c-.34-3.142-1.733-5.135-4.45-5.17-3.125-.033-4.45 3.143-4.483 5.17h8.932zm-8.933 1.42c0 3.48 1.46 6.452 4.924 6.452 1.97 0 2.956-.676 4.484-3.075l1.46.777c-1.664 2.703-3.158 3.75-6.08 3.75-4.006 0-6.554-2.567-6.554-7.94 0-4.728 2.412-7.938 6.318-7.938 4.177 0 6.147 3.277 6.147 8.007H88.337v-.033zm22.822-1.42c-.34-3.142-1.733-5.135-4.45-5.17-3.124-.033-4.45 3.143-4.483 5.17h8.932zm-8.933 1.42c0 3.48 1.46 6.452 4.925 6.452 1.97 0 2.955-.676 4.483-3.075l1.46.777c-1.664 2.703-3.158 3.75-6.08 3.75-4.007 0-6.554-2.567-6.554-7.94 0-4.728 2.413-7.938 6.318-7.938 4.178 0 6.147 3.277 6.147 8.007h-10.698v-.033zm12.295 7.6V16.824h1.766v2.4c1.664-1.69 3.022-2.704 5.264-2.704 3.192 0 4.55 1.825 4.55 5.135v10.44h-1.765V21.858c0-2.534-.78-3.92-3.125-3.92-1.902 0-2.954 1.15-4.924 2.907v11.25h-1.766v.033zm20.75 0v-21.25h3.43l5.877 18.007h.066l5.91-18.007h3.43v21.25h-1.97V12.466h-.034l-6.42 19.662h-1.867l-6.418-19.662h-.068v19.662h-1.937zm29.82-8.648c-7.03 1.52-7.98 2.973-7.98 4.898 0 1.69 1.153 2.602 2.75 2.602 1.664 0 3.702-.98 5.23-2.534V23.48zm.306 8.648l-.238-1.858c-1.834 1.453-3.227 2.162-5.604 2.162-2.377 0-4.21-1.452-4.21-3.986 0-4.19 3.43-4.932 9.848-6.35v-1.05c0-2.026-.883-3.073-3.532-3.073-1.834 0-3.33 1.013-4.45 2.77l-1.188-.71c1.324-2.465 3.226-3.48 5.706-3.48 3.498 0 5.128 1.42 5.128 4.798v8.008c0 .777.068 1.757.238 2.804h-1.698v-.034zm3.294 0V16.824h1.766v2.906h.068c.815-1.892 2.48-3.21 4.45-3.21h.814v1.69h-.815c-1.936 0-4.483 2.297-4.483 5.236v8.65h-1.8v.032zm14.23-2.87h.068l4.28-12.434h1.9l-5.738 16.385c-1.02 3.006-2.14 4.324-4.89 4.324-.782 0-1.258-.068-1.665-.17v-1.452c.543.068 1.087.203 1.766.203 1.257 0 2.615-1.08 3.464-4.223l-5.332-15.068h1.936l4.212 12.433zm-125.254 9.29v6.35c0 .88.374 1.318 1.223 1.318.85 0 1.224-.44 1.224-1.317v-6.353h1.732V44.9c0 1.992-1.19 2.836-2.99 2.836-1.8 0-2.954-.844-2.954-2.837v-6.353h1.766zm5.197 9.053v-6.823h1.528v.777c.577-.507 1.12-.912 1.766-.912.984 0 1.46.473 1.46 1.757v5.2h-1.597V42.57c0-.44-.136-.744-.577-.744-.34 0-.68.304-1.02.608v5.17h-1.56zm7.37 0h-1.597v-6.823h1.597V47.6zm-1.597-9.424h1.597v1.42h-1.597v-1.42zm4.96 6.993h.033l1.02-4.393h1.596L74.378 47.6h-1.562l-1.868-6.823h1.596l1.053 4.392zM79.846 43.277v-.372c0-.608-.306-.98-.917-.98-.646 0-.952.372-.952.98v.372h1.868zm-1.868 1.284v.913c0 .676.408.98.95.98.68 0 .918-.44.918-.946h1.596c-.068 1.42-.917 2.23-2.513 2.23-1.53 0-2.514-.913-2.514-2.433v-2.23c0-1.486 1.02-2.432 2.513-2.432 1.46 0 2.512.946 2.512 2.33v1.59h-3.464zm4.347 3.04v-6.823h1.562v.912h.034c.375-.676.85-1.014 1.632-1.014V42.4c-.272-.07-.578-.17-.85-.17-.51 0-.78.405-.78.743v4.662h-1.597V47.6zm7.098-4.728c-.203-.642-.61-.946-1.086-.946-.374 0-.646.27-.646.608 0 1.047 3.092 1.08 3.092 3.108 0 1.35-.95 2.06-2.276 2.06-.95 0-1.8-.236-2.58-1.96l1.426-.404c.135.642.543 1.047 1.154 1.047.476 0 .782-.236.782-.608 0-1.318-3.09-.98-3.09-3.277 0-1.284 1.052-1.892 2.173-1.892 1.19 0 2.004.676 2.412 1.723l-1.36.542zM93.057 47.6H91.46v-6.823h1.597V47.6zm-1.596-9.424h1.597v1.42H91.46v-1.42zM93.838 42.365V41.08h.646v-1.857h1.596v1.858h1.02v1.285h-1.02v3.48c0 .337.306.506.713.506h.306v1.32c-.307.066-.612.066-.918.066-1.02 0-1.732-.37-1.732-1.35v-4.02h-.612zm4.076 6.25c.136.034.306.034.475.034.68 0 1.154-.61 1.154-.914 0-.405-.136-.878-.272-1.452l-1.596-5.507h1.63l1.087 4.527h.034l.985-4.527h1.63l-1.834 6.79c-.51 1.86-1.12 2.433-2.717 2.433-.135 0-.338 0-.508-.034v-1.35h-.068zm9.78-3.074c0 .54.375.81.918.81.544 0 .95-.27.95-.81V42.84c0-.54-.372-.81-.95-.81-.543 0-.917.27-.917.81v2.703zm-1.56-2.297c0-1.79.95-2.6 2.512-2.6 1.596 0 2.513.776 2.513 2.6v1.892c0 1.824-.918 2.6-2.514 2.6-1.596 0-2.513-.776-2.513-2.6v-1.892zm8.83-3.446h-.442c-.374 0-.544.237-.544.575v.71h.95v1.283h-.95V47.6h-1.596v-5.235h-.713V41.08h.712v-.64c0-1.59.68-1.994 1.834-1.994.238 0 .51.034.747.068v1.283zM118.7 47.6v-9.053h1.765v7.534h2.785v1.52M125.458 45.54c0 .54.373.81.95.81.544 0 .952-.27.952-.81V42.84c0-.54-.374-.81-.95-.81-.545 0-.952.27-.952.81v2.703zm-1.597-2.297c0-1.79.952-2.6 2.515-2.6 1.596 0 2.513.776 2.513 2.6v1.892c0 1.824-.95 2.6-2.513 2.6-1.597 0-2.514-.776-2.514-2.6v-1.892zm6.047 4.358v-6.823h1.528v.777c.577-.507 1.12-.912 1.766-.912.986 0 1.495.473 1.495 1.757v5.2H133.1V42.57c0-.44-.137-.744-.578-.744-.34 0-.68.304-1.02.608v5.17h-1.595zm9-5.27c-.306-.337-.612-.506-.95-.506-.443 0-.782.27-.782 1.622V44.9c0 1.35.34 1.62.78 1.62.34 0 .646-.135.952-.473V42.33zm.136 5.27v-.843h-.034c-.273.44-.986.946-1.7.946-1.222 0-1.732-.946-1.732-2.703v-1.655c0-1.757.51-2.703 1.733-2.703.442 0 .85.203 1.597.743v-2.87h1.596v9.053h-1.46v.033zm3.803-2.06c0 .54.374.81.95.81.545 0 .918-.27.918-.81V42.84c0-.54-.373-.81-.917-.81-.543 0-.95.27-.95.81v2.703zm-1.596-2.297c0-1.79.95-2.6 2.513-2.6 1.597 0 2.514.776 2.514 2.6v1.892c0 1.824-.95 2.6-2.514 2.6-1.596 0-2.513-.776-2.513-2.6v-1.892zm6.08 4.358v-6.823h1.528v.777c.577-.507 1.12-.912 1.766-.912.985 0 1.46.473 1.46 1.757v5.2h-1.596V42.57c0-.44-.136-.744-.577-.744-.34 0-.68.304-1.018.608v5.17h-1.563zM22.686 31.386c-4.45 0-8.05-4.426-8.05-9.865 0-5.44 3.6-9.865 8.05-9.865 4.45 0 8.05 4.426 8.05 9.865-.035 5.44-3.635 9.865-8.05 9.865zm-.102-20.473c-5.977 0-10.834 4.764-10.834 10.642 0 5.878 4.858 10.642 10.835 10.642 5.977 0 10.834-4.764 10.834-10.642 0-5.878-4.858-10.642-10.835-10.642zM0 11.69C0 0 7.845 17.195 4.28 23.884c0 0 5.263-7.162 7.063 2.906 0 0-1.528-2.297-4.45-1.722-2.546.506-2.885 2.466-2.885 2.466L0 11.69z" fill="#333"/><path d="M12.498 32.804c1.155-.405 2.242-.743 3.634-1.284-.543-.304-1.256-.912-1.8-1.35-1.392.506-2.683.98-3.464 1.25-.815.27-3.464.877-4.415-1.69-.713-1.892.645-3.108 1.97-3.108.475 0 .985.17.985.236-.68 0-1.223.54-1.223 1.216 0 .676.543 1.217 1.223 1.217s1.222-.54 1.222-1.216c0-.506-.27-.912-.68-1.216-.542-.372-1.29-.608-2.003-.608-1.596 0-2.988 1.385-3.226 3.007-.27 1.824 1.767 5.642 7.778 3.547m-6.283 3.04c-.238-.844.68-1.52 2.038-1.52h28.902c1.36 0 2.276.676 2.038 1.52-.238.845-1.563 1.453-2.92 1.352l-11.14-.81c-1.36-.102-3.6-.102-4.96 0l-11.07.81c-1.326.1-2.65-.507-2.888-1.35M24.35 9.865c-1.154-1.69-.474-2.738.307-2.704 1.256 0 1.698.71 1.698 1.824.68-.37 1.29-1.418 1.29-2.364s-.747-1.825-1.698-1.858c-1.154 0-1.766.37-2.31.98.103-.203.17-.372.273-.54.203-.407.44-.88.44-1.285 0-.508-.237-1.082-.576-1.69-.34-.608-.78-1.487-1.12-2.23-.307.743-.748 1.622-1.088 2.23-.34.608-.577 1.182-.577 1.69 0 .438.237.91.44 1.283.102.17.204.37.306.574-.543-.642-1.155-1.013-2.343-.98-.95 0-1.7.912-1.7 1.858 0 .946.613 1.96 1.292 2.365 0-1.115.442-1.824 1.698-1.824.78 0 1.46.946.238 2.703 1.393-.34 2.14-.305 3.43-.035m15.862 19.527c-.238-1.622-1.63-3.007-3.227-3.007-.713 0-1.46.203-2.004.608-.406.304-.678.71-.678 1.216 0 .675.544 1.216 1.223 1.216.68 0 1.222-.54 1.222-1.217 0-.676-.543-1.217-1.222-1.217 0-.067.51-.236.985-.236 1.324 0 2.683 1.216 1.97 3.108-.95 2.6-3.6 1.993-4.416 1.69-.815-.27-4.415-1.656-5.807-2.13-.034.034-.068.034-.068.068-3.295-1.182-3.84-1.385-5.435-1.723-5.094-1.047-5.434 2.298-5.434 2.298 0 .1.442-1.487 3.805-1.15 1.392.136 2.207.508 5.366 1.825 0 0-.033 0-.033.034 1.392.54 4.822 1.757 5.977 2.162 6.012 2.128 8.05-1.69 7.778-3.548" fill="#333"/><path d="M44.966 11.69c0-11.69-7.845 5.506-4.28 12.195 0 0-5.263-7.162-7.063 2.906 0 0 1.528-2.297 4.45-1.722 2.546.506 2.886 2.466 2.886 2.466l4.006-15.845z" fill="#333"/></g></svg>