<?xml version="1.0" encoding="UTF-8" standalone="no"?>
<svg width="199px" height="50px" viewBox="0 0 199 50" version="1.1" xmlns="http://www.w3.org/2000/svg" xmlns:xlink="http://www.w3.org/1999/xlink">
    <!-- Generator: Sketch 3.6.1 (26313) - http://www.bohemiancoding.com/sketch -->
    <title>Layer_1</title>
    <desc>Created with Sketch.</desc>
    <defs></defs>
    <g id="Page-1" stroke="none" stroke-width="1" fill="none" fill-rule="evenodd">
        <g id="explore-digital-space-logo" fill="#333333">
            <g id="Layer_1">
                <path d="M28.4693878,32.4489796 L28.4693878,32.4489796 C27.244898,31.2244898 24.7959184,28.2653061 24.5918367,24.7959184 L24.5918367,23.9795918 L23.9795918,23.0612245 C21.7346939,35 29.5918367,46.4285714 41.4285714,48.6734694 C44.2857143,49.1836735 47.3469388,49.1836735 50.2040816,48.5714286 L45.9183673,45 C37.9591837,45.2040816 30.8163265,40.1020408 28.4693878,32.4489796 L28.4693878,32.4489796 Z" id="Shape"></path>
                <path d="M66.5306122,20.5102041 C62.9591837,8.87755102 50.6122449,2.44897959 38.9795918,6.02040816 C35.9183673,6.93877551 33.0612245,8.57142857 30.7142857,10.8163265 C31.7346939,11.3265306 32.9591837,11.9387755 34.2857143,12.6530612 L34.8979592,12.5510204 C42.8571429,6.73469388 54.0816327,8.46938776 59.8979592,16.4285714 C63.7755102,21.7346939 64.4897959,28.6734694 61.7346939,34.5918367 L65,37.1428571 C67.755102,32.0408163 68.2653061,26.0204082 66.5306122,20.5102041 L66.5306122,20.5102041 Z" id="Shape"></path>
                <path d="M22.5510204,12.3469388 C22.244898,12.755102 22.0408163,13.2653061 22.1428571,13.7755102 C22.244898,15.4081633 24.1836735,18.3673469 27.244898,22.5510204 L27.755102,23.2653061 C27.6530612,23.7755102 27.5510204,24.1836735 27.6530612,24.6938776 C27.8571429,27.4489796 30.3061224,30.2040816 31.122449,30.9183673 L35,34.2857143 C35.5102041,34.7959184 36.3265306,34.6938776 36.7346939,34.1836735 C36.8367347,34.0816327 36.9387755,33.877551 37.0408163,33.7755102 L38.3673469,30.4081633 C39.0816327,30 39.7959184,29.5918367 40.4081633,29.0816327 L43.0612245,31.4285714 C43.3673469,31.7346939 43.9795918,31.7346939 44.2857143,31.4285714 C44.5918367,31.122449 44.5918367,30.5102041 44.2857143,30.2040816 C44.2857143,30.2040816 44.1836735,30.2040816 44.1836735,30.1020408 L41.4285714,27.5510204 C41.8367347,26.8367347 42.1428571,26.122449 42.4489796,25.4081633 L45.6122449,23.6734694 C46.0204082,23.4693878 46.2244898,23.1632653 46.2244898,22.755102 L46.2244898,22.5510204 C46.2244898,22.244898 46.0204082,21.9387755 45.8163265,21.7346939 L41.9387755,18.3673469 C40.9183673,17.4489796 36.8367347,14.7959184 33.877551,16.0204082 L33.3673469,15.7142857 C26.122449,11.7346939 23.7755102,11.0204082 22.5510204,12.3469388 L22.5510204,12.3469388 Z M32.1428571,18.1632653 C33.0612245,18.5714286 33.877551,18.9795918 34.5918367,19.6938776 L39.6938776,24.0816327 C39.8979592,24.2857143 40,24.4897959 40.1020408,24.7959184 C39.8979592,25.2040816 39.7959184,25.6122449 39.5918367,25.9183673 L35.5102041,22.4489796 C35.2040816,22.1428571 34.5918367,22.1428571 34.2857143,22.4489796 C33.9795918,22.755102 33.9795918,23.3673469 34.2857143,23.6734694 C34.2857143,23.6734694 34.3877551,23.6734694 34.3877551,23.7755102 L38.3673469,27.244898 C38.0612245,27.4489796 37.755102,27.6530612 37.3469388,27.8571429 C37.0408163,27.8571429 36.8367347,27.755102 36.6326531,27.5510204 L31.5306122,23.1632653 C30.4081633,22.3469388 29.6938776,21.122449 29.3877551,19.7959184 C29.3877551,19.3877551 29.4897959,18.877551 29.7959184,18.5714286 C30.1020408,18.1632653 30.7142857,17.6530612 32.1428571,18.1632653 L32.1428571,18.1632653 L32.1428571,18.1632653 Z M35.2040816,31.122449 L32.755102,28.9795918 C31.9387755,28.2653061 30.2040816,26.122449 30.1020408,24.4897959 C30.1020408,24.4897959 30.1020408,24.4897959 30.1020408,24.3877551 L30.3061224,24.5918367 L35.4081633,28.9795918 C35.6122449,29.0816327 35.7142857,29.2857143 35.9183673,29.3877551 L35.2040816,31.122449 L35.2040816,31.122449 Z M40.3061224,20.2040816 L42.755102,22.3469388 L41.122449,23.2653061 C41.0204082,23.0612245 40.8163265,22.9591837 40.7142857,22.755102 L35.6122449,18.3673469 L35.4081633,18.1632653 C36.9387755,18.0612245 39.2857143,19.2857143 40.3061224,20.2040816 L40.3061224,20.2040816 L40.3061224,20.2040816 Z M29.5918367,16.5306122 C28.6734694,16.9387755 27.9591837,17.755102 27.6530612,18.7755102 C26.6326531,17.3469388 25.7142857,15.9183673 24.8979592,14.3877551 C26.5306122,15 28.1632653,15.7142857 29.5918367,16.5306122 L29.5918367,16.5306122 L29.5918367,16.5306122 Z" id="Shape"></path>
                <ellipse id="Oval" transform="translate(29.488343, 1.839871) rotate(-4.280048) translate(-29.488343, -1.839871) " cx="29.4883433" cy="1.83987064" rx="1.32651574" ry="1.32651574"></ellipse>
                <ellipse id="Oval" transform="translate(10.305496, 34.792030) rotate(-4.280048) translate(-10.305496, -34.792030) " cx="10.305496" cy="34.7920299" rx="1.02039672" ry="1.02039672"></ellipse>
                <circle id="Oval" cx="11.122449" cy="9.3877551" r="1.73469388"></circle>
                <ellipse id="Oval" cx="20.2040816" cy="5.6122449" rx="0.714285714" ry="0.714285714"></ellipse>
                <ellipse id="Oval" cx="15.1020408" cy="26.6326531" rx="0.714285714" ry="0.714285714"></ellipse>
                <ellipse id="Oval" cx="1.32653061" cy="18.4693878" rx="0.714285714" ry="0.714285714"></ellipse>
                <ellipse id="Oval" cx="71.7346939" cy="34.3877551" rx="0.714285714" ry="0.714285714"></ellipse>
                <ellipse id="Oval" cx="64.1836735" cy="5.6122449" rx="0.714285714" ry="0.714285714"></ellipse>
                <path d="M59.5918367,46.122449 C59.2857143,46.122449 58.9795918,46.0204082 58.7755102,45.8163265 L45.7142857,34.5918367 C45.2040816,34.0816327 45.2040816,33.2653061 45.6122449,32.755102 C46.0204082,32.244898 46.8367347,32.244898 47.3469388,32.6530612 L60.4081633,43.877551 C60.9183673,44.2857143 61.0204082,45.1020408 60.5102041,45.7142857 C60.3061224,45.9183673 60,46.0204082 59.5918367,46.122449 L59.5918367,46.122449 Z" id="Shape"></path>
                <path d="M63.3673469,42.4489796 C63.0612245,42.4489796 62.755102,42.3469388 62.5510204,42.1428571 L46.5306122,28.5714286 C46.0204082,28.1632653 45.9183673,27.3469388 46.4285714,26.7346939 C46.8367347,26.2244898 47.6530612,26.122449 48.2653061,26.6326531 L64.2857143,40.2040816 C64.7959184,40.6122449 64.8979592,41.4285714 64.4897959,42.0408163 C64.1836735,42.244898 63.7755102,42.4489796 63.3673469,42.4489796 L63.3673469,42.4489796 Z" id="Shape"></path>
                <path d="M54.8979592,48.7755102 C54.5918367,48.7755102 54.2857143,48.6734694 54.0816327,48.4693878 L39.4897959,36.122449 C38.9795918,35.7142857 38.877551,34.8979592 39.3877551,34.2857143 C39.7959184,33.7755102 40.6122449,33.6734694 41.2244898,34.1836735 L55.8163265,46.5306122 C56.3265306,46.9387755 56.4285714,47.755102 56.0204082,48.3673469 C55.7142857,48.5714286 55.3061224,48.7755102 54.8979592,48.7755102 L54.8979592,48.7755102 Z" id="Shape"></path>
                <path d="M91.122449,21.0204082 L86.2244898,21.0204082 L86.2244898,17.3469388 L91.122449,17.3469388 L91.122449,15.1020408 L86.3265306,15.1020408 L86.3265306,11.8367347 L91.122449,11.8367347 L91.122449,9.48979592 L83.4693878,9.48979592 L83.4693878,23.2653061 L91.122449,23.2653061 L91.122449,21.0204082 Z" id="Shape"></path>
                <path d="M99.4897959,18.6734694 L103.061224,14.3877551 L100.204082,14.3877551 L98.1632653,16.9387755 L96.122449,14.3877551 L92.9591837,14.3877551 L96.6326531,18.7755102 L92.9591837,23.2653061 L96.0204082,23.2653061 L98.1632653,20.4081633 L100.408163,23.2653061 L103.367347,23.2653061 L99.4897959,18.6734694 Z" id="Shape"></path>
                <path d="M110.816327,13.9795918 C109.591837,14.0816327 108.469388,14.6938776 107.755102,15.6122449 L107.55102,15.8163265 L107.55102,14.2857143 L105.204082,14.2857143 L105.204082,26.9387755 L107.857143,26.9387755 L107.857143,21.8367347 L108.061224,22.0408163 C108.877551,22.8571429 109.897959,23.3673469 111.020408,23.3673469 L111.020408,23.3673469 C113.673469,23.3673469 115.204082,20.9183673 115.204082,18.6734694 C115.204082,16.4285714 113.673469,13.9795918 110.816327,13.9795918 L110.816327,13.9795918 Z M111.836735,20.6122449 C111.428571,21.0204082 110.816327,21.3265306 110.204082,21.3265306 C108.77551,21.3265306 107.653061,20.2040816 107.653061,18.7755102 L107.653061,18.7755102 C107.653061,17.4489796 108.673469,16.3265306 110.102041,16.2244898 L110.102041,16.2244898 C111.428571,16.2244898 112.55102,17.244898 112.653061,18.6734694 C112.653061,19.4897959 112.346939,20.1020408 111.836735,20.6122449 L111.836735,20.6122449 Z" id="Shape"></path>
                <rect id="Rectangle-path" x="117.040816" y="8.26530612" width="2.44897959" height="15.1020408"></rect>
                <path d="M126.734694,23.7755102 C129.489796,23.877551 131.734694,21.7346939 131.836735,19.0816327 L131.836735,18.9795918 C131.836735,17.6530612 131.326531,16.4285714 130.408163,15.5102041 C129.489796,14.5918367 128.265306,14.0816327 126.938776,14.0816327 C124.183673,13.9795918 121.938776,16.122449 121.836735,18.877551 C121.836735,20.2040816 122.346939,21.4285714 123.265306,22.3469388 C124.081633,23.1632653 125.408163,23.7755102 126.734694,23.7755102 L126.734694,23.7755102 Z M126.734694,16.3265306 L126.734694,16.3265306 C128.163265,16.4285714 129.183673,17.4489796 129.285714,18.7755102 C129.285714,19.3877551 129.081633,20 128.673469,20.5102041 C128.163265,21.0204082 127.55102,21.3265306 126.836735,21.3265306 C125.408163,21.122449 124.489796,19.8979592 124.591837,18.5714286 C124.693878,17.4489796 125.510204,16.5306122 126.734694,16.3265306 L126.734694,16.3265306 L126.734694,16.3265306 Z" id="Shape"></path>
                <path d="M139.183673,16.5306122 L139.183673,14.1836735 C138.673469,14.1836735 138.163265,14.2857143 137.653061,14.4897959 C137.142857,14.6938776 136.632653,15.1020408 136.326531,15.6122449 L136.122449,15.9183673 L136.122449,14.3877551 L133.571429,14.3877551 L133.571429,23.3673469 L136.122449,23.3673469 L136.122449,18.9795918 C136.020408,18.1632653 136.428571,17.4489796 137.040816,16.9387755 C137.44898,16.6326531 138.061224,16.5306122 138.571429,16.5306122 C138.77551,16.4285714 138.979592,16.4285714 139.183673,16.5306122 L139.183673,16.5306122 Z" id="Shape"></path>
                <path d="M148.979592,21.2244898 L147.142857,20.1020408 C146.734694,20.9183673 145.918367,21.4285714 145,21.5306122 C143.877551,21.5306122 142.857143,20.7142857 142.755102,19.5918367 L142.755102,19.3877551 L149.387755,19.3877551 C149.489796,17.9591837 148.979592,16.5306122 148.061224,15.4081633 C147.142857,14.4897959 145.918367,14.0816327 144.693878,14.0816327 C142.346939,13.9795918 140.306122,15.8163265 140.306122,18.2653061 L140.306122,18.5714286 C140.204082,21.2244898 142.142857,23.4693878 144.795918,23.5714286 L145,23.5714286 L145.102041,23.5714286 C146.632653,23.4693878 148.163265,22.5510204 148.979592,21.2244898 L148.979592,21.2244898 Z M142.755102,17.6530612 C142.755102,16.6326531 143.673469,15.8163265 144.693878,15.7142857 L144.693878,15.7142857 C145.714286,15.6122449 146.632653,16.3265306 146.632653,17.3469388 L146.632653,17.5510204 L146.632653,17.755102 L142.653061,17.755102 L142.755102,17.6530612 L142.755102,17.6530612 L142.755102,17.6530612 Z" id="Shape"></path>
                <path d="M88.877551,30.8163265 L83.4693878,30.8163265 L83.4693878,44.6938776 L88.7755102,44.6938776 C90.3061224,44.7959184 91.7346939,44.1836735 92.8571429,43.1632653 C94.1836735,41.6326531 94.8979592,39.4897959 94.7959184,37.4489796 C94.7959184,34.1836735 92.9591837,30.8163265 88.877551,30.8163265 L88.877551,30.8163265 Z M90.9183673,41.4285714 C90.2040816,42.0408163 89.2857143,42.4489796 88.3673469,42.3469388 L86.122449,42.3469388 L86.122449,33.1632653 L88.5714286,33.1632653 C90.9183673,33.1632653 92.1428571,35.4081633 92.1428571,37.4489796 C92.244898,38.877551 91.8367347,40.3061224 90.9183673,41.4285714 L90.9183673,41.4285714 L90.9183673,41.4285714 Z" id="Shape"></path>
                <path d="M98.2653061,30.8163265 C97.8571429,30.8163265 97.4489796,31.0204082 97.1428571,31.3265306 C96.8367347,31.6326531 96.7346939,32.0408163 96.7346939,32.4489796 C96.7346939,33.2653061 97.4489796,33.9795918 98.2653061,33.9795918 C98.6734694,33.9795918 98.9795918,33.7755102 99.2857143,33.5714286 C99.5918367,33.2653061 99.6938776,32.8571429 99.6938776,32.5510204 C99.7959184,31.5306122 99.0816327,30.8163265 98.2653061,30.8163265 L98.2653061,30.8163265 Z" id="Shape"></path>
                <rect id="Rectangle-path" x="97.0408163" y="35.7142857" width="2.55102041" height="8.97959184"></rect>
                <path d="M108.877551,36.6326531 L108.877551,36.9387755 L108.673469,36.7346939 C107.040816,35.1020408 104.387755,35.1020408 102.755102,36.6326531 C102.653061,36.7346939 102.55102,36.8367347 102.55102,36.8367347 C101.836735,37.755102 101.428571,38.877551 101.428571,40.1020408 C101.326531,42.4489796 103.061224,44.4897959 105.408163,44.6938776 L105.612245,44.6938776 L105.714286,44.6938776 C106.836735,44.5918367 107.857143,44.0816327 108.571429,43.1632653 L108.877551,42.755102 L108.877551,44.7959184 C108.877551,45.9183673 108.061224,46.6326531 106.530612,46.6326531 C105.612245,46.7346939 104.795918,46.122449 104.591837,45.3061224 L101.938776,45.3061224 C102.142857,47.6530612 104.387755,48.5714286 106.530612,48.5714286 L106.530612,48.5714286 C108.877551,48.5714286 111.326531,47.4489796 111.326531,45 L111.326531,35.7142857 L108.979592,35.7142857 L108.877551,36.6326531 L108.877551,36.6326531 L108.877551,36.6326531 Z M108.061224,41.6326531 C107.653061,42.1428571 107.040816,42.3469388 106.326531,42.3469388 C105,42.3469388 103.979592,41.3265306 103.979592,40 C103.979592,39.3877551 104.183673,38.7755102 104.693878,38.2653061 C105.102041,37.8571429 105.714286,37.6530612 106.22449,37.6530612 L106.22449,37.6530612 C107.44898,37.5510204 108.571429,38.5714286 108.673469,39.7959184 L108.673469,40 C108.673469,40.6122449 108.469388,41.122449 108.061224,41.6326531 L108.061224,41.6326531 Z" id="Shape"></path>
                <path d="M115.102041,30.8163265 C114.693878,30.8163265 114.285714,31.0204082 113.979592,31.3265306 C113.673469,31.6326531 113.571429,32.0408163 113.571429,32.4489796 C113.571429,33.2653061 114.285714,33.9795918 115.102041,33.9795918 C115.510204,33.9795918 115.816327,33.7755102 116.122449,33.5714286 C116.428571,33.2653061 116.530612,32.8571429 116.530612,32.5510204 C116.530612,31.5306122 115.918367,30.8163265 115.102041,30.8163265 L115.102041,30.8163265 Z" id="Shape"></path>
                <rect id="Rectangle-path" x="113.77551" y="35.7142857" width="2.55102041" height="8.97959184"></rect>
                <path d="M121.938776,32.8571429 L119.387755,32.8571429 L119.387755,35.7142857 L118.367347,35.7142857 L118.367347,37.755102 L119.387755,37.755102 L119.387755,44.6938776 L121.836735,44.6938776 L121.836735,37.755102 L123.469388,37.755102 L123.469388,35.7142857 L121.938776,35.7142857 L121.938776,32.8571429 Z" id="Shape"></path>
                <path d="M132.244898,36.9387755 L132.040816,36.7346939 C131.22449,35.9183673 130.204082,35.5102041 129.081633,35.5102041 C127.959184,35.5102041 126.938776,35.9183673 126.22449,36.7346939 C125.306122,37.6530612 124.795918,38.9795918 124.795918,40.3061224 C124.795918,42.755102 126.632653,44.7959184 129.081633,44.8979592 L129.183673,44.8979592 C130.204082,44.8979592 131.22449,44.4897959 131.938776,43.7755102 L132.142857,43.5714286 L132.142857,44.5918367 L134.591837,44.5918367 L134.591837,35.7142857 L132.244898,35.7142857 L132.244898,36.9387755 L132.244898,36.9387755 L132.244898,36.9387755 Z M131.530612,42.0408163 C131.020408,42.5510204 130.408163,42.755102 129.795918,42.755102 C129.081633,42.755102 128.469388,42.4489796 127.959184,41.9387755 C127.55102,41.5306122 127.244898,40.8163265 127.244898,40.2040816 C127.244898,38.7755102 128.265306,37.6530612 129.693878,37.6530612 L129.795918,37.6530612 L129.897959,37.6530612 C131.22449,37.6530612 132.346939,38.7755102 132.346939,40.2040816 C132.244898,40.9183673 132.040816,41.6326531 131.530612,42.0408163 L131.530612,42.0408163 L131.530612,42.0408163 Z" id="Shape"></path>
                <rect id="Rectangle-path" x="137.346939" y="29.5918367" width="2.44897959" height="15.1020408"></rect>
                <path d="M154.387755,37.0408163 L152.142857,36.0204082 C151.428571,35.8163265 150.918367,35.1020408 150.918367,34.3877551 C150.918367,33.4693878 151.632653,32.6530612 152.55102,32.6530612 L152.755102,32.6530612 C153.571429,32.755102 154.285714,33.0612245 154.795918,33.6734694 L154.897959,33.7755102 L156.428571,32.1428571 C155.408163,31.122449 153.979592,30.6122449 152.55102,30.6122449 C151.326531,30.6122449 150.102041,31.122449 149.285714,31.9387755 C148.571429,32.6530612 148.265306,33.5714286 148.265306,34.5918367 C148.163265,36.122449 149.081633,37.5510204 150.510204,38.1632653 L152.653061,39.1836735 C153.469388,39.4897959 153.979592,40.2040816 154.081633,41.0204082 C154.081633,42.0408163 153.265306,42.755102 152.244898,42.755102 L152.142857,42.755102 L152.040816,42.755102 C151.020408,42.6530612 150,42.1428571 149.387755,41.3265306 L147.857143,43.1632653 C148.979592,44.3877551 150.510204,45.1020408 152.244898,45.1020408 L152.244898,45.1020408 C153.571429,45.1020408 154.795918,44.5918367 155.816327,43.6734694 C156.530612,42.9591837 156.938776,41.8367347 156.938776,40.8163265 C156.734694,39.1836735 155.816327,37.755102 154.387755,37.0408163 L154.387755,37.0408163 Z" id="Shape"></path>
                <path d="M164.183673,35.3061224 C162.959184,35.4081633 161.836735,36.0204082 161.122449,36.9387755 L160.918367,37.1428571 L160.918367,35.6122449 L158.571429,35.6122449 L158.571429,48.2653061 L161.22449,48.2653061 L161.22449,43.1632653 L161.428571,43.3673469 C162.244898,44.1836735 163.265306,44.6938776 164.387755,44.6938776 L164.387755,44.6938776 C167.040816,44.6938776 168.571429,42.244898 168.571429,40 C168.571429,37.755102 166.938776,35.4081633 164.183673,35.3061224 L164.183673,35.3061224 Z M165.204082,42.0408163 C164.795918,42.4489796 164.183673,42.755102 163.571429,42.755102 C162.142857,42.755102 161.020408,41.6326531 161.020408,40.2040816 L161.020408,40.2040816 C161.020408,38.877551 162.040816,37.755102 163.469388,37.6530612 L163.469388,37.6530612 C164.795918,37.6530612 165.918367,38.6734694 166.020408,40.1020408 C166.020408,40.8163265 165.714286,41.5306122 165.204082,42.0408163 L165.204082,42.0408163 L165.204082,42.0408163 Z" id="Shape"></path>
                <path d="M177.346939,36.9387755 L177.142857,36.7346939 C176.326531,35.9183673 175.306122,35.5102041 174.183673,35.5102041 C173.061224,35.5102041 172.040816,35.9183673 171.326531,36.7346939 C170.408163,37.6530612 169.897959,38.9795918 169.897959,40.3061224 C169.897959,42.755102 171.734694,44.7959184 174.183673,44.8979592 L174.285714,44.8979592 C175.306122,44.8979592 176.326531,44.4897959 177.040816,43.7755102 L177.244898,43.5714286 L177.244898,44.5918367 L179.693878,44.5918367 L179.693878,35.7142857 L177.346939,35.7142857 L177.346939,36.9387755 L177.346939,36.9387755 L177.346939,36.9387755 Z M176.632653,42.0408163 C176.122449,42.5510204 175.510204,42.755102 174.897959,42.755102 C174.183673,42.755102 173.571429,42.4489796 173.061224,41.9387755 C172.653061,41.4285714 172.346939,40.8163265 172.346939,40.2040816 C172.346939,38.7755102 173.367347,37.6530612 174.795918,37.6530612 L174.897959,37.6530612 L175,37.6530612 C176.326531,37.6530612 177.44898,38.7755102 177.44898,40.2040816 C177.44898,40.9183673 177.142857,41.6326531 176.632653,42.0408163 L176.632653,42.0408163 L176.632653,42.0408163 Z" id="Shape"></path>
                <path d="M183.673469,40.2040816 C183.571429,38.877551 184.591837,37.755102 185.918367,37.6530612 L186.122449,37.6530612 C186.632653,37.6530612 187.244898,37.8571429 187.653061,38.0612245 L187.755102,38.0612245 L187.755102,36.0204082 C187.040816,35.7142857 186.326531,35.5102041 185.612245,35.5102041 C183.061224,35.5102041 181.020408,37.6530612 180.918367,40.2040816 C180.918367,41.4285714 181.326531,42.5510204 182.244898,43.3673469 C183.163265,44.2857143 184.387755,44.7959184 185.714286,44.7959184 L185.714286,44.7959184 C186.428571,44.7959184 187.244898,44.5918367 187.857143,44.1836735 L187.857143,41.9387755 C187.346939,42.3469388 186.632653,42.5510204 186.020408,42.5510204 C184.795918,42.6530612 183.77551,41.5306122 183.673469,40.2040816 L183.673469,40.2040816 L183.673469,40.2040816 Z" id="Shape"></path>
                <path d="M193.877551,42.8571429 C192.755102,42.8571429 191.734694,42.0408163 191.632653,40.9183673 L191.632653,40.7142857 L198.265306,40.7142857 C198.367347,39.2857143 197.857143,37.8571429 196.938776,36.7346939 C196.020408,35.8163265 194.795918,35.4081633 193.571429,35.4081633 C191.22449,35.3061224 189.183673,37.1428571 189.183673,39.5918367 L189.183673,39.8979592 C189.081633,42.5510204 191.020408,44.7959184 193.673469,44.8979592 L193.877551,44.8979592 L193.979592,44.8979592 C195.612245,44.7959184 197.040816,43.9795918 197.857143,42.5510204 L196.020408,41.4285714 C195.612245,42.244898 194.795918,42.755102 193.877551,42.8571429 L193.877551,42.8571429 Z M191.632653,39.0816327 C191.734694,38.0612245 192.55102,37.244898 193.571429,37.244898 L193.571429,37.244898 C194.591837,37.1428571 195.510204,37.8571429 195.510204,38.877551 L195.510204,39.0816327 L195.510204,39.2857143 L191.530612,39.2857143 L191.632653,39.0816327 L191.632653,39.0816327 L191.632653,39.0816327 Z" id="Shape"></path>
            </g>
        </g>
    </g>
</svg>