<svg xmlns="http://www.w3.org/2000/svg" width="135" height="35" viewBox="0 0 135 35">
  <g fill="#333">
    <path d="M4.73082996 20.8531069L4.73082996 20.8531069C3.81975714 19.9420341 1.99761152 17.7402748 1.845766 15.1589018L1.845766 14.5515199 1.39022959 13.8682153C-.280070514 22.7511752 5.56597997 31.2545214 14.3730171 32.9248216 16.4988537 33.3044353 18.7765358 33.3044353 20.9023723 32.8488989L17.7136174 30.1916032C11.7916442 30.3434486 6.47705279 26.5473119 4.73082996 20.8531069L4.73082996 20.8531069zM33.0500097 11.970147C30.3927141 3.31495529 21.2060632-1.46817696 12.5508715 1.18911873 10.2731895 1.87242334 8.14735297 3.08718709 6.40113006 4.75748722 7.16035743 5.1371009 8.07143025 5.59263731 9.05842578 6.12409644L9.51396219 6.04817371C15.4359355 1.72057787 23.7874362 3.01126436 28.1150321 8.9332376 31.0000959 12.8812198 31.5315551 18.0439657 29.4816413 22.4474843L31.9111687 24.3455526C33.9610825 20.5494159 34.3406962 16.0699747 33.0500097 11.970147L33.0500097 11.970147z"/>
    <path d="M.327311337 5.89632827C.0995431707 6.20001916-.0523023477 6.57963284.0236203743 6.95924653.0995431707 8.1740103 1.54207511 10.3757695 3.81975714 13.4886017L4.19937075 14.0200608C4.12344803 14.3996745 4.04752531 14.7033654 4.12344803 15.0829791 4.27529355 17.1328929 6.0974391 19.1828067 6.70482103 19.7142658L9.58988491 22.2197161C9.96949859 22.5993298 10.5768804 22.5234071 10.8805714 22.1437934 10.9564941 22.0678707 11.0324168 21.9160251 11.1083396 21.8401024L12.0953351 19.3346522C12.6267943 19.0309613 13.1582534 18.7272703 13.6137898 18.3476567L15.5877809 20.0938795C15.8155491 20.3216478 16.2710855 20.3216478 16.4988537 20.0938795 16.7266219 19.8661113 16.7266219 19.4105749 16.4988537 19.1828067 16.4988537 19.1828067 16.422931 19.1828067 16.422931 19.106884L14.3730171 17.2088156C14.6767081 16.6773565 14.9044763 16.1458974 15.1322445 15.6144382L17.4858493 14.3237518C17.7895402 14.1719063 17.9413857 13.9441381 17.9413857 13.6404471L17.9413857 13.4886017C17.9413857 13.2608335 17.7895402 13.0330653 17.6376947 12.8812198L14.7526308 10.3757695C13.9934035 9.69246496 10.9564941 7.71847389 8.75473482 8.62954671L8.37512113 8.40177847C2.98460705 5.44079186 1.23838415 4.90933273.327311337 5.89632827L.327311337 5.89632827zM7.46404832 10.2239241C8.14735297 10.5276151 8.75473482 10.8313059 9.28619395 11.3627651L13.0823307 14.6274427C13.2341762 14.7792882 13.3100989 14.9311336 13.3860216 15.1589018 13.2341762 15.4625927 13.1582534 15.7662837 13.0064079 15.9940519L9.96949859 13.4126789C9.74173035 13.1849107 9.28619395 13.1849107 9.05842578 13.4126789 8.83065754 13.6404471 8.83065754 14.0959835 9.05842578 14.3237518 9.05842578 14.3237518 9.1343485 14.3237518 9.1343485 14.3996745L12.0953351 16.9810475C11.8675669 17.1328929 11.6397987 17.2847384 11.3361078 17.4365839 11.1083396 17.4365839 10.9564941 17.3606611 10.8046487 17.2088156L7.00851191 13.9441381C6.1733619 13.3367562 5.64190277 12.4256834 5.41413453 11.4386879 5.41413453 11.1349969 5.49005725 10.7553832 5.71782549 10.5276151 5.94559366 10.2239241 6.40113006 9.84431041 7.46404832 10.2239241L7.46404832 10.2239241 7.46404832 10.2239241zM9.74173035 19.8661113L7.91958473 18.2717339C7.31220288 17.7402748 6.02151638 16.1458974 5.94559366 14.9311336 5.94559366 14.9311336 5.94559366 14.9311336 5.94559366 14.8552109L6.0974391 15.0070563 9.89357587 18.2717339C10.0454213 18.3476567 10.121344 18.4995021 10.2731895 18.5754249L9.74173035 19.8661113 9.74173035 19.8661113zM13.537867 11.7423788L15.3600127 13.3367562 14.145249 14.0200608C14.0693263 13.8682153 13.9174807 13.7922926 13.841558 13.6404471L10.0454213 10.3757695 9.89357587 10.2239241C11.0324168 10.1480014 12.7786398 11.0590742 13.537867 11.7423788L13.537867 11.7423788 13.537867 11.7423788zM5.56597997 9.00916032C4.8826754 9.31285128 4.35121627 9.92023313 4.12344803 10.6794605 3.36422074 9.61654224 2.68091609 8.55362391 2.07353424 7.41478293 3.28829794 7.87031934 4.50306172 8.40177847 5.56597997 9.00916032L5.56597997 9.00916032 5.56597997 9.00916032zM27.8872638 31.0267533C27.6594956 31.0267533 27.4317274 30.9508305 27.279882 30.798985L17.561772 22.4474843C17.1821583 22.0678707 17.1821583 21.4604887 17.4858493 21.080875 17.7895402 20.7012614 18.3969221 20.7012614 18.7765358 21.0049523L28.4946457 29.3564531C28.8742593 29.660144 28.9501821 30.2675259 28.5705685 30.7230623 28.4187229 30.8749077 28.1909548 30.9508305 27.8872638 31.0267533L27.8872638 31.0267533zM30.696405 28.2935348C30.4686368 28.2935348 30.2408686 28.2176121 30.0890231 28.0657666L18.1691538 17.968043C17.7895402 17.664352 17.7136174 17.0569702 18.0932311 16.6014338 18.3969221 16.2218201 19.0043039 16.1458974 19.4598403 16.5255111L31.3797096 26.6232346C31.7593233 26.9269256 31.835246 27.5343075 31.5315551 27.9898439 31.3037869 28.1416894 31.0000959 28.2935348 30.696405 28.2935348L30.696405 28.2935348zM24.3948181 33.0007443C24.1670498 33.0007443 23.9392817 32.9248216 23.7874362 32.7729762L12.9304852 23.5863253C12.5508715 23.2826344 12.4749488 22.6752525 12.8545625 22.2197161 13.1582534 21.8401024 13.7656353 21.7641797 14.2211717 22.1437934L25.0781227 31.3304442C25.4577363 31.6341351 25.5336591 32.241517 25.2299682 32.6970534 25.0021999 32.8488989 24.698509 33.0007443 24.3948181 33.0007443L24.3948181 33.0007443z"/>
    <polygon points="51.347 12.35 47.703 12.35 47.703 9.617 51.347 9.617 51.347 7.946 47.779 7.946 47.779 5.517 51.347 5.517 51.347 3.77 45.653 3.77 45.653 14.02 51.347 14.02"/>
    <polygon points="57.573 10.604 60.23 7.415 58.105 7.415 56.586 9.313 55.068 7.415 52.714 7.415 55.447 10.679 52.714 14.02 54.992 14.02 56.586 11.894 58.256 14.02 60.458 14.02"/>
    <path d="M66.0004767,7.11109197 C65.0894038,7.18701477 64.2542537,7.64255117 63.7227943,8.32585575 L63.5709486,8.47770119 L63.5709486,7.33886021 L61.8247263,7.33886021 L61.8247263,16.7532792 L63.7987172,16.7532792 L63.7987172,12.9571425 L63.9505622,13.108988 C64.5579444,13.7163699 65.3171716,14.0959835 66.1523217,14.0959835 L66.1523217,14.0959835 C68.1263126,14.0959835 69.2651542,12.2738379 69.2651542,10.6035378 C69.2651542,8.9332376 68.1263126,7.11109197 66.0004767,7.11109197 L66.0004767,7.11109197 Z M66.7597039,12.0460697 C66.4560125,12.3497607 66.0004767,12.5775288 65.5449402,12.5775288 C64.4820215,12.5775288 63.6468715,11.7423788 63.6468715,10.6794605 L63.6468715,10.6794605 C63.6468715,9.69246496 64.4060987,8.85731487 65.4690174,8.78139215 L65.4690174,8.78139215 C66.4560125,8.78139215 67.2911626,9.54061952 67.3670854,10.6035378 C67.3670854,11.2109196 67.1393176,11.666456 66.7597039,12.0460697 L66.7597039,12.0460697 Z"/>
    <rect width="1.822" height="11.237" x="70.632" y="2.859"/>
    <path d="M77.844423 14.3996745C79.8943368 14.4755972 81.564637 12.8812198 81.6405598 10.9072287L81.6405598 10.8313059C81.6405598 9.84431041 81.2609462 8.9332376 80.5776411 8.24993302 79.8943368 7.56662838 78.9832638 7.18701477 77.9962687 7.18701477 75.9463542 7.11109197 74.2760548 8.70546943 74.2001319 10.7553832 74.2001319 11.7423788 74.5797455 12.6534516 75.2630499 13.3367562 75.8704321 13.9441381 76.8574272 14.3996745 77.844423 14.3996745L77.844423 14.3996745zM77.844423 8.85731487L77.844423 8.85731487C78.907341 8.9332376 79.6665682 9.69246496 79.742491 10.6794605 79.742491 11.1349969 79.590646 11.5905333 79.2869546 11.970147 78.907341 12.3497607 78.4518045 12.5775288 77.9203459 12.5775288 76.8574272 12.4256834 76.1741228 11.5146106 76.2500457 10.5276151 76.3259686 9.69246496 76.93335 9.00916032 77.844423 8.85731487L77.844423 8.85731487 77.844423 8.85731487zM87.1069961 9.00916032L87.1069961 7.26293749C86.7273825 7.26293749 86.3477689 7.33886021 85.9681553 7.49070565 85.5885417 7.64255117 85.2089281 7.94624206 84.9811602 8.32585575L84.8293145 8.55362391 84.8293145 7.41478293 82.9312464 7.41478293 82.9312464 14.0959835 84.8293145 14.0959835 84.8293145 10.8313059C84.7533916 10.2239241 85.0570823 9.69246496 85.5126188 9.31285128 85.8163103 9.08508311 86.271846 9.00916032 86.6514604 9.00916032 86.8033054 8.9332376 86.9551511 8.9332376 87.1069961 9.00916032L87.1069961 9.00916032zM94.3955791 12.5016061L93.0289696 11.666456C92.7252789 12.2738379 92.1178967 12.6534516 91.4345923 12.7293743 90.5994422 12.7293743 89.840215 12.1219924 89.7642921 11.2868423L89.7642921 11.1349969 94.6992698 11.1349969C94.7751927 10.0720786 94.3955791 9.00916032 93.712274 8.1740103 93.0289696 7.49070565 92.1178967 7.18701477 91.2068244 7.18701477 89.4606014 7.11109197 87.9421462 8.47770119 87.9421462 10.2998468L87.9421462 10.5276151C87.8662241 12.5016061 89.3087557 14.1719063 91.2827466 14.247829L91.4345923 14.247829 91.5105152 14.247829C92.649356 14.1719063 93.7881968 13.4886017 94.3955791 12.5016061L94.3955791 12.5016061zM89.7642921 9.84431041C89.7642921 9.08508311 90.4475965 8.47770119 91.2068244 8.40177847L91.2068244 8.40177847C91.9660517 8.32585575 92.649356 8.85731487 92.649356 9.61654224L92.649356 9.76838769 92.649356 9.92023313 89.6883693 9.92023313 89.7642921 9.84431041 89.7642921 9.84431041 89.7642921 9.84431041zM49.6770885 19.6383431L45.6531837 19.6383431 45.6531837 29.963835 49.6011658 29.963835C50.7400068 30.0397577 51.8029251 29.5842213 52.6380752 28.824994 53.6250707 27.686153 54.1565299 26.0917755 54.0806071 24.5733209 54.0806071 22.1437934 52.7139979 19.6383431 49.6770885 19.6383431L49.6770885 19.6383431zM51.1955432 27.5343075C50.6640841 27.9898439 49.9807795 28.2935348 49.2974748 28.2176121L47.6271747 28.2176121 47.6271747 21.384566 49.4493204 21.384566C51.1955432 21.384566 52.106616 23.0548662 52.106616 24.5733209 52.1825388 25.6362391 51.8788478 26.6991574 51.1955432 27.5343075L51.1955432 27.5343075 51.1955432 27.5343075zM56.6619801 19.6383431C56.3582892 19.6383431 56.0545982 19.7901886 55.82683 20.0179568 55.5990618 20.245725 55.5231391 20.5494159 55.5231391 20.8531069 55.5231391 21.4604887 56.0545982 21.9919479 56.6619801 21.9919479 56.965671 21.9919479 57.1934392 21.8401024 57.4212074 21.688257 57.6489756 21.4604887 57.7248984 21.1567978 57.7248984 20.9290296 57.8008211 20.1698022 57.269362 19.6383431 56.6619801 19.6383431L56.6619801 19.6383431z"/>
    <rect width="1.898" height="6.681" x="55.751" y="23.283"/>
    <path d="M64.5579444 23.965939L64.5579444 24.1937072 64.4060987 24.0418617C63.191335 22.827098 61.2173441 22.827098 60.0025804 23.965939 59.9266575 24.0418617 59.8507346 24.1177845 59.8507346 24.1177845 59.319276 24.801089 59.0155845 25.6362391 59.0155845 26.5473119 58.9396624 28.2935348 60.2303482 29.8119895 61.9765713 29.963835L62.128417 29.963835 62.2043399 29.963835C63.03949 29.8879122 63.7987172 29.5082986 64.3301765 28.824994L64.5579444 28.521303 64.5579444 30.0397577C64.5579444 30.8749077 63.9505622 31.406367 62.8117214 31.406367 62.128417 31.4822897 61.5210348 31.0267533 61.3691898 30.4193713L59.3951989 30.4193713C59.5470439 32.1655942 61.2173441 32.8488989 62.8117214 32.8488989L62.8117214 32.8488989C64.5579444 32.8488989 66.3800903 32.0137488 66.3800903 30.1916032L66.3800903 23.2826344 64.6338673 23.2826344 64.5579444 23.965939 64.5579444 23.965939 64.5579444 23.965939zM63.9505622 27.686153C63.6468715 28.0657666 63.191335 28.2176121 62.6598764 28.2176121 61.6728805 28.2176121 60.9136533 27.4583847 60.9136533 26.4713892 60.9136533 26.0158528 61.0654983 25.5603164 61.4451127 25.1807027 61.7488034 24.8770118 62.2043399 24.7251663 62.5839535 24.7251663L62.5839535 24.7251663C63.4950265 24.6492436 64.3301765 25.4084709 64.4060987 26.3195438L64.4060987 26.4713892C64.4060987 26.9269256 64.2542537 27.3065393 63.9505622 27.686153L63.9505622 27.686153zM69.1892313 19.6383431C68.8855406 19.6383431 68.5818491 19.7901886 68.3540813 20.0179568 68.1263126 20.245725 68.0503905 20.5494159 68.0503905 20.8531069 68.0503905 21.4604887 68.5818491 21.9919479 69.1892313 21.9919479 69.4929221 21.9919479 69.7206907 21.8401024 69.9484586 21.688257 70.1762264 21.4604887 70.2521493 21.1567978 70.2521493 20.9290296 70.2521493 20.1698022 69.7966128 19.6383431 69.1892313 19.6383431L69.1892313 19.6383431z"/>
    <rect width="1.898" height="6.681" x="68.202" y="23.283"/>
    <polygon points="74.276 21.157 72.378 21.157 72.378 23.283 71.619 23.283 71.619 24.801 72.378 24.801 72.378 29.964 74.2 29.964 74.2 24.801 75.415 24.801 75.415 23.283 74.276 23.283"/>
    <path d="M81.9442506,24.1937072 L81.7924048,24.0418617 C81.1850234,23.4344798 80.4257961,23.1307889 79.590646,23.1307889 C78.755496,23.1307889 77.9962687,23.4344798 77.4648094,24.0418617 C76.7815043,24.7251663 76.4018907,25.7121618 76.4018907,26.6991574 C76.4018907,28.521303 77.7685001,30.0397577 79.590646,30.1156805 L79.6665682,30.1156805 C80.4257961,30.1156805 81.1850234,29.8119895 81.7164827,29.2805304 L81.8683277,29.1286849 L81.8683277,29.8879122 L83.6904736,29.8879122 L83.6904736,23.2826344 L81.9442506,23.2826344 L81.9442506,24.1937072 L81.9442506,24.1937072 L81.9442506,24.1937072 Z M81.4127912,27.9898439 C81.0331776,28.3694576 80.5776411,28.521303 80.1221047,28.521303 C79.590646,28.521303 79.1351096,28.2935348 78.755496,27.9139211 C78.4518045,27.6102302 78.2240366,27.0787711 78.2240366,26.6232346 C78.2240366,25.5603164 78.9832638,24.7251663 80.0461825,24.7251663 L80.1221047,24.7251663 L80.1980275,24.7251663 C81.1850234,24.7251663 82.0201734,25.5603164 82.0201734,26.6232346 C81.9442506,27.1546938 81.7924048,27.686153 81.4127912,27.9898439 L81.4127912,27.9898439 L81.4127912,27.9898439 Z"/>
    <rect width="1.822" height="11.237" x="85.74" y="18.727"/>
    <path d="M98.4194838 24.2696299L96.7491836 23.5104026C96.2177242 23.3585571 95.8381106 22.827098 95.8381106 22.2956388 95.8381106 21.6123343 96.36957 21.0049523 97.0528743 21.0049523L97.2047201 21.0049523C97.8121023 21.080875 98.3435609 21.3086433 98.7231745 21.7641797L98.7990974 21.8401024 99.9379382 20.6253386C99.178711 19.8661113 98.115793 19.4864977 97.0528743 19.4864977 96.1418021 19.4864977 95.2307292 19.8661113 94.6233469 20.4734932 94.0918883 21.0049523 93.8641197 21.688257 93.8641197 22.4474843 93.7881968 23.5863253 94.4715019 24.6492436 95.5344199 25.10478L97.1287972 25.8640074C97.7361794 26.0917755 98.115793 26.6232346 98.1917159 27.2306166 98.1917159 27.9898439 97.5843337 28.521303 96.8251065 28.521303L96.7491836 28.521303 96.6732607 28.521303C95.9140335 28.4453803 95.1548063 28.0657666 94.6992698 27.4583847L93.560429 28.824994C94.3955791 29.7360668 95.5344199 30.2675259 96.8251065 30.2675259L96.8251065 30.2675259C97.8121023 30.2675259 98.7231745 29.8879122 99.4824025 29.2046076 100.013861 28.6731485 100.317553 27.8379984 100.317553 27.0787711 100.165707 25.8640074 99.4824025 24.801089 98.4194838 24.2696299L98.4194838 24.2696299zM105.708066 22.9789434C104.796994 23.0548662 103.961844 23.5104026 103.430384 24.1937072L103.278539 24.3455526 103.278539 23.2067116 101.532316 23.2067116 101.532316 32.6211307 103.506307 32.6211307 103.506307 28.824994 103.658152 28.9768394C104.265534 29.5842213 105.024762 29.963835 105.859912 29.963835L105.859912 29.963835C107.833903 29.963835 108.972744 28.1416894 108.972744 26.4713892 108.972744 24.801089 107.757981 23.0548662 105.708066 22.9789434L105.708066 22.9789434zM106.467294 27.9898439C106.163602 28.2935348 105.708066 28.521303 105.25253 28.521303 104.189612 28.521303 103.354461 27.686153 103.354461 26.6232346L103.354461 26.6232346C103.354461 25.6362391 104.113689 24.801089 105.176607 24.7251663L105.176607 24.7251663C106.163602 24.7251663 106.998753 25.4843937 107.074675 26.5473119 107.074675 27.0787711 106.846908 27.6102302 106.467294 27.9898439L106.467294 27.9898439 106.467294 27.9898439zM115.502099 24.1937072L115.350253 24.0418617C114.742872 23.4344798 113.983644 23.1307889 113.148494 23.1307889 112.313344 23.1307889 111.554117 23.4344798 111.022658 24.0418617 110.339353 24.7251663 109.959739 25.7121618 109.959739 26.6991574 109.959739 28.521303 111.326349 30.0397577 113.148494 30.1156805L113.224417 30.1156805C113.983644 30.1156805 114.742872 29.8119895 115.274331 29.2805304L115.426176 29.1286849 115.426176 29.8879122 117.248322 29.8879122 117.248322 23.2826344 115.502099 23.2826344 115.502099 24.1937072 115.502099 24.1937072 115.502099 24.1937072zM114.97064 27.9898439C114.591026 28.3694576 114.13549 28.521303 113.679953 28.521303 113.148494 28.521303 112.692958 28.2935348 112.313344 27.9139211 112.009653 27.5343075 111.781885 27.0787711 111.781885 26.6232346 111.781885 25.5603164 112.541112 24.7251663 113.60403 24.7251663L113.679953 24.7251663 113.755876 24.7251663C114.742872 24.7251663 115.578022 25.5603164 115.578022 26.6232346 115.578022 27.1546938 115.350253 27.686153 114.97064 27.9898439L114.97064 27.9898439 114.97064 27.9898439zM120.209308 26.6232346C120.133386 25.6362391 120.892613 24.801089 121.879608 24.7251663L122.031454 24.7251663C122.411068 24.7251663 122.866604 24.8770118 123.170295 25.0288573L123.246218 25.0288573 123.246218 23.5104026C122.714759 23.2826344 122.1833 23.1307889 121.651841 23.1307889 119.753772 23.1307889 118.235317 24.7251663 118.159394 26.6232346 118.159394 27.5343075 118.463086 28.3694576 119.14639 28.9768394 119.829695 29.660144 120.740768 30.0397577 121.727763 30.0397577L121.727763 30.0397577C122.259222 30.0397577 122.866604 29.8879122 123.322141 29.5842213L123.322141 27.9139211C122.942527 28.2176121 122.411068 28.3694576 121.955531 28.3694576 121.044458 28.4453803 120.285231 27.6102302 120.209308 26.6232346L120.209308 26.6232346 120.209308 26.6232346zM127.801582 28.5972258C126.966432 28.5972258 126.207205 27.9898439 126.131282 27.1546938L126.131282 27.0028483 131.066259 27.0028483C131.142182 25.9399301 130.762569 24.8770118 130.079264 24.0418617 129.395959 23.3585571 128.484886 23.0548662 127.573814 23.0548662 125.827591 22.9789434 124.309136 24.3455526 124.309136 26.1676982L124.309136 26.3954665C124.233214 28.3694576 125.675745 30.0397577 127.649736 30.1156805L127.801582 30.1156805 127.877505 30.1156805C129.092269 30.0397577 130.155186 29.4323758 130.762569 28.3694576L129.395959 27.5343075C129.092269 28.1416894 128.484886 28.521303 127.801582 28.5972258L127.801582 28.5972258zM126.131282 25.7880846C126.207205 25.0288573 126.814586 24.4214754 127.573814 24.4214754L127.573814 24.4214754C128.333041 24.3455526 129.016346 24.8770118 129.016346 25.6362391L129.016346 25.7880846 129.016346 25.9399301 126.055359 25.9399301 126.131282 25.7880846 126.131282 25.7880846 126.131282 25.7880846z"/>
  </g>
</svg>
