<svg xmlns="http://www.w3.org/2000/svg" xmlns:xlink="http://www.w3.org/1999/xlink" width="283" height="55" viewBox="0 0 283 55">
  <defs>
    <path id="main-a" d="M11.4829691,33.9136123 C13.9236841,33.9136123 15.9626665,33.3435157 17.5999163,32.2033226 C17.769287,32.0853716 17.9343179,31.9630279 18.0950091,31.8362916 L18.1228852,31.813741 L18.1229266,33.2294964 L23.580426,33.2294964 L23.580426,0.391934843 L17.3497809,0.391934843 L17.3495317,9.39589928 L17.2183125,9.31249251 C15.7693209,8.41552477 14.0385809,7.95102363 12.0260925,7.91898907 L11.8013232,7.91720937 C9.45156653,7.91720937 7.40500427,8.47970463 5.66163642,9.60469517 C3.91826856,10.7296857 2.56526351,12.2689464 1.60262126,14.2224773 C0.639979015,16.1760081 0.15865789,18.406986 0.15865789,20.9154108 C0.15865789,23.3782279 0.632399155,25.5902026 1.57988168,27.5513347 C2.52736421,29.5124669 3.85004982,31.0631295 5.54793851,32.2033226 C7.24582721,33.3435157 9.22417073,33.9136123 11.4829691,33.9136123 Z M12.4835106,28.3950776 C11.1494552,28.3950776 10.0579554,28.060621 9.20901101,27.3917077 C8.36006666,26.7227944 7.73093826,25.8220418 7.32162581,24.68945 C6.91231336,23.5568582 6.70765713,22.2988451 6.70765713,20.9154108 C6.70765713,19.5471791 6.91989322,18.2967673 7.34436539,17.1641755 C7.76883756,16.0315837 8.42449547,15.1270305 9.31133912,14.4505159 C10.1981828,13.7740013 11.3313719,13.435744 12.7109064,13.435744 C13.9994827,13.435744 15.0417135,13.7473968 15.8375988,14.3707024 C16.6334841,14.9940079 17.2133434,15.868156 17.5771767,16.9931465 C17.94101,18.1181371 18.1229266,19.4255585 18.1229266,20.9154108 C18.1229266,22.4052631 17.94101,23.7126846 17.5771767,24.8376751 C17.2133434,25.9626657 16.6183244,26.8368137 15.7921196,27.4601193 C14.9659149,28.0834248 13.8630452,28.3950776 12.4835106,28.3950776 Z M40.4070927,33.9136123 C42.8629674,33.9136123 45.0270175,33.3625189 46.899243,32.2603323 C48.7714685,31.1581456 50.2343815,29.6302868 51.2879821,27.676756 C52.3415827,25.7232251 52.8683829,23.4694434 52.8683829,20.9154108 C52.8683829,18.3765808 52.3453726,16.1304004 51.2993519,14.1768695 C50.2533312,12.2233387 48.7942081,10.6916793 46.9219826,9.58189131 C45.0497571,8.47210335 42.8781272,7.91720937 40.4070927,7.91720937 C37.9815374,7.91720937 35.836437,8.46450206 33.9717914,9.55908745 C32.1071458,10.6536728 30.6442327,12.177731 29.5830523,14.1312618 C28.5218719,16.0847927 27.9912817,18.3461757 27.9912817,20.9154108 C27.9912817,23.4542408 28.5105021,25.7004212 29.5489429,27.6539521 C30.5873838,29.607483 32.038927,31.1391424 33.9035726,32.2489303 C35.7682183,33.3587183 37.9360583,33.9136123 40.4070927,33.9136123 Z M40.4070927,28.1214313 C38.4818082,28.1214313 37.0226851,27.4715212 36.0297234,26.1717011 C35.0367617,24.8718809 34.5402809,23.1197842 34.5402809,20.9154108 C34.5402809,19.4863688 34.7487271,18.2321564 35.1656194,17.1527736 C35.5825117,16.0733907 36.2230099,15.2296478 37.0871139,14.6215449 C37.951218,14.0134419 39.0578776,13.7093904 40.4070927,13.7093904 C42.3626967,13.7093904 43.8369795,14.3631011 44.8299412,15.6705225 C45.8229029,16.9779439 46.3193837,18.72624 46.3193837,20.9154108 C46.3193837,23.0285687 45.8304827,24.7578616 44.8526807,26.1032895 C43.8748788,27.4487173 42.3930161,28.1214313 40.4070927,28.1214313 Z M67.417717,33.6513679 C69.0473869,33.6893743 70.7111663,33.5487505 72.4090549,33.2294964 L72.4090549,33.2294964 L72.4090549,28.0758235 C70.9537218,28.273457 69.6272462,28.3342673 68.4296283,28.2582544 C67.2320104,28.1822416 66.3603265,27.7109618 65.8145765,26.844415 C65.5265419,26.3883377 65.3711547,25.7764341 65.3484151,25.0087041 C65.3256756,24.2409741 65.3143058,23.3782279 65.3143058,22.4204657 L65.3143058,22.4204657 L65.314015,13.3903237 L72.4090549,13.3901363 L72.4090549,8.60132523 L65.314015,8.60136691 L65.3143058,1.76016657 L59.1291398,1.76016657 L59.128766,8.60136691 L54.945057,8.60132523 L54.945057,13.3901363 L59.128766,13.3903237 L59.1291398,22.7853275 C59.1291398,24.1465427 59.142057,25.3749827 59.1678913,26.4706475 L59.174619,26.7417976 C59.2049384,27.9047946 59.5232926,29.0487883 60.1296814,30.1737789 C60.7967091,31.3747823 61.7707211,32.2451297 63.0517175,32.7848211 C64.3327139,33.3245125 65.788047,33.6133614 67.417717,33.6513679 Z M87.843104,33.9136123 C90.283819,33.9136123 92.3228014,33.3435157 93.9600513,32.2033226 C94.1294219,32.0853716 94.2944529,31.9630279 94.4551441,31.8362916 L94.4828539,31.813741 L94.4830616,33.2294964 L99.940561,33.2294964 L99.940561,0.391934843 L93.7099159,0.391934843 L93.7098951,9.39629496 L93.5784475,9.31249251 C92.1294559,8.41552477 90.3987158,7.95102363 88.3862275,7.91898907 L88.1614582,7.91720937 C85.8117015,7.91720937 83.7651392,8.47970463 82.0217714,9.60469517 C80.2784035,10.7296857 78.9253985,12.2689464 77.9627562,14.2224773 C77.000114,16.1760081 76.5187929,18.406986 76.5187929,20.9154108 C76.5187929,23.3782279 76.9925341,25.5902026 77.9400167,27.5513347 C78.8874992,29.5124669 80.2101848,31.0631295 81.9080735,32.2033226 C83.6059622,33.3435157 85.5843057,33.9136123 87.843104,33.9136123 Z M88.8436456,28.3950776 C87.5095902,28.3950776 86.4180903,28.060621 85.569146,27.3917077 C84.7202016,26.7227944 84.0910732,25.8220418 83.6817608,24.68945 C83.2724483,23.5568582 83.0677921,22.2988451 83.0677921,20.9154108 C83.0677921,19.5471791 83.2800282,18.2967673 83.7045004,17.1641755 C84.1289725,16.0315837 84.7846304,15.1270305 85.6714741,14.4505159 C86.5583177,13.7740013 87.6915068,13.435744 89.0710414,13.435744 C90.3596176,13.435744 91.4018484,13.7473968 92.1977338,14.3707024 C92.9936191,14.9940079 93.5734784,15.868156 93.9373117,16.9931465 C94.301145,18.1181371 94.4830616,19.4255585 94.4830616,20.9154108 C94.4830616,22.4052631 94.301145,23.7126846 93.9373117,24.8376751 C93.5734784,25.9626657 92.9784594,26.8368137 92.1522546,27.4601193 C91.3260498,28.0834248 90.2231802,28.3950776 88.8436456,28.3950776 Z M116.767228,33.9136123 C119.223102,33.9136123 121.387153,33.3625189 123.259378,32.2603323 C125.131603,31.1581456 126.594516,29.6302868 127.648117,27.676756 C128.701718,25.7232251 129.228518,23.4694434 129.228518,20.9154108 C129.228518,18.3765808 128.705508,16.1304004 127.659487,14.1768695 C126.613466,12.2233387 125.154343,10.6916793 123.282118,9.58189131 C121.409892,8.47210335 119.238262,7.91720937 116.767228,7.91720937 C114.341672,7.91720937 112.196572,8.46450206 110.331926,9.55908745 C108.467281,10.6536728 107.004368,12.177731 105.943187,14.1312618 C104.882007,16.0847927 104.351417,18.3461757 104.351417,20.9154108 C104.351417,23.4542408 104.870637,25.7004212 105.909078,27.6539521 C106.947519,29.607483 108.399062,31.1391424 110.263708,32.2489303 C112.128353,33.3587183 114.296193,33.9136123 116.767228,33.9136123 Z M116.767228,28.1214313 C114.841943,28.1214313 113.38282,27.4715212 112.389858,26.1717011 C111.396897,24.8718809 110.900416,23.1197842 110.900416,20.9154108 C110.900416,19.4863688 111.108862,18.2321564 111.525754,17.1527736 C111.942647,16.0733907 112.583145,15.2296478 113.447249,14.6215449 C114.311353,14.0134419 115.418013,13.7093904 116.767228,13.7093904 C118.722832,13.7093904 120.197114,14.3631011 121.190076,15.6705225 C122.183038,16.9779439 122.679519,18.72624 122.679519,20.9154108 C122.679519,23.0285687 122.190618,24.7578616 121.212816,26.1032895 C120.235014,27.4487173 118.753151,28.1214313 116.767228,28.1214313 Z M143.777852,33.6513679 C145.407522,33.6893743 147.071301,33.5487505 148.76919,33.2294964 L148.76919,33.2294964 L148.76919,28.0758235 C147.313857,28.273457 145.987381,28.3342673 144.789763,28.2582544 C143.592145,28.1822416 142.720461,27.7109618 142.174712,26.844415 C141.886677,26.3883377 141.73129,25.7764341 141.70855,25.0087041 C141.685811,24.2409741 141.674441,23.3782279 141.674441,22.4204657 L141.674441,22.4204657 L141.674378,13.3903237 L148.76919,13.3901363 L148.76919,8.60132523 L141.674378,8.60136691 L141.674441,1.76016657 L135.489275,1.76016657 L135.489129,8.60136691 L131.305192,8.60132523 L131.305192,13.3901363 L135.489129,13.3903237 L135.489275,22.7853275 C135.489275,24.1465427 135.502192,25.3749827 135.528026,26.4706475 L135.534754,26.7417976 C135.565073,27.9047946 135.883428,29.0487883 136.489816,30.1737789 C137.156844,31.3747823 138.130856,32.2451297 139.411852,32.7848211 C140.692849,33.3245125 142.148182,33.6133614 143.777852,33.6513679 Z"/>
  </defs>
  <g fill="none" fill-rule="evenodd">
    <g transform="translate(133.937 9.9)">
      <mask id="main-b" fill="#fff">
        <use xlink:href="#main-a"/>
      </mask>
      <use fill="#FFF" fill-rule="nonzero" opacity=".9" xlink:href="#main-a"/>
      <g fill="#282B2D" mask="url(#main-b)">
        <rect width="148.401" height="34.1" transform="translate(0 -.158)"/>
      </g>
    </g>
    <g transform="translate(0 .396)">
      <ellipse cx="85.819" cy="27.5" fill="#858585" rx="26.633" ry="26.709"/>
      <ellipse cx="26.633" cy="26.709" fill="#A4A4A4" rx="26.633" ry="26.709"/>
    </g>
  </g>
</svg>
