<svg xmlns="http://www.w3.org/2000/svg" xmlns:xlink="http://www.w3.org/1999/xlink" width="135" height="35" viewBox="0 0 135 35">
  <defs>
    <path id="dotdot-a" d="M5.45845361,16.1209072 C6.61865264,16.1209072 7.58788723,15.8499106 8.36615739,15.3079174 C8.44666809,15.2518492 8.52511591,15.1936929 8.60150082,15.1334485 L8.61475175,15.122729 L8.61477147,15.7957113 L11.2090053,15.7957113 L11.2090053,0.186307056 L8.247255,0.186307056 L8.24713657,4.46636057 L8.18476123,4.42671299 C7.49598,4.00033748 6.67326908,3.77953588 5.71662847,3.76430818 L5.60978392,3.7634622 C4.49282212,3.7634622 3.51998442,4.03084551 2.69127083,4.56561214 C1.86255724,5.10037877 1.21940343,5.83206959 0.761809404,6.76068461 C0.304215377,7.68929964 0.0754183633,8.74979967 0.0754183633,9.94218472 C0.0754183633,11.11289 0.300612274,12.1643569 0.751000096,13.0965852 C1.20138792,14.0288135 1.83012932,14.7659242 2.63722429,15.3079174 C3.44431927,15.8499106 4.38472904,16.1209072 5.45845361,16.1209072 Z M5.93406315,13.4976601 C5.2999171,13.4976601 4.78107033,13.3386755 4.37752284,13.0207061 C3.97397535,12.7027368 3.67491784,12.2745621 3.4803503,11.7361822 C3.28578276,11.1978023 3.18849899,10.5998031 3.18849899,9.94218472 C3.18849899,9.29179288 3.28938586,8.697407 3.4911596,8.15902708 C3.69293335,7.62064716 4.00460172,7.19066589 4.42616472,6.86908326 C4.84772772,6.54750062 5.38639156,6.3867093 6.04215623,6.3867093 C6.65468366,6.3867093 7.15011027,6.53485411 7.52843604,6.83114373 C7.90676181,7.12743335 8.18239916,7.54296147 8.35534808,8.0777281 C8.528297,8.61249473 8.61477147,9.23398027 8.61477147,9.94218472 C8.61477147,10.6503892 8.528297,11.2718747 8.35534808,11.8066413 C8.18239916,12.341408 7.8995556,12.7569361 7.50681742,13.0532257 C7.11407924,13.3495153 6.58982782,13.4976601 5.93406315,13.4976601 Z M19.2075969,16.1209072 C20.3750021,16.1209072 21.4036879,15.8589439 22.2936542,15.3350171 C23.1836206,14.8110903 23.8790194,14.0848194 24.3798506,13.1562044 C24.8806819,12.2275894 25.1310975,11.1562495 25.1310975,9.94218472 C25.1310975,8.73534652 24.8824834,7.66761991 24.3852553,6.73900489 C23.8880271,5.81038986 23.1944299,5.08231233 22.3044636,4.55477228 C21.4144972,4.02723222 20.3822083,3.7634622 19.2075969,3.7634622 C18.0546041,3.7634622 17.034926,4.02361894 16.1485628,4.54393241 C15.2621996,5.06424589 14.5668008,5.78871014 14.0623664,6.71732516 C13.5579321,7.64594018 13.3057149,8.72089337 13.3057149,9.94218472 C13.3057149,11.1490229 13.5525274,12.2167495 14.0461525,13.1453646 C14.5397775,14.0739796 15.2297716,14.8020571 16.1161349,15.3295972 C17.0024981,15.8571372 18.0329855,16.1209072 19.2075969,16.1209072 Z M19.2075969,13.3675818 C18.2924088,13.3675818 17.5988116,13.0586456 17.1268052,12.4407734 C16.6547987,11.8229011 16.4187955,10.9900382 16.4187955,9.94218472 C16.4187955,9.26288657 16.5178808,8.66669405 16.7160515,8.15360715 C16.9142221,7.64052025 17.2186843,7.23944528 17.629438,6.95038224 C18.0401917,6.66131919 18.5662446,6.51678767 19.2075969,6.51678767 C20.1371974,6.51678767 20.8380008,6.82753044 21.3100072,7.44901598 C21.7820137,8.07050152 22.0180169,8.90155777 22.0180169,9.94218472 C22.0180169,10.9466788 21.7856168,11.7687018 21.3208166,12.4082538 C20.8560163,13.0478058 20.1516098,13.3675818 19.2075969,13.3675818 Z M32.0471542,15.9962488 C32.8218213,16.0143152 33.6127023,15.9474694 34.4197972,15.7957113 L34.4197972,15.7957113 L34.4197972,13.345902 C33.7280016,13.4398475 33.0974586,13.4687538 32.5281684,13.432621 C31.9588782,13.3964881 31.5445214,13.1724642 31.285098,12.7605494 C31.1481801,12.5437521 31.0743165,12.2528824 31.0635072,11.8879403 C31.0526979,11.5229982 31.0472932,11.11289 31.0472932,10.6576157 L31.0472932,10.6576157 L31.047155,6.36511868 L34.4197972,6.36502958 L34.4197972,4.08865812 L31.047155,4.08867793 L31.0472932,0.8366989 L28.1071615,0.8366989 L28.1069839,4.08867793 L26.1182489,4.08865812 L26.1182489,6.36502958 L28.1069839,6.36511868 L28.1071615,10.8310536 C28.1071615,11.4781101 28.1133017,12.0620516 28.1255821,12.5828782 L28.1287802,12.71177 C28.1431926,13.2646031 28.2945229,13.8084029 28.5827711,14.3431695 C28.8998441,14.914069 29.3628428,15.3277905 29.9717671,15.584334 C30.5806915,15.8408774 31.2724871,15.9781824 32.0471542,15.9962488 Z M41.7564051,16.1209072 C42.9166041,16.1209072 43.8858387,15.8499106 44.6641089,15.3079174 C44.7446196,15.2518492 44.8230674,15.1936929 44.8994523,15.1334485 L44.9126242,15.122729 L44.9127229,15.7957113 L47.5069568,15.7957113 L47.5069568,0.186307056 L44.5452065,0.186307056 L44.5451966,4.46654866 L44.4827127,4.42671299 C43.7939315,4.00033748 42.9712206,3.77953588 42.01458,3.76430818 L41.9077354,3.7634622 C40.7907736,3.7634622 39.8179359,4.03084551 38.9892223,4.56561214 C38.1605087,5.10037877 37.5173549,5.83206959 37.0597609,6.76068461 C36.6021669,7.68929964 36.3733698,8.74979967 36.3733698,9.94218472 C36.3733698,11.11289 36.5985638,12.1643569 37.0489516,13.0965852 C37.4993394,14.0288135 38.1280808,14.7659242 38.9351758,15.3079174 C39.7422708,15.8499106 40.6826805,16.1209072 41.7564051,16.1209072 Z M42.2320146,13.4976601 C41.5978686,13.4976601 41.0790218,13.3386755 40.6754743,13.0207061 C40.2719268,12.7027368 39.9728693,12.2745621 39.7783018,11.7361822 C39.5837342,11.1978023 39.4864505,10.5998031 39.4864505,9.94218472 C39.4864505,9.29179288 39.5873373,8.697407 39.7891111,8.15902708 C39.9908848,7.62064716 40.3025532,7.19066589 40.7241162,6.86908326 C41.1456792,6.54750062 41.684343,6.3867093 42.3401077,6.3867093 C42.9526351,6.3867093 43.4480618,6.53485411 43.8263875,6.83114373 C44.2047133,7.12743335 44.4803506,7.54296147 44.6532996,8.0777281 C44.8262485,8.61249473 44.9127229,9.23398027 44.9127229,9.94218472 C44.9127229,10.6503892 44.8262485,11.2718747 44.6532996,11.8066413 C44.4803506,12.341408 44.1975071,12.7569361 43.8047689,13.0532257 C43.4120307,13.3495153 42.8877793,13.4976601 42.2320146,13.4976601 Z M55.5055484,16.1209072 C56.6729536,16.1209072 57.7016394,15.8589439 58.5916057,15.3350171 C59.4815721,14.8110903 60.1769709,14.0848194 60.6778021,13.1562044 C61.1786334,12.2275894 61.429049,11.1562495 61.429049,9.94218472 C61.429049,8.73534652 61.1804349,7.66761991 60.6832068,6.73900489 C60.1859786,5.81038986 59.4923814,5.08231233 58.602415,4.55477228 C57.7124487,4.02723222 56.6801598,3.7634622 55.5055484,3.7634622 C54.3525555,3.7634622 53.3328775,4.02361894 52.4465143,4.54393241 C51.5601511,5.06424589 50.8647523,5.78871014 50.3603179,6.71732516 C49.8558835,7.64594018 49.6036664,8.72089337 49.6036664,9.94218472 C49.6036664,11.1490229 49.8504789,12.2167495 50.3441039,13.1453646 C50.837729,14.0739796 51.5277231,14.8020571 52.4140864,15.3295972 C53.3004496,15.8571372 54.3309369,16.1209072 55.5055484,16.1209072 Z M55.5055484,13.3675818 C54.5903603,13.3675818 53.8967631,13.0586456 53.4247566,12.4407734 C52.9527502,11.8229011 52.716747,10.9900382 52.716747,9.94218472 C52.716747,9.26288657 52.8158323,8.66669405 53.0140029,8.15360715 C53.2121736,7.64052025 53.5166358,7.23944528 53.9273894,6.95038224 C54.3381431,6.66131919 54.8641961,6.51678767 55.5055484,6.51678767 C56.4351488,6.51678767 57.1359523,6.82753044 57.6079587,7.44901598 C58.0799652,8.07050152 58.3159684,8.90155777 58.3159684,9.94218472 C58.3159684,10.9466788 58.0835683,11.7687018 57.618768,12.4082538 C57.1539678,13.0478058 56.4495612,13.3675818 55.5055484,13.3675818 Z M68.3451057,15.9962488 C69.1197727,16.0143152 69.9106538,15.9474694 70.7177487,15.7957113 L70.7177487,15.7957113 L70.7177487,13.345902 C70.025953,13.4398475 69.3954101,13.4687538 68.8261199,13.432621 C68.2568297,13.3964881 67.8424729,13.1724642 67.5830495,12.7605494 C67.4461316,12.5437521 67.372268,12.2528824 67.3614587,11.8879403 C67.3506494,11.5229982 67.3452447,11.11289 67.3452447,10.6576157 L67.3452447,10.6576157 L67.3452151,6.36511868 L70.7177487,6.36502958 L70.7177487,4.08865812 L67.3452151,4.08867793 L67.3452447,0.8366989 L64.405113,0.8366989 L64.4050439,4.08867793 L62.4162004,4.08865812 L62.4162004,6.36502958 L64.4050439,6.36511868 L64.405113,10.8310536 C64.405113,11.4781101 64.4112532,12.0620516 64.4235336,12.5828782 L64.4267316,12.71177 C64.441144,13.2646031 64.5924744,13.8084029 64.8807226,14.3431695 C65.1977956,14.914069 65.6607943,15.3277905 66.2697186,15.584334 C66.8786429,15.8408774 67.5704386,15.9781824 68.3451057,15.9962488 Z"/>
  </defs>
  <g fill="none" fill-rule="evenodd" transform="translate(0 5)">
    <g transform="translate(63.667 4.706)">
      <mask id="dotdot-b" fill="#fff">
        <use xlink:href="#dotdot-a"/>
      </mask>
      <use fill="#FFF" fill-rule="nonzero" opacity=".9" xlink:href="#dotdot-a"/>
      <g fill="#282B2D" mask="url(#dotdot-b)">
        <rect width="70.543" height="16.21" transform="translate(0 -.075)"/>
      </g>
    </g>
    <g transform="translate(0 .188)">
      <ellipse cx="40.794" cy="13.072" fill="#858585" rx="12.66" ry="12.696"/>
      <ellipse cx="12.66" cy="12.696" fill="#A4A4A4" rx="12.66" ry="12.696"/>
    </g>
  </g>
</svg>
