<?xml version="1.0" encoding="UTF-8" standalone="no"?>
<svg width="150px" height="54px" viewBox="0 0 150 54" version="1.1" xmlns="http://www.w3.org/2000/svg" xmlns:xlink="http://www.w3.org/1999/xlink">
    <!-- Generator: Sketch 3.6.1 (26313) - http://www.bohemiancoding.com/sketch -->
    <title>ext();</title>
    <desc>Created with Sketch.</desc>
    <defs></defs>
    <g id="Page-1" stroke="none" stroke-width="1" fill="none" fill-rule="evenodd">
        <g id="ext" transform="translate(-5.000000, -2.000000)" fill="#333333">
            <path d="M20.292,16.904 C22.7120121,16.904 24.7139921,17.1349977 26.298,17.597 C27.8820079,18.0590023 29.1579952,18.7959949 30.126,19.808 C31.0940048,20.8200051 31.775998,22.1509918 32.172,23.801 C32.568002,25.4510083 32.766,27.4859879 32.766,29.906 C32.766,30.6540037 32.7440002,31.3029972 32.7,31.853 C32.6559998,32.4030027 32.6120002,32.8539982 32.568,33.206 C32.5239998,33.6460022 32.4800002,33.9759989 32.436,34.196 L16.134,34.196 C16.1780002,35.6920075 16.2659993,37.0449939 16.398,38.255 C16.5300007,39.465006 16.6619993,40.5099956 16.794,41.39 C16.9700009,42.4460053 17.1459991,43.369996 17.322,44.162 C17.4540007,44.2500004 17.6519987,44.3159998 17.916,44.36 C18.1360011,44.4040002 18.4549979,44.4369999 18.873,44.459 C19.2910021,44.4810001 19.8299967,44.492 20.49,44.492 C21.5900055,44.492 22.6349951,44.4150008 23.625,44.261 C24.6150049,44.1069992 25.4839963,43.8540018 26.232,43.502 C26.9800037,43.1499982 27.5629979,42.6550032 27.981,42.017 C28.3990021,41.3789968 28.608,40.5980046 28.608,39.674 L32.172,39.674 C32.172,41.5220092 31.7650041,42.9739947 30.951,44.03 C30.1369959,45.0860053 29.1250061,45.8889973 27.915,46.439 C26.704994,46.9890027 25.396007,47.3299993 23.988,47.462 C22.579993,47.5940007 21.2600062,47.66 20.028,47.66 C17.3439866,47.66 15.0670094,47.3850027 13.197,46.835 C11.3269907,46.2849973 9.80900583,45.405006 8.643,44.195 C7.47699417,42.984994 6.63000264,41.4010098 6.102,39.443 C5.57399736,37.4849902 5.31,35.0980141 5.31,32.282 C5.31,29.4659859 5.54099769,27.0790098 6.003,25.121 C6.46500231,23.1629902 7.26799428,21.579006 8.412,20.369 C9.55600572,19.158994 11.0849904,18.2790028 12.999,17.729 C14.9130096,17.1789972 17.3439853,16.904 20.292,16.904 L20.292,16.904 Z M17.322,20.27 C17.1019989,21.2380048 16.9040009,22.2939943 16.728,23.438 C16.5959993,24.4500051 16.4640007,25.6269933 16.332,26.969 C16.1999993,28.3110067 16.134,29.7739921 16.134,31.358 L22.536,31.358 C22.4479996,29.5099908 22.3380007,27.8930069 22.206,26.507 C22.0739993,25.1209931 21.9200009,23.9660046 21.744,23.042 C21.5679991,21.9419945 21.3700011,21.0180037 21.15,20.27 C21.0179993,20.2259998 20.8640009,20.1600004 20.688,20.072 C20.5119991,20.0279998 20.3030012,19.9840002 20.061,19.94 C19.8189988,19.8959998 19.5440015,19.874 19.236,19.874 C18.9279985,19.874 18.6640011,19.8959998 18.444,19.94 C18.2239989,19.9840002 18.0260009,20.0279998 17.85,20.072 C17.6739991,20.1600004 17.4980009,20.2259998 17.322,20.27 L17.322,20.27 Z M34.1519992,17.366 L47.5499992,17.366 L54.0839992,26.54 L57.9779992,20.732 L54.0179992,20.732 L54.0179992,17.366 L66.4259992,17.366 L66.4259992,20.732 L62.4659992,20.732 L56.3939992,29.708 L67.9439992,45.746 L67.9439992,47 L56.1299992,47 L48.2099992,35.648 L43.3259992,43.634 L47.4839992,43.634 L47.4839992,47 L34.6139992,47 L34.6139992,43.634 L38.8379992,43.634 L45.8339992,32.282 L37.7819992,20.732 L34.1519992,20.732 L34.1519992,17.366 Z M70.9799983,14.33 L81.4079983,11.492 L81.4079983,17.366 L89.3279983,17.366 L89.3279983,20.666 L81.4079983,20.666 L81.4079983,43.7 L82.7939983,43.7 C85.3460111,43.7 86.6219983,41.7640194 86.6219983,37.892 L89.9879983,37.892 C89.9879983,39.300007 89.9109991,40.5759943 89.7569983,41.72 C89.6029976,42.8640057 89.1850018,43.8539958 88.5029983,44.69 C87.8209949,45.5260042 86.8090051,46.1639978 85.4669983,46.604 C84.1249916,47.0440022 82.2660102,47.264 79.8899983,47.264 C78.2619902,47.264 76.8760041,47.0770019 75.7319983,46.703 C74.5879926,46.3289981 73.6640019,45.8340031 72.9599983,45.218 C72.2559948,44.6019969 71.7499999,43.9200037 71.4419983,43.172 C71.1339968,42.4239963 70.9799983,41.654004 70.9799983,40.862 L70.9799983,14.33 Z M110.645998,55.91 C107.565982,55.5579982 104.849009,54.678007 102.494998,53.27 C100.140986,51.861993 98.1610056,50.0030115 96.5549975,47.693 C94.9489895,45.3829884 93.7390016,42.6550157 92.9249975,39.509 C92.1109935,36.3629843 91.7039975,32.8760191 91.7039975,29.048 C91.7039975,25.2199809 92.1109935,21.7330157 92.9249975,18.587 C93.7390016,15.4409843 94.9489895,12.7020117 96.5549975,10.37 C98.1610056,8.03798834 100.140986,6.16800704 102.494998,4.76 C104.849009,3.35199296 107.565982,2.47200176 110.645998,2.12 L110.645998,6.146 C109.545992,6.32200088 108.600001,6.55299857 107.807998,6.839 C107.015994,7.12500143 106.356,7.42199846 105.827998,7.73 C105.211994,8.08200176 104.662,8.4779978 104.177998,8.918 C103.957996,11.0300106 103.759998,13.2299886 103.583998,15.518 C103.407997,17.4980099 103.264998,19.6649882 103.154998,22.019 C103.044997,24.3730118 102.989998,26.7159883 102.989998,29.048 C102.989998,31.3800117 103.044997,33.7339881 103.154998,36.11 C103.264998,38.4860119 103.407997,40.6419903 103.583998,42.578 C103.759998,44.8660114 103.957996,47.0439897 104.177998,49.112 C104.662,49.5520022 105.211994,49.9479982 105.827998,50.3 C106.356,50.6080015 107.015994,50.9159985 107.807998,51.224 C108.600001,51.5320015 109.545992,51.7519993 110.645998,51.884 L110.645998,55.91 Z M118.301997,51.884 C119.358002,51.7519993 120.292993,51.5320015 121.106997,51.224 C121.921001,50.9159985 122.591994,50.6080015 123.119997,50.3 C123.736,49.9479982 124.285994,49.5520022 124.769997,49.112 C124.989998,47.0439897 125.187996,44.8660114 125.363997,42.578 C125.495997,40.6419903 125.627996,38.4860119 125.759997,36.11 C125.891997,33.7339881 125.957997,31.3800117 125.957997,29.048 C125.957997,26.7159883 125.891997,24.3730118 125.759997,22.019 C125.627996,19.6649882 125.495997,17.4980099 125.363997,15.518 C125.187996,13.2299886 124.989998,11.0300106 124.769997,8.918 C124.285994,8.4779978 123.736,8.08200176 123.119997,7.73 C122.591994,7.42199846 121.921001,7.12500143 121.106997,6.839 C120.292993,6.55299857 119.358002,6.32200088 118.301997,6.146 L118.301997,2.12 C121.382012,2.47200176 124.098985,3.35199296 126.452997,4.76 C128.807008,6.16800704 130.786989,8.03798834 132.392997,10.37 C133.999005,12.7020117 135.208993,15.4409843 136.022997,18.587 C136.837001,21.7330157 137.243997,25.2199809 137.243997,29.048 C137.243997,32.8760191 136.837001,36.3629843 136.022997,39.509 C135.208993,42.6550157 133.999005,45.3829884 132.392997,47.693 C130.786989,50.0030115 128.807008,51.861993 126.452997,53.27 C124.098985,54.678007 121.382012,55.5579982 118.301997,55.91 L118.301997,51.884 Z M143.249996,22.646 C143.249996,20.6659901 143.667992,19.2140046 144.503996,18.29 C145.34,17.3659954 146.747986,16.904 148.727996,16.904 C150.840006,16.904 152.280992,17.3659954 153.050996,18.29 C153.821,19.2140046 154.205996,20.6659901 154.205996,22.646 C154.205996,24.6260099 153.788,26.0669955 152.951996,26.969 C152.115992,27.8710045 150.708006,28.322 148.727996,28.322 C146.747986,28.322 145.34,27.8710045 144.503996,26.969 C143.667992,26.0669955 143.249996,24.6260099 143.249996,22.646 L143.249996,22.646 Z M143.249996,42.908 C143.249996,40.9279901 143.667992,39.4760046 144.503996,38.552 C145.34,37.6279954 146.747986,37.166 148.727996,37.166 C150.840006,37.166 152.280992,37.6279954 153.050996,38.552 C153.821,39.4760046 154.205996,40.9279901 154.205996,42.908 C154.205996,45.2840119 154.139997,47.2529922 154.007996,48.815 C153.875995,50.3770078 153.512999,51.6419952 152.918996,52.61 C152.324993,53.5780048 151.401002,54.259998 150.146996,54.656 C148.89299,55.052002 147.122007,55.25 144.833996,55.25 L144.833996,52.082 L145.361996,52.082 C147.210005,52.082 148.529992,51.8400024 149.321996,51.356 C150.114,50.8719976 150.553995,49.8820075 150.641996,48.386 C150.025993,48.5180007 149.387999,48.584 148.727996,48.584 C146.747986,48.584 145.34,48.1330045 144.503996,47.231 C143.667992,46.3289955 143.249996,44.8880099 143.249996,42.908 L143.249996,42.908 Z" id="ext();"></path>
        </g>
    </g>
</svg>