<?xml version="1.0" encoding="UTF-8" standalone="no"?>
<svg width="290px" height="59px" viewBox="0 0 290 59" version="1.1" xmlns="http://www.w3.org/2000/svg" xmlns:xlink="http://www.w3.org/1999/xlink">
    <!-- Generator: Sketch 3.6.1 (26313) - http://www.bohemiancoding.com/sketch -->
    <title>framote</title>
    <desc>Created with Sketch.</desc>
    <defs></defs>
    <g id="Page-1" stroke="none" stroke-width="1" fill="none" fill-rule="evenodd">
        <g id="framote" fill="#333333">
            <path d="M8.778,50.974 L8.778,7.282 L30.756,7.282 L34.782,3.256 L4.752,3.256 L4.752,55 L8.778,50.974 Z M34.782,11.902 L30.756,7.876 L9.372,7.876 L9.372,28.204 L26.73,28.204 L30.756,24.178 L13.398,24.178 L13.398,11.902 L34.782,11.902 Z M13.398,32.824 L30.756,32.824 L26.73,28.798 L9.372,28.798 L9.372,50.974 L13.398,55 L13.398,32.824 Z M64.5479992,31.9 C62.6999992,30.382 60.3899992,29.458 57.8159992,29.392 L47.3219992,29.392 L47.3219992,50.974 L51.3479992,55 L51.3479992,33.484 L57.8159992,33.484 C59.5979992,33.484 61.1819992,34.21 62.3699992,35.332 C63.4919992,36.52 64.2179992,38.104 64.2179992,39.886 L64.2179992,55 L68.2439992,50.974 L68.2439992,39.886 C68.2439992,36.718 66.7919992,33.814 64.5479992,31.9 L64.5479992,31.9 Z M68.3759992,29.128 L68.4419992,29.062 C71.2139992,26.29 72.9299992,22.528 72.9299992,18.37 C72.9299992,14.146 71.2139992,10.384 68.4419992,7.678 C65.7359992,4.906 61.9739992,3.256 57.8159992,3.256 L42.7019992,3.256 L42.7019992,55 L46.7279992,50.974 L46.7279992,7.282 L57.8159992,7.282 C63.8879992,7.282 68.8379992,12.232 68.8379992,18.37 C68.8379992,21.67 67.3859992,24.64 65.0759992,26.686 C63.7559992,27.874 62.1059992,28.732 60.3239992,29.128 C62.1059992,29.524 63.7559992,30.448 65.0759992,31.57 C67.3859992,33.616 68.8379992,36.586 68.8379992,39.886 L68.8379992,50.974 L72.9299992,55 L72.9299992,39.886 C72.9299992,35.728 71.2139992,31.966 68.4419992,29.194 C68.4419992,29.194 68.3759992,29.194 68.3759992,29.128 L68.3759992,29.128 Z M64.5479992,26.356 C66.7919992,24.442 68.2439992,21.604 68.2439992,18.37 C68.2439992,12.562 63.5579992,7.876 57.8159992,7.876 L47.3219992,7.876 L47.3219992,21.868 L47.3219992,28.864 L51.3479992,28.864 L57.8159992,28.864 C60.3899992,28.864 62.6999992,27.94 64.5479992,26.356 L64.5479992,26.356 Z M51.3479992,11.902 L57.8159992,11.902 C59.5979992,11.902 61.1819992,12.628 62.3699992,13.816 C63.4919992,14.938 64.2179992,16.588 64.2179992,18.37 C64.2179992,20.152 63.4919992,21.736 62.3699992,22.924 C61.1819992,24.046 59.5979992,24.772 57.8159992,24.772 L51.3479992,24.772 L51.3479992,11.902 Z M122.363998,42.394 L118.337998,38.368 L111.341998,38.368 L117.083998,52.624 L122.363998,54.868 L117.281998,42.394 L122.363998,42.394 Z M91.8719983,37.774 L101.441998,14.014 L111.077998,37.774 L118.271998,37.774 L122.363998,33.748 L113.783998,33.748 L101.441998,3.19 L89.1659983,33.748 L80.5859983,33.748 L84.6779983,37.774 L91.8719983,37.774 Z M91.6079983,38.368 L84.6779983,38.368 L80.5859983,42.394 L85.6679983,42.394 L80.5859983,54.868 L85.8659983,52.624 L91.6079983,38.368 Z M101.441998,15.532 L92.4659983,37.774 L110.483998,37.774 L101.441998,15.532 Z M98.4719983,33.748 L101.441998,26.356 L104.477998,33.748 L98.4719983,33.748 Z M110.681998,38.368 L92.2679983,38.368 L86.3939983,52.822 L88.6379983,58.102 L94.9739983,42.394 L107.975998,42.394 L114.311998,58.102 L116.555998,52.822 L110.681998,38.368 Z M150.611998,34.276 L128.633998,3.256 L128.633998,55 L132.659998,50.974 L132.659998,15.928 L150.611998,41.272 L168.563998,15.928 L168.563998,50.974 L172.655998,55 L172.655998,3.256 L150.611998,34.276 Z M168.035998,50.974 L168.035998,17.776 L150.611998,42.262 L133.253998,17.776 L133.253998,50.974 L137.279998,55 L137.279998,30.448 L150.611998,49.258 L163.943998,30.448 L163.943998,55 L168.035998,50.974 Z M193.907997,7.81 C188.099997,7.81 183.413997,12.562 183.413997,18.304 L183.413997,39.886 C183.413997,45.694 188.099997,50.314 193.907997,50.38 C199.649997,50.314 204.335997,45.694 204.335997,39.886 L204.335997,18.304 C204.335997,12.562 199.649997,7.81 193.907997,7.81 L193.907997,7.81 Z M200.309997,39.886 C200.309997,41.668 199.583997,43.252 198.461997,44.44 C197.273997,45.628 195.689997,46.288 193.907997,46.288 C192.125997,46.288 190.475997,45.628 189.287997,44.44 C188.165997,43.252 187.439997,41.668 187.439997,39.886 L187.439997,18.304 C187.439997,16.522 188.165997,14.938 189.287997,13.75 C190.475997,12.628 192.125997,11.902 193.907997,11.902 C195.689997,11.902 197.273997,12.628 198.461997,13.75 C199.583997,14.938 200.309997,16.522 200.309997,18.304 L200.309997,39.886 Z M204.533997,7.612 C201.827997,4.906 198.065997,3.19 193.907997,3.19 C189.683997,3.19 185.921997,4.906 183.215997,7.612 C180.443997,10.384 178.793997,14.146 178.793997,18.304 L178.793997,39.886 C178.793997,44.044 180.443997,47.806 183.215997,50.578 C185.921997,53.284 189.683997,55 193.907997,55 C198.065997,55 201.827997,53.284 204.533997,50.578 C207.305997,47.806 209.021997,44.044 209.021997,39.886 L209.021997,18.304 C209.021997,14.146 207.305997,10.384 204.533997,7.612 L204.533997,7.612 Z M204.929997,39.886 C204.929997,45.958 199.979997,50.908 193.907997,50.908 C187.769997,50.908 182.819997,45.958 182.819997,39.886 L182.819997,18.304 C182.819997,12.232 187.769997,7.282 193.907997,7.282 C199.979997,7.282 204.929997,12.232 204.929997,18.304 L204.929997,39.886 Z M217.337996,3.256 L221.363996,7.282 L243.473996,7.282 L247.565996,3.256 L217.337996,3.256 Z M232.121996,50.974 L232.121996,7.876 L221.363996,7.876 L217.337996,11.902 L228.095996,11.902 L228.095996,55 L232.121996,50.974 Z M232.715996,7.876 L232.715996,50.974 L236.741996,55 L236.741996,11.902 L247.565996,11.902 L243.473996,7.876 L232.715996,7.876 Z M259.445995,50.908 L259.445995,7.282 L281.357995,7.282 L285.449995,3.19 L255.353995,3.19 L255.353995,55 L285.449995,55 L281.357995,50.908 L259.445995,50.908 Z M285.449995,11.902 L281.357995,7.81 L260.039995,7.81 L260.039995,28.138 L277.331995,28.138 L281.357995,24.112 L264.065995,24.112 L264.065995,11.902 L285.449995,11.902 Z M264.065995,32.758 L281.357995,32.758 L277.331995,28.732 L260.039995,28.732 L260.039995,50.38 L281.357995,50.38 L285.449995,46.288 L264.065995,46.288 L264.065995,32.758 Z" id="FRAMOTE"></path>
        </g>
    </g>
</svg>