<?xml version="1.0" encoding="UTF-8" standalone="no"?>
<svg width="290px" height="59px" viewBox="0 0 290 59" version="1.1" xmlns="http://www.w3.org/2000/svg" xmlns:xlink="http://www.w3.org/1999/xlink" xmlns:sketch="http://www.bohemiancoding.com/sketch/ns">
    <!-- Generator: Sketch 3.5.2 (25235) - http://www.bohemiancoding.com/sketch -->
    <title>localFont</title>
    <desc>Created with Sketch.</desc>
    <defs></defs>
    <g id="Page-1" stroke="none" stroke-width="1" fill="none" fill-rule="evenodd" sketch:type="MSPage">
        <g id="localFont" sketch:type="MSArtboardGroup" fill="#111111">
            <path d="M18.7734375,56 L1.86328125,56 L1.86328125,53.6796875 C2.40234645,53.6328123 2.97655945,53.5800784 3.5859375,53.5214844 C4.19531555,53.4628903 4.69921676,53.3750006 5.09765625,53.2578125 C5.75390953,53.0468739 6.24609211,52.677737 6.57421875,52.1503906 C6.90234539,51.6230442 7.06640625,50.9375042 7.06640625,50.09375 L7.06640625,9.9453125 C7.06640625,9.10155828 6.88476744,8.31055057 6.52148438,7.57226562 C6.15820131,6.83398068 5.68359668,6.25390836 5.09765625,5.83203125 C4.67577914,5.55077984 3.90234938,5.29296992 2.77734375,5.05859375 C1.65233812,4.82421758 0.750003398,4.68359398 0.0703125,4.63671875 L0.0703125,2.38671875 L13.1132812,1.578125 L13.6054688,2.10546875 L13.6054688,49.671875 C13.6054688,50.4921916 13.757811,51.166013 14.0625,51.6933594 C14.367189,52.2207058 14.8593716,52.6249986 15.5390625,52.90625 C16.0546901,53.1406262 16.5644506,53.3164057 17.0683594,53.4335938 C17.5722681,53.5507818 18.1406218,53.6328123 18.7734375,53.6796875 L18.7734375,56 Z M55.6179688,38.3164062 C55.6179688,40.7539184 55.2312539,43.1503788 54.4578125,45.5058594 C53.6843712,47.8613399 52.5828197,49.8593668 51.153125,51.5 C49.5359295,53.3750094 47.6609482,54.7695267 45.528125,55.6835938 C43.3953019,56.5976608 41.0047008,57.0546875 38.35625,57.0546875 C36.153114,57.0546875 34.0554788,56.638676 32.0632813,55.8066406 C30.0710838,54.9746052 28.3015703,53.7617267 26.7546875,52.1679688 C25.2312424,50.5976484 24.0183639,48.6816519 23.1160157,46.4199219 C22.2136674,44.1581918 21.7625,41.6211078 21.7625,38.8085938 C21.7625,33.3945042 23.3386562,28.964861 26.4910157,25.5195312 C29.6433752,22.0742015 33.7741933,20.3515625 38.8835938,20.3515625 C43.7351806,20.3515625 47.7370937,21.9863118 50.8894532,25.2558594 C54.0418127,28.525407 55.6179688,32.8788791 55.6179688,38.3164062 L55.6179688,38.3164062 Z M48.340625,38.3867188 C48.340625,36.6288975 48.1648456,34.7714942 47.8132813,32.8144531 C47.461717,30.8574121 46.9343786,29.1992255 46.23125,27.8398438 C45.4812463,26.3867115 44.4968811,25.2207075 43.278125,24.3417969 C42.059369,23.4628862 40.5711026,23.0234375 38.8132813,23.0234375 C37.0085848,23.0234375 35.4675846,23.4687455 34.1902344,24.359375 C32.9128843,25.2500045 31.8757853,26.4687423 31.0789063,28.015625 C30.3289025,29.4453196 29.8015641,31.0742096 29.496875,32.9023438 C29.192186,34.7304779 29.0398438,36.4999914 29.0398438,38.2109375 C29.0398438,40.4609488 29.2214826,42.5410061 29.5847657,44.4511719 C29.9480487,46.3613377 30.5281211,48.0663988 31.325,49.5664062 C32.121879,51.0664138 33.1238221,52.2441363 34.3308594,53.0996094 C35.5378967,53.9550824 37.0320224,54.3828125 38.8132813,54.3828125 C41.7429834,54.3828125 44.0632727,52.9648579 45.7742188,50.1289062 C47.4851649,47.2929546 48.340625,43.3789312 48.340625,38.3867188 L48.340625,38.3867188 Z M75.3765626,56.9140625 C70.3609125,56.9140625 66.4351705,55.2500166 63.5992188,51.921875 C60.7632672,48.5937334 59.3453126,44.1289343 59.3453126,38.5273438 C59.3453126,36.0898316 59.7261682,33.8105575 60.4878907,31.6894531 C61.2496133,29.5683488 62.3570241,27.6406337 63.8101563,25.90625 C65.1929758,24.2421792 66.9273334,22.9003957 69.0132813,21.8808594 C71.0992293,20.861323 73.372644,20.3515625 75.8335938,20.3515625 C79.2320483,20.3515625 81.9976457,21.1660075 84.1304688,22.7949219 C86.263292,24.4238363 87.3296876,26.6445172 87.3296876,29.4570312 C87.3296876,30.6289121 87.0484404,31.6660111 86.4859376,32.5683594 C85.9234348,33.4707076 84.9976628,33.921875 83.7085938,33.921875 C82.3257744,33.921875 81.2535195,33.570316 80.491797,32.8671875 C79.7300744,32.164059 79.3492188,31.3789106 79.3492188,30.5117188 C79.3492188,29.457026 79.4898424,28.3730524 79.7710938,27.2597656 C80.0523453,26.1464788 80.2164061,25.3320338 80.2632813,24.8164062 C79.8414042,24.0898401 79.2144574,23.6035169 78.382422,23.3574219 C77.5503866,23.1113269 76.6539112,22.9882812 75.6929688,22.9882812 C74.5679632,22.9882812 73.4957083,23.2285132 72.476172,23.7089844 C71.4566356,24.1894555 70.4664112,25.0742123 69.5054688,26.3632812 C68.638277,27.5351621 67.935159,29.1171775 67.3960938,31.109375 C66.8570287,33.1015725 66.5875001,35.4804549 66.5875001,38.2460938 C66.5875001,42.6054905 67.5542873,46.1620956 69.4878907,48.9160156 C71.4214941,51.6699356 73.9585781,53.046875 77.0992188,53.046875 C79.3726677,53.046875 81.2769455,52.4960993 82.8121095,51.3945312 C84.3472734,50.2929632 85.7710873,48.640636 87.0835938,46.4375 L89.3335938,47.9140625 C87.7867111,50.6797013 85.747669,52.8710857 83.2164063,54.4882812 C80.6851437,56.1054768 78.0718886,56.9140625 75.3765626,56.9140625 L75.3765626,56.9140625 Z M123.576563,55.3671875 C122.474995,55.765627 121.508207,56.0878894 120.676172,56.3339844 C119.844137,56.5800794 118.900787,56.703125 117.846094,56.703125 C116.01796,56.703125 114.55899,56.2753949 113.469141,55.4199219 C112.379292,54.5644488 111.682033,53.3164145 111.377344,51.6757812 L111.166406,51.6757812 C109.642961,53.3632897 108.008212,54.6523393 106.26211,55.5429688 C104.516007,56.4335982 102.412512,56.8789062 99.9515626,56.8789062 C97.3499871,56.8789062 95.2113366,56.0820392 93.535547,54.4882812 C91.8597574,52.8945233 91.0218751,50.8086066 91.0218751,48.2304688 C91.0218751,46.8945246 91.2093733,45.699224 91.5843751,44.6445312 C91.959377,43.5898385 92.5218714,42.6406292 93.2718751,41.796875 C93.8578156,41.0937465 94.6312453,40.4667996 95.5921876,39.9160156 C96.5531299,39.3652316 97.4554647,38.9257829 98.2992189,38.5976562 C99.3539117,38.1992168 101.492562,37.4609429 104.715235,36.3828125 C107.937907,35.3046821 110.111713,34.4609405 111.236719,33.8515625 L111.236719,30.3710938 C111.236719,30.0664047 111.172266,29.4804731 111.04336,28.6132812 C110.914453,27.7460894 110.639065,26.9257851 110.217188,26.1523438 C109.748435,25.2851519 109.086333,24.5293001 108.23086,23.8847656 C107.375386,23.2402312 106.162508,22.9179688 104.592188,22.9179688 C103.514057,22.9179688 102.512114,23.0996076 101.586328,23.4628906 C100.660542,23.8261737 100.010158,24.2070293 99.6351564,24.6054688 C99.6351564,25.0742211 99.7464834,25.7656204 99.9691408,26.6796875 C100.191798,27.5937546 100.303125,28.4374961 100.303125,29.2109375 C100.303125,30.0312541 99.9339882,30.7812466 99.1957033,31.4609375 C98.4574183,32.1406284 97.432038,32.4804688 96.1195314,32.4804688 C94.9476505,32.4804688 94.086331,32.0644573 93.535547,31.2324219 C92.984763,30.4003865 92.7093751,29.4687552 92.7093751,28.4375 C92.7093751,27.3593696 93.0902307,26.3281299 93.8519533,25.34375 C94.6136758,24.3593701 95.6039003,23.4804726 96.8226564,22.7070312 C97.8773492,22.050778 99.1546801,21.4941429 100.654688,21.0371094 C102.154695,20.5800758 103.619524,20.3515625 105.049219,20.3515625 C107.017979,20.3515625 108.734758,20.4863268 110.19961,20.7558594 C111.664461,21.025392 112.994525,21.6054643 114.189844,22.4960938 C115.385162,23.3632856 116.293356,24.5410082 116.914453,26.0292969 C117.53555,27.5175856 117.846094,29.433582 117.846094,31.7773438 C117.846094,35.128923 117.810938,38.0995964 117.740625,40.6894531 C117.670312,43.2793098 117.635156,46.1093596 117.635156,49.1796875 C117.635156,50.0937546 117.793358,50.8203098 118.109766,51.359375 C118.426174,51.8984402 118.912497,52.3554669 119.56875,52.7304688 C119.920314,52.9414073 120.476949,53.0585936 121.238672,53.0820312 C122.000395,53.1054689 122.779684,53.1171875 123.576563,53.1171875 L123.576563,55.3671875 Z M111.307031,36.8046875 C109.314834,37.3906279 107.568758,37.9648409 106.06875,38.5273438 C104.568743,39.0898466 103.174225,39.7929645 101.885156,40.6367188 C100.713276,41.4335977 99.7875035,42.3769477 99.1078126,43.4667969 C98.4281217,44.5566461 98.0882814,45.851555 98.0882814,47.3515625 C98.0882814,49.2968847 98.5980419,50.7265579 99.6175783,51.640625 C100.637115,52.5546921 101.932024,53.0117188 103.502344,53.0117188 C105.166415,53.0117188 106.631244,52.6074259 107.896875,51.7988281 C109.162506,50.9902303 110.228902,50.0351618 111.096094,48.9335938 L111.307031,36.8046875 Z M141.964063,56 L125.053906,56 L125.053906,53.6796875 C125.592972,53.6328123 126.167185,53.5800784 126.776563,53.5214844 C127.385941,53.4628903 127.889842,53.3750006 128.288281,53.2578125 C128.944535,53.0468739 129.436717,52.677737 129.764844,52.1503906 C130.092971,51.6230442 130.257031,50.9375042 130.257031,50.09375 L130.257031,9.9453125 C130.257031,9.10155828 130.075393,8.31055057 129.71211,7.57226562 C129.348826,6.83398068 128.874222,6.25390836 128.288281,5.83203125 C127.866404,5.55077984 127.092975,5.29296992 125.967969,5.05859375 C124.842963,4.82421758 123.940629,4.68359398 123.260938,4.63671875 L123.260938,2.38671875 L136.303906,1.578125 L136.796094,2.10546875 L136.796094,49.671875 C136.796094,50.4921916 136.948436,51.166013 137.253125,51.6933594 C137.557814,52.2207058 138.049997,52.6249986 138.729688,52.90625 C139.245315,53.1406262 139.755076,53.3164057 140.258985,53.4335938 C140.762893,53.5507818 141.331247,53.6328123 141.964063,53.6796875 L141.964063,56 Z M184.644531,18.59375 L182.007813,18.59375 C181.515623,16.7421782 180.490242,14.7617293 178.931641,12.6523438 C177.373039,10.5429582 175.878914,9.38281355 174.449219,9.171875 C173.722653,9.07812453 172.861333,9.00781273 171.865235,8.9609375 C170.869136,8.91406227 169.738288,8.890625 168.472656,8.890625 L160.105469,8.890625 L160.105469,28.9296875 L165.835938,28.9296875 C167.570321,28.9296875 168.917964,28.7480487 169.878906,28.3847656 C170.839849,28.0214826 171.660153,27.4648475 172.339844,26.7148438 C172.808596,26.1992162 173.236326,25.3964898 173.623047,24.3066406 C174.009768,23.2167914 174.261718,22.0507875 174.378906,20.8085938 L177.050781,20.8085938 L177.050781,40.390625 L174.378906,40.390625 C174.308594,39.3593698 174.068362,38.1875066 173.658203,36.875 C173.248045,35.5624934 172.808596,34.6132842 172.339844,34.0273438 C171.636715,33.1601519 170.751959,32.568361 169.685547,32.2519531 C168.619136,31.9355453 167.335945,31.7773438 165.835938,31.7773438 L160.105469,31.7773438 L160.105469,48.96875 C160.105469,49.7421914 160.257811,50.4335907 160.5625,51.0429688 C160.867189,51.6523468 161.406246,52.1445294 162.179688,52.5195312 C162.531252,52.6835946 163.292963,52.8828113 164.464844,53.1171875 C165.636725,53.3515637 166.527341,53.4804686 167.136719,53.5039062 L167.136719,56 L145.515625,56 L145.515625,53.5039062 C146.218754,53.457031 147.156244,53.3808599 148.328125,53.2753906 C149.500006,53.1699213 150.261717,53.0351571 150.613281,52.8710938 C151.31641,52.5664047 151.826171,52.1152374 152.142578,51.5175781 C152.458986,50.9199189 152.617188,50.199223 152.617188,49.3554688 L152.617188,13.3554688 C152.617188,12.5820274 152.488283,11.8964874 152.230469,11.2988281 C151.972655,10.7011689 151.433598,10.2148456 150.613281,9.83984375 C149.980466,9.53515473 149.130865,9.26562617 148.064453,9.03125 C146.998042,8.79687383 146.148441,8.65625023 145.515625,8.609375 L145.515625,6.11328125 L184.644531,6.11328125 L184.644531,18.59375 Z M220.645313,38.3164062 C220.645313,40.7539184 220.258598,43.1503788 219.485157,45.5058594 C218.711715,47.8613399 217.610164,49.8593668 216.180469,51.5 C214.563273,53.3750094 212.688292,54.7695267 210.555469,55.6835938 C208.422646,56.5976608 206.032045,57.0546875 203.383594,57.0546875 C201.180458,57.0546875 199.082823,56.638676 197.090625,55.8066406 C195.098428,54.9746052 193.328914,53.7617267 191.782032,52.1679688 C190.258586,50.5976484 189.045708,48.6816519 188.14336,46.4199219 C187.241011,44.1581918 186.789844,41.6211078 186.789844,38.8085938 C186.789844,33.3945042 188.366,28.964861 191.51836,25.5195312 C194.670719,22.0742015 198.801537,20.3515625 203.910938,20.3515625 C208.762525,20.3515625 212.764438,21.9863118 215.916797,25.2558594 C219.069157,28.525407 220.645313,32.8788791 220.645313,38.3164062 L220.645313,38.3164062 Z M213.367969,38.3867188 C213.367969,36.6288975 213.19219,34.7714942 212.840625,32.8144531 C212.489061,30.8574121 211.961723,29.1992255 211.258594,27.8398438 C210.50859,26.3867115 209.524225,25.2207075 208.305469,24.3417969 C207.086713,23.4628862 205.598447,23.0234375 203.840625,23.0234375 C202.035929,23.0234375 200.494929,23.4687455 199.217578,24.359375 C197.940228,25.2500045 196.903129,26.4687423 196.10625,28.015625 C195.356247,29.4453196 194.828908,31.0742096 194.524219,32.9023438 C194.21953,34.7304779 194.067188,36.4999914 194.067188,38.2109375 C194.067188,40.4609488 194.248827,42.5410061 194.61211,44.4511719 C194.975393,46.3613377 195.555465,48.0663988 196.352344,49.5664062 C197.149223,51.0664138 198.151166,52.2441363 199.358203,53.0996094 C200.565241,53.9550824 202.059366,54.3828125 203.840625,54.3828125 C206.770327,54.3828125 209.090617,52.9648579 210.801563,50.1289062 C212.512509,47.2929546 213.367969,43.3789312 213.367969,38.3867188 L213.367969,38.3867188 Z M262.657813,56 L245.677344,56 L245.677344,53.6796875 C246.216409,53.6328123 246.8082,53.5859377 247.452735,53.5390625 C248.097269,53.4921873 248.630467,53.3984382 249.052344,53.2578125 C249.708597,53.0468739 250.194921,52.677737 250.511328,52.1503906 C250.827736,51.6230442 250.985938,50.9375042 250.985938,50.09375 L250.985938,32.2695312 C250.985938,29.8085814 250.405866,27.9101629 249.245703,26.5742188 C248.085541,25.2382746 246.673446,24.5703125 245.009375,24.5703125 C243.767182,24.5703125 242.630474,24.7636699 241.599219,25.1503906 C240.567964,25.5371113 239.653911,26.0117159 238.857032,26.5742188 C238.08359,27.1132839 237.468362,27.6933563 237.011328,28.3144531 C236.554295,28.93555 236.220314,29.4335919 236.009375,29.8085938 L236.009375,49.7421875 C236.009375,50.5390665 236.173436,51.1953099 236.501563,51.7109375 C236.829689,52.2265651 237.321872,52.6249986 237.978125,52.90625 C238.470315,53.1406262 239.003513,53.3164057 239.577735,53.4335938 C240.151956,53.5507818 240.743747,53.6328123 241.353125,53.6796875 L241.353125,56 L224.372657,56 L224.372657,53.6796875 C224.911722,53.6328123 225.468357,53.5859377 226.042578,53.5390625 C226.6168,53.4921873 227.114842,53.3984382 227.536719,53.2578125 C228.192972,53.0468739 228.679296,52.677737 228.995703,52.1503906 C229.312111,51.6230442 229.470313,50.9375042 229.470313,50.09375 L229.470313,28.6835938 C229.470313,27.8867148 229.300393,27.1543002 228.960547,26.4863281 C228.620702,25.818356 228.146097,25.2734396 227.536719,24.8515625 C227.091404,24.5703111 226.564066,24.365235 225.954688,24.2363281 C225.34531,24.1074212 224.689066,24.0195315 223.985938,23.9726562 L223.985938,21.6875 L235.517188,20.9140625 L236.009375,21.40625 L236.009375,26.2929688 L236.185157,26.2929688 C236.747659,25.7304659 237.450777,25.0566446 238.294532,24.2714844 C239.138286,23.4863242 239.935153,22.8476587 240.685157,22.3554688 C241.552348,21.7929659 242.583588,21.3242206 243.778907,20.9492188 C244.974225,20.5742169 246.321868,20.3867188 247.821875,20.3867188 C251.150017,20.3867188 253.616789,21.4238178 255.222266,23.4980469 C256.827743,25.572276 257.630469,28.332014 257.630469,31.7773438 L257.630469,49.8125 C257.630469,50.6328166 257.771093,51.2949194 258.052344,51.7988281 C258.333595,52.3027369 258.814059,52.6953111 259.49375,52.9765625 C260.056253,53.2109387 260.542576,53.3749995 260.952735,53.46875 C261.362893,53.5625005 261.931247,53.6328123 262.657813,53.6796875 L262.657813,56 Z M287.021875,54.4882812 C285.49843,55.1210969 284.057038,55.6542947 282.697657,56.0878906 C281.338275,56.5214865 279.674229,56.7382812 277.705469,56.7382812 C274.799205,56.7382812 272.754303,56.0058667 271.570704,54.5410156 C270.387104,53.0761646 269.795313,51.0078259 269.795313,48.3359375 L269.795313,24.8515625 L263.5375,24.8515625 L263.5375,21.4765625 L269.935938,21.4765625 L269.935938,10.6835938 L276.334375,10.6835938 L276.334375,21.4765625 L286.283594,21.4765625 L286.283594,24.8515625 L276.404688,24.8515625 L276.404688,44.2226562 C276.404688,45.6757885 276.457422,46.888667 276.562891,47.8613281 C276.66836,48.8339892 276.920311,49.6835901 277.31875,50.4101562 C277.693752,51.0898471 278.256247,51.605467 279.00625,51.9570312 C279.756254,52.3085955 280.764057,52.484375 282.029688,52.484375 C282.615628,52.484375 283.476948,52.4316412 284.613672,52.3261719 C285.750397,52.2207026 286.553123,52.0859383 287.021875,51.921875 L287.021875,54.4882812 Z" sketch:type="MSShapeGroup"></path>
        </g>
    </g>
</svg>