<?xml version="1.0" encoding="UTF-8" standalone="no"?>
<svg width="274px" height="59px" viewBox="0 0 274 59" version="1.1" xmlns="http://www.w3.org/2000/svg" xmlns:xlink="http://www.w3.org/1999/xlink">
    <!-- Generator: Sketch 3.6.1 (26313) - http://www.bohemiancoding.com/sketch -->
    <title>paraxify</title>
    <desc>Created with Sketch.</desc>
    <defs></defs>
    <g id="Page-1" stroke="none" stroke-width="1" fill="none" fill-rule="evenodd">
        <g id="paraxify" fill="#333333">
            <path d="M23.6623535,11.3227539 C22.5004011,10.3816685 20.8727318,9.91113281 18.7792969,9.91113281 L10.5112305,9.91113281 L10.5112305,22.4140625 L18.7792969,22.4140625 C20.8727318,22.4140625 22.5004011,21.9051158 23.6623535,20.887207 C24.8243059,19.8692983 25.4052734,18.2560332 25.4052734,16.0473633 C25.4052734,13.8386934 24.8243059,12.2638393 23.6623535,11.3227539 L23.6623535,11.3227539 Z M30.3891602,26.6201172 C27.8539912,28.6943463 24.2337475,29.7314453 19.5283203,29.7314453 L10.5112305,29.7314453 L10.5112305,45 L1.69580078,45 L1.69580078,2.53613281 L20.190918,2.53613281 C24.4546112,2.53613281 27.8539912,3.63084843 30.3891602,5.8203125 C32.9243291,8.00977657 34.1918945,11.3995539 34.1918945,15.9897461 C34.1918945,21.0024665 32.9243291,24.5458881 30.3891602,26.6201172 L30.3891602,26.6201172 Z M56.0820464,29.7314453 C55.5634891,30.0579443 55.0401382,30.3220205 54.511978,30.5236816 C53.9838178,30.7253428 53.2588088,30.9125968 52.3369292,31.0854492 L50.4931792,31.4311523 C48.7646549,31.7384455 47.5258978,32.1129535 46.7768706,32.5546875 C45.5092861,33.3037147 44.8755034,34.4656497 44.8755034,36.0405273 C44.8755034,37.4425526 45.2644155,38.4556447 46.0422515,39.079834 C46.8200874,39.7040233 47.7659601,40.0161133 48.879898,40.0161133 C50.6468339,40.0161133 52.2745031,39.4975638 53.7629546,38.4604492 C55.251406,37.4233347 56.0244289,35.5315893 56.0820464,32.7851562 L56.0820464,29.7314453 Z M51.0981597,25.8999023 C52.6154199,25.7078441 53.7005327,25.4677749 54.3535308,25.1796875 C55.5250861,24.680336 56.110855,23.9025118 56.110855,22.8461914 C56.110855,21.5594011 55.6643262,20.671145 54.7712554,20.1813965 C53.8781845,19.6916479 52.5674066,19.4467773 50.8388823,19.4467773 C48.899094,19.4467773 47.5258981,19.9269158 46.7192534,20.887207 C46.1430787,21.5978226 45.7589679,22.5580994 45.5669097,23.7680664 L37.6445464,23.7680664 C37.8173988,21.0216334 38.5856203,18.7649828 39.9492339,16.9980469 C42.1194921,14.232408 45.8453663,12.8496094 51.1269683,12.8496094 C54.564811,12.8496094 57.6184914,13.5314059 60.2881011,14.8950195 C62.9577108,16.2586331 64.2924956,18.8321751 64.2924956,22.6157227 L64.2924956,37.0200195 C64.2924956,38.0187224 64.3117011,39.2286713 64.3501128,40.6499023 C64.4077303,41.7254286 64.5709773,42.455239 64.8398589,42.8393555 C65.1087404,43.223472 65.5120567,43.5403633 66.0498198,43.7900391 L66.0498198,45 L57.1191558,45 C56.86948,44.3662078 56.6966302,43.7708361 56.6006011,43.2138672 C56.504572,42.6568983 56.4277498,42.0231155 56.3701323,41.3125 C55.2369886,42.5416728 53.9310121,43.5883746 52.4521636,44.4526367 C50.6852277,45.4705455 48.6878518,45.9794922 46.4599761,45.9794922 C43.6175139,45.9794922 41.269637,45.1680582 39.4162749,43.545166 C37.5629128,41.9222738 36.6362456,39.6224107 36.6362456,36.6455078 C36.6362456,32.7851369 38.1246747,29.9907313 41.1015776,28.262207 C42.7340728,27.3211216 45.1347649,26.6489278 48.3037261,26.2456055 L51.0981597,25.8999023 Z M87.6086729,12.8640137 C87.7143049,12.8736166 87.9495727,12.8880207 88.3144834,12.9072266 L88.3144834,21.3193359 C87.7959261,21.2617185 87.3349932,21.2233074 86.9316709,21.2041016 C86.5283486,21.1848957 86.2018544,21.175293 85.9521787,21.175293 C82.6487768,21.175293 80.4305372,22.250803 79.2973936,24.4018555 C78.6636013,25.6118225 78.34671,27.4747596 78.34671,29.9907227 L78.34671,45 L70.0786436,45 L70.0786436,13.5986328 L77.9145811,13.5986328 L77.9145811,19.0722656 C79.1821655,16.9788307 80.2864839,15.5480182 81.2275693,14.7797852 C82.7640354,13.4929949 84.7614112,12.8496094 87.2197568,12.8496094 C87.3734034,12.8496094 87.5030408,12.8544108 87.6086729,12.8640137 L87.6086729,12.8640137 Z M109.023483,29.7314453 C108.504926,30.0579443 107.981575,30.3220205 107.453415,30.5236816 C106.925254,30.7253428 106.200245,30.9125968 105.278366,31.0854492 L103.434616,31.4311523 C101.706091,31.7384455 100.467334,32.1129535 99.7183071,32.5546875 C98.4507227,33.3037147 97.8169399,34.4656497 97.8169399,36.0405273 C97.8169399,37.4425526 98.2058521,38.4556447 98.983688,39.079834 C99.7615239,39.7040233 100.707397,40.0161133 101.821334,40.0161133 C103.58827,40.0161133 105.21594,39.4975638 106.704391,38.4604492 C108.192843,37.4233347 108.965865,35.5315893 109.023483,32.7851562 L109.023483,29.7314453 Z M104.039596,25.8999023 C105.556856,25.7078441 106.641969,25.4677749 107.294967,25.1796875 C108.466523,24.680336 109.052292,23.9025118 109.052292,22.8461914 C109.052292,21.5594011 108.605763,20.671145 107.712692,20.1813965 C106.819621,19.6916479 105.508843,19.4467773 103.780319,19.4467773 C101.840531,19.4467773 100.467335,19.9269158 99.6606899,20.887207 C99.0845152,21.5978226 98.7004045,22.5580994 98.5083462,23.7680664 L90.5859829,23.7680664 C90.7588353,21.0216334 91.5270568,18.7649828 92.8906704,16.9980469 C95.0609287,14.232408 98.7868029,12.8496094 104.068405,12.8496094 C107.506248,12.8496094 110.559928,13.5314059 113.229538,14.8950195 C115.899147,16.2586331 117.233932,18.8321751 117.233932,22.6157227 L117.233932,37.0200195 C117.233932,38.0187224 117.253138,39.2286713 117.291549,40.6499023 C117.349167,41.7254286 117.512414,42.455239 117.781295,42.8393555 C118.050177,43.223472 118.453493,43.5403633 118.991256,43.7900391 L118.991256,45 L110.060592,45 C109.810917,44.3662078 109.638067,43.7708361 109.542038,43.2138672 C109.446008,42.6568983 109.369186,42.0231155 109.311569,41.3125 C108.178425,42.5416728 106.872449,43.5883746 105.3936,44.4526367 C103.626664,45.4705455 101.629288,45.9794922 99.4014126,45.9794922 C96.5589505,45.9794922 94.2110736,45.1680582 92.3577114,43.545166 C90.5043493,41.9222738 89.5776821,39.6224107 89.5776821,36.6455078 C89.5776821,32.7851369 91.0661113,29.9907313 94.0430142,28.262207 C95.6755093,27.3211216 98.0762014,26.6489278 101.245163,26.2456055 L104.039596,25.8999023 Z M120.023986,45 L130.740783,29.0976562 L120.484924,13.65625 L130.539123,13.65625 L135.782287,22.7597656 L140.910217,13.65625 L150.67633,13.65625 L140.362854,28.9536133 L151.07965,45 L140.8526,45 L135.436584,35.5795898 L129.99176,45 L120.023986,45 Z M162.944412,9.85351562 L154.618728,9.85351562 L154.618728,2.27685547 L162.944412,2.27685547 L162.944412,9.85351562 Z M154.618728,13.5986328 L162.944412,13.5986328 L162.944412,45 L154.618728,45 L154.618728,13.5986328 Z M182.472259,2.1472168 C182.894787,2.17602553 183.470953,2.21923799 184.200774,2.27685547 L184.200774,8.96044922 C183.739835,8.90283174 182.966812,8.85961928 181.881683,8.83081055 C180.796554,8.80200181 180.047538,9.04207102 179.634612,9.55102539 C179.221687,10.0599798 179.015228,10.6217417 179.015228,11.2363281 L179.015228,13.8867188 L184.402435,13.8867188 L184.402435,19.6772461 L179.015228,19.6772461 L179.015228,45 L170.833587,45 L170.833587,19.6772461 L166.253021,19.6772461 L166.253021,13.8867188 L170.747161,13.8867188 L170.747161,11.8701172 C170.747161,8.50909778 171.313724,6.19483056 172.446868,4.92724609 C173.637629,3.04507522 176.508857,2.10400391 181.060638,2.10400391 C181.579195,2.10400391 182.049731,2.11840806 182.472259,2.1472168 L182.472259,2.1472168 Z M188.978622,51.0209961 L190.015731,51.0786133 C190.822376,51.1170249 191.590597,51.0882166 192.320418,50.9921875 C193.05024,50.8961584 193.664817,50.6752947 194.164168,50.3295898 C194.644314,50.0030908 195.090843,49.3212942 195.503768,48.2841797 C195.916693,47.2470651 196.084742,46.6132824 196.007918,46.3828125 L184.484481,13.5986328 L193.616805,13.5986328 L200.473251,36.7607422 L206.955184,13.5986328 L215.684188,13.5986328 L204.909774,44.4814453 C202.835545,50.4352511 201.193471,54.1275156 199.983504,55.5583496 C198.773537,56.9891836 196.35364,57.7045898 192.723739,57.7045898 C191.993917,57.7045898 191.408149,57.6997885 190.966415,57.6901855 C190.524681,57.6805826 189.86209,57.6469729 188.978622,57.5893555 L188.978622,51.0209961 Z M214.613891,36.4150391 L223.342895,36.4150391 L223.342895,45 L214.613891,45 L214.613891,36.4150391 Z M238.318984,9.85351562 L230.108535,9.85351562 L230.108535,2.27685547 L238.318984,2.27685547 L238.318984,9.85351562 Z M226.161757,51.0209961 C226.622697,51.0594077 226.949191,51.0834147 227.14125,51.0930176 C227.333308,51.1026205 227.506158,51.1074219 227.659804,51.1074219 C228.466449,51.1074219 229.076225,50.9105651 229.48915,50.5168457 C229.902075,50.1231263 230.108535,49.3597062 230.108535,48.2265625 L230.108535,13.7426758 L238.318984,13.7426758 L238.318984,48.3706055 C238.318984,51.5395666 237.694804,53.8826422 236.446425,55.3999023 C235.198047,56.9171625 232.749341,57.6757812 229.100234,57.6757812 C228.850558,57.6757812 228.480852,57.6661785 227.991103,57.6469727 C227.501355,57.6277668 226.891579,57.6085613 226.161757,57.5893555 L226.161757,51.0209961 Z M251.10562,34.9746094 C251.278473,36.4342521 251.652981,37.4713511 252.229155,38.0859375 C253.247064,39.1806695 255.129207,39.7280273 257.87564,39.7280273 C259.488929,39.7280273 260.770899,39.4879581 261.721587,39.0078125 C262.672275,38.5276669 263.147612,37.8074592 263.147612,36.847168 C263.147612,35.9252884 262.763502,35.2242863 261.995269,34.7441406 C261.227036,34.263995 258.375013,33.4381569 253.439116,32.2666016 C249.886039,31.3831336 247.379716,30.2788152 245.920073,28.9536133 C244.460431,27.6476172 243.73062,25.7654745 243.73062,23.3071289 C243.73062,20.4070493 244.868548,17.9151309 247.144439,15.8312988 C249.420329,13.7474668 252.622852,12.7055664 256.752105,12.7055664 C260.670093,12.7055664 263.863013,13.488192 266.330962,15.0534668 C268.79891,16.6187416 270.215319,19.3219209 270.58023,23.1630859 L262.36978,23.1630859 C262.254545,22.1067656 261.95686,21.2713247 261.476714,20.6567383 C260.57404,19.5428004 259.037597,18.9858398 256.867339,18.9858398 C255.081197,18.9858398 253.80883,19.2643201 253.0502,19.8212891 C252.29157,20.378258 251.912261,21.0312463 251.912261,21.7802734 C251.912261,22.7213589 252.315577,23.4031554 253.122222,23.8256836 C253.928866,24.2674176 256.780889,25.0260363 261.678374,26.1015625 C264.943364,26.8697955 267.39207,28.0317305 269.024565,29.5874023 C270.637855,31.16228 271.444487,33.1308476 271.444487,35.4931641 C271.444487,38.6045077 270.287354,41.14444 267.973052,43.1130371 C265.65875,45.0816342 262.081719,46.065918 257.241851,46.065918 C252.305954,46.065918 248.661703,45.0240176 246.308989,42.9401855 C243.956276,40.8563535 242.779937,38.201188 242.779937,34.9746094 L251.10562,34.9746094 Z" id="Paraxify.js"></path>
        </g>
    </g>
</svg>