<?xml version="1.0" encoding="UTF-8" standalone="no"?>
<svg width="290px" height="140px" viewBox="0 0 290 140" version="1.1" xmlns="http://www.w3.org/2000/svg" xmlns:xlink="http://www.w3.org/1999/xlink">
    <!-- Generator: Sketch 3.6.1 (26313) - http://www.bohemiancoding.com/sketch -->
    <title>Artboard 2</title>
    <desc>Created with Sketch.</desc>
    <defs></defs>
    <g id="Page-1" stroke="none" stroke-width="1" fill="none" fill-rule="evenodd">
        <g id="Artboard-2" fill="#333333">
            <g id="Group" transform="translate(-1.000000, 2.000000)">
                <path d="M48,3.498 L48,1.356 L83.581,1.356 L83.581,3.498 L76.084,3.498 L90.364,43.006 L103.216,3.498 L95.243,3.498 L95.243,1.356 L111.308,1.356 L111.308,3.498 L106.072,3.498 L88.46,58 L74.894,58 L52.879,3.498 L48,3.498 Z M135.33939,30.035 L138.79039,30.035 L138.79039,20.872 C138.79039,13.3352956 138.373894,8.27784622 137.54089,5.6995 C136.707886,3.12115377 135.101402,1.832 132.72139,1.832 C131.293383,1.832 130.004229,2.20882957 128.85389,2.9625 C127.703551,3.71617043 127.12839,4.74749345 127.12839,6.0565 C127.12839,7.36550655 127.366388,8.69432659 127.84239,10.043 L130.81739,10.043 C131.45206,11.7090083 131.76939,13.712155 131.76939,16.0525 C131.76939,18.392845 130.777733,20.4158248 128.79439,22.1215 C126.811047,23.8271752 124.312072,24.68 121.29739,24.68 C114.474689,24.68 111.06339,21.3876996 111.06339,14.803 C111.06339,5.04495121 119.35364,0.166 135.93439,0.166 C145.375104,0.166 151.900205,1.77248393 155.50989,4.9855 C159.119575,8.19851607 160.92439,14.0889572 160.92439,22.657 L160.92439,46.814 C160.92439,50.939354 162.074712,53.002 164.37539,53.002 C167.072737,53.002 168.659388,48.9163742 169.13539,40.745 L170.92039,40.864 C170.603055,47.8453682 169.294068,52.6449869 166.99339,55.263 C164.692712,57.8810131 160.924416,59.19 155.68839,59.19 C146.168342,59.19 140.694397,56.254696 139.26639,50.384 C138.235051,53.3986817 136.688067,55.6199929 134.62539,57.048 C132.562713,58.4760071 129.548076,59.19 125.58139,59.19 C113.839998,59.19 107.96939,54.3903813 107.96939,44.791 C107.96939,39.1583052 110.210534,35.2908438 114.69289,33.1885 C119.175246,31.0861562 126.057343,30.035 135.33939,30.035 L135.33939,30.035 Z M131.23389,52.645 C131.670225,53.8350059 132.503217,54.43 133.73289,54.43 C134.962563,54.43 136.112885,53.4185101 137.18389,51.3955 C138.254895,49.3724899 138.79039,46.5760178 138.79039,43.006 L138.79039,31.939 L137.95739,31.939 C133.038699,31.939 130.57939,35.5486306 130.57939,42.768 L130.57939,44.672 C130.57939,48.797354 130.797554,51.454994 131.23389,52.645 L131.23389,52.645 Z M209.70778,4.688 C206.772432,4.688 204.194124,6.59198096 201.97278,10.4 C199.751435,14.208019 198.64078,18.7299738 198.64078,23.966 L198.64078,55.858 L207.08978,55.858 L207.08978,58 L169.96178,58 L169.96178,55.858 L176.50678,55.858 L176.50678,3.498 L169.96178,3.498 L169.96178,1.356 L198.64078,1.356 L198.64078,12.78 C199.672118,8.73397977 201.655432,5.62017757 204.59078,3.4385 C207.526128,1.25682242 210.858094,0.166 214.58678,0.166 C218.315465,0.166 221.349935,1.21715615 223.69028,3.3195 C226.030625,5.42184384 227.20078,8.39681409 227.20078,12.2445 C227.20078,16.0921859 226.328122,19.047323 224.58278,21.11 C222.837438,23.172677 220.159964,24.204 216.55028,24.204 C212.940595,24.204 210.282955,23.0140119 208.57728,20.634 C206.871605,18.2539881 206.65344,14.9616877 207.92278,10.757 L212.20678,10.757 C214.190123,6.71097977 213.357131,4.688 209.70778,4.688 L209.70778,4.688 Z M224.33817,3.498 L224.33817,1.356 L258.84817,1.356 L258.84817,3.498 L252.42217,3.498 L265.39317,43.006 L279.19717,3.498 L271.22417,3.498 L271.22417,1.356 L288.00317,1.356 L288.00317,3.498 L282.05317,3.498 L259.80017,67.639 C257.182157,75.0963706 254.246853,80.3124851 250.99417,83.2875 C247.741487,86.2625149 243.77486,87.75 239.09417,87.75 C234.41348,87.75 230.724516,86.6790107 228.02717,84.537 C225.329823,82.3949893 223.98117,79.6580167 223.98117,76.326 C223.98117,72.9939833 224.853828,70.4553421 226.59917,68.71 C228.344512,66.9646579 230.645155,66.092 233.50117,66.092 C240.085869,66.092 243.37817,68.8289726 243.37817,74.303 C243.37817,75.4930059 243.140172,76.9209917 242.66417,78.587 L238.49917,78.587 C237.8645,80.4116758 237.785167,81.9189941 238.26117,83.109 C238.737172,84.299006 239.808161,84.894 241.47417,84.894 C244.726853,84.894 247.62249,83.2875161 250.16117,80.0745 C252.699849,76.8614839 255.119491,71.9626996 257.42017,65.378 L260.03817,58 L249.56617,58 L229.21717,3.498 L224.33817,3.498 Z" id="vary"></path>
                <path d="M13.640625,117.6875 C13.9218764,120.062512 14.5312453,121.749995 15.46875,122.75 C17.1250083,124.531259 20.1874777,125.421875 24.65625,125.421875 C27.2812631,125.421875 29.3671798,125.031254 30.9140625,124.25 C32.4609452,123.468746 33.234375,122.296883 33.234375,120.734375 C33.234375,119.234368 32.6093812,118.093754 31.359375,117.3125 C30.1093688,116.531246 25.4687902,115.18751 17.4375,113.28125 C11.6562211,111.843743 7.57813687,110.046886 5.203125,107.890625 C2.82811313,105.765614 1.640625,102.703145 1.640625,98.703125 C1.640625,93.9843514 3.49216898,89.9297045 7.1953125,86.5390625 C10.898456,83.1484205 16.1093414,81.453125 22.828125,81.453125 C29.2031569,81.453125 34.3984174,82.7265498 38.4140625,85.2734375 C42.4297076,87.8203252 44.734372,92.2187187 45.328125,98.46875 L31.96875,98.46875 C31.7812491,96.7499914 31.2968789,95.39063 30.515625,94.390625 C29.0468677,92.5781159 26.5468927,91.671875 23.015625,91.671875 C20.1093605,91.671875 18.0390687,92.1249955 16.8046875,93.03125 C15.5703063,93.9375045 14.953125,94.9999939 14.953125,96.21875 C14.953125,97.7500077 15.6093684,98.8593716 16.921875,99.546875 C18.2343816,100.265629 22.8749602,101.499991 30.84375,103.25 C36.1562766,104.500006 40.1406117,106.390612 42.796875,108.921875 C45.4218881,111.484388 46.734375,114.687481 46.734375,118.53125 C46.734375,123.593775 44.8515813,127.726546 41.0859375,130.929688 C37.3202937,134.132829 31.5000394,135.734375 23.625,135.734375 C15.5937098,135.734375 9.66408164,134.039079 5.8359375,130.648438 C2.00779336,127.257796 0.09375,122.937526 0.09375,117.6875 L13.640625,117.6875 Z M83.0635417,109.15625 C82.2197874,109.687503 81.3682334,110.117186 80.5088542,110.445312 C79.6494749,110.773439 78.4697992,111.078124 76.9697917,111.359375 L73.9697917,111.921875 C71.1572776,112.421877 69.1416727,113.031246 67.9229167,113.75 C65.8604063,114.968756 64.8291667,116.859362 64.8291667,119.421875 C64.8291667,121.703136 65.4619728,123.351557 66.7276042,124.367188 C67.9932355,125.382818 69.5322826,125.890625 71.3447917,125.890625 C74.219806,125.890625 76.868217,125.046883 79.2901042,123.359375 C81.7119913,121.671867 82.9697912,118.593772 83.0635417,114.125 L83.0635417,109.15625 Z M74.9541667,102.921875 C77.422929,102.609373 79.1885363,102.218752 80.2510417,101.75 C82.1573012,100.937496 83.1104167,99.6718836 83.1104167,97.953125 C83.1104167,95.8593645 82.3838614,94.4140665 80.9307292,93.6171875 C79.4775969,92.8203085 77.3448057,92.421875 74.5322917,92.421875 C71.3760259,92.421875 69.1416732,93.2031172 67.8291667,94.765625 C66.891662,95.9218808 66.2666682,97.4843652 65.9541667,99.453125 L53.0635417,99.453125 C53.3447931,94.9843527 54.5947806,91.3125144 56.8135417,88.4375 C60.3448093,83.9374775 66.4072487,81.6875 75.0010417,81.6875 C80.5948196,81.6875 85.5635199,82.7968639 89.9072917,85.015625 C94.2510634,87.2343861 96.4229167,91.4218442 96.4229167,97.578125 L96.4229167,121.015625 C96.4229167,122.640633 96.4541663,124.609363 96.5166667,126.921875 C96.6104171,128.671884 96.8760395,129.859372 97.3135417,130.484375 C97.7510438,131.109378 98.4072873,131.624998 99.2822917,132.03125 L99.2822917,134 L84.7510417,134 C84.3447896,132.968745 84.0635424,132.000005 83.9072917,131.09375 C83.7510409,130.187495 83.6260421,129.156256 83.5322917,128 C81.6885324,130.00001 79.5635537,131.703118 77.1572917,133.109375 C74.2822773,134.765633 71.0323098,135.59375 67.4072917,135.59375 C62.7822685,135.59375 58.9619942,134.273451 55.9463542,131.632812 C52.9307141,128.992174 51.4229167,125.250024 51.4229167,120.40625 C51.4229167,114.124969 53.8447674,109.578139 58.6885417,106.765625 C61.3448049,105.234367 65.2510159,104.140628 70.4072917,103.484375 L74.9541667,102.921875 Z M116.955208,117.6875 C117.23646,120.062512 117.845829,121.749995 118.783333,122.75 C120.439592,124.531259 123.502061,125.421875 127.970833,125.421875 C130.595846,125.421875 132.681763,125.031254 134.228646,124.25 C135.775529,123.468746 136.548958,122.296883 136.548958,120.734375 C136.548958,119.234368 135.923965,118.093754 134.673958,117.3125 C133.423952,116.531246 128.783373,115.18751 120.752083,113.28125 C114.970804,111.843743 110.89272,110.046886 108.517708,107.890625 C106.142696,105.765614 104.955208,102.703145 104.955208,98.703125 C104.955208,93.9843514 106.806752,89.9297045 110.509896,86.5390625 C114.213039,83.1484205 119.423925,81.453125 126.142708,81.453125 C132.51774,81.453125 137.713001,82.7265498 141.728646,85.2734375 C145.744291,87.8203252 148.048955,92.2187187 148.642708,98.46875 L135.283333,98.46875 C135.095832,96.7499914 134.611462,95.39063 133.830208,94.390625 C132.361451,92.5781159 129.861476,91.671875 126.330208,91.671875 C123.423944,91.671875 121.353652,92.1249955 120.119271,93.03125 C118.88489,93.9375045 118.267708,94.9999939 118.267708,96.21875 C118.267708,97.7500077 118.923952,98.8593716 120.236458,99.546875 C121.548965,100.265629 126.189543,101.499991 134.158333,103.25 C139.47086,104.500006 143.455195,106.390612 146.111458,108.921875 C148.736471,111.484388 150.048958,114.687481 150.048958,118.53125 C150.048958,123.593775 148.166165,127.726546 144.400521,130.929688 C140.634877,134.132829 134.814623,135.734375 126.939583,135.734375 C118.908293,135.734375 112.978665,134.039079 109.150521,130.648438 C105.322377,127.257796 103.408333,122.937526 103.408333,117.6875 L116.955208,117.6875 Z M168.6125,117.6875 C168.893751,120.062512 169.50312,121.749995 170.440625,122.75 C172.096883,124.531259 175.159353,125.421875 179.628125,125.421875 C182.253138,125.421875 184.339055,125.031254 185.885937,124.25 C187.43282,123.468746 188.20625,122.296883 188.20625,120.734375 C188.20625,119.234368 187.581256,118.093754 186.33125,117.3125 C185.081244,116.531246 180.440665,115.18751 172.409375,113.28125 C166.628096,111.843743 162.550012,110.046886 160.175,107.890625 C157.799988,105.765614 156.6125,102.703145 156.6125,98.703125 C156.6125,93.9843514 158.464044,89.9297045 162.167187,86.5390625 C165.870331,83.1484205 171.081216,81.453125 177.8,81.453125 C184.175032,81.453125 189.370292,82.7265498 193.385937,85.2734375 C197.401583,87.8203252 199.706247,92.2187187 200.3,98.46875 L186.940625,98.46875 C186.753124,96.7499914 186.268754,95.39063 185.4875,94.390625 C184.018743,92.5781159 181.518768,91.671875 177.9875,91.671875 C175.081235,91.671875 173.010944,92.1249955 171.776562,93.03125 C170.542181,93.9375045 169.925,94.9999939 169.925,96.21875 C169.925,97.7500077 170.581243,98.8593716 171.89375,99.546875 C173.206257,100.265629 177.846835,101.499991 185.815625,103.25 C191.128152,104.500006 195.112487,106.390612 197.76875,108.921875 C200.393763,111.484388 201.70625,114.687481 201.70625,118.53125 C201.70625,123.593775 199.823456,127.726546 196.057812,130.929688 C192.292169,134.132829 186.471914,135.734375 178.596875,135.734375 C170.565585,135.734375 164.635957,134.039079 160.807812,130.648438 C156.979668,127.257796 155.065625,122.937526 155.065625,117.6875 L168.6125,117.6875 Z" id="sass"></path>
            </g>
        </g>
    </g>
</svg>